{"glyphs":{"0":{"ha":733,"x_min":0,"x_max":0,"o":"m 367 -17 b 682 444 556 -17 682 144 b 367 899 682 744 556 899 b 51 444 178 899 51 744 b 367 -17 51 144 178 -17 z m 367 142 b 244 444 299 142 244 204 b 367 740 244 686 299 740 b 489 444 436 740 489 686 b 367 142 489 204 436 142 z "},"1":{"ha":733,"x_min":0,"x_max":0,"o":"m 97 0 l 658 0 l 658 165 l 493 165 l 493 882 l 343 882 b 124 801 281 844 219 819 l 124 675 l 289 675 l 289 165 l 97 165 z "},"2":{"ha":733,"x_min":0,"x_max":0,"o":"m 51 0 l 672 0 l 672 172 l 494 172 b 347 161 453 172 392 167 b 629 618 490 311 629 469 b 338 899 629 788 511 899 b 42 758 211 899 129 851 l 153 649 b 310 739 197 696 246 739 b 435 606 386 739 435 692 b 51 117 435 481 276 329 z "},"3":{"ha":733,"x_min":0,"x_max":0,"o":"m 31 108 b 338 -17 94 33 194 -17 b 665 240 515 -17 665 76 b 490 456 665 354 592 426 l 490 461 b 638 657 585 501 638 565 b 333 899 638 811 515 899 b 56 786 225 899 136 856 l 158 661 b 324 739 214 710 261 739 b 432 642 393 739 432 703 b 224 524 432 571 382 524 l 224 379 b 461 253 415 379 461 331 b 318 149 461 186 404 149 b 125 238 243 149 178 186 z "},"4":{"ha":733,"x_min":0,"x_max":0,"o":"m 222 367 l 339 558 b 411 707 364 608 389 658 l 417 707 b 408 510 414 651 408 567 l 408 367 z m 700 367 l 599 367 l 599 882 l 349 882 l 26 351 l 26 211 l 408 211 l 408 0 l 599 0 l 599 211 l 700 211 z "},"5":{"ha":733,"x_min":0,"x_max":0,"o":"m 32 107 b 343 -17 101 38 199 -17 b 667 292 515 -17 667 96 b 386 565 667 479 538 565 b 288 544 350 565 321 560 l 303 710 l 626 710 l 626 882 l 126 882 l 101 436 l 193 378 b 324 422 246 411 272 422 b 463 286 406 422 463 375 b 314 149 463 196 404 149 b 124 236 239 149 176 188 z "},"6":{"ha":733,"x_min":0,"x_max":0,"o":"m 386 136 b 249 319 325 136 267 181 b 382 407 289 383 338 407 b 497 279 449 407 497 372 b 386 136 497 179 447 136 z m 671 793 b 414 899 615 850 531 899 b 57 421 228 899 57 750 b 390 -17 57 111 219 -17 b 683 279 550 -17 683 96 b 421 551 683 465 572 551 b 244 458 367 551 290 517 b 426 733 251 664 329 733 b 564 671 478 733 533 704 z "},"7":{"ha":733,"x_min":0,"x_max":0,"o":"m 221 0 l 426 0 b 675 757 442 344 471 510 l 675 882 l 61 882 l 61 710 l 457 710 b 221 0 290 479 238 293 z "},"8":{"ha":733,"x_min":0,"x_max":0,"o":"m 233 249 b 301 389 233 303 263 353 b 488 235 413 342 488 313 b 369 125 488 161 438 125 b 233 249 296 125 233 171 z m 421 514 b 269 656 331 549 269 583 b 368 757 269 724 314 757 b 475 643 435 757 475 711 b 421 514 475 597 456 554 z m 58 225 b 365 -17 58 82 189 -17 b 678 228 553 -17 678 89 b 525 458 678 344 610 413 l 525 464 b 640 657 586 504 640 572 b 372 899 640 803 533 899 b 90 656 208 899 90 806 b 208 447 90 563 140 499 l 208 442 b 58 225 125 397 58 332 z "},"9":{"ha":733,"x_min":0,"x_max":0,"o":"m 350 475 b 233 603 283 475 233 510 b 344 746 233 703 285 746 b 482 563 407 746 464 701 b 350 475 443 499 394 475 z m 60 89 b 318 -17 115 33 201 -17 b 675 461 503 -17 675 132 b 340 899 675 771 511 899 b 47 603 181 899 47 786 b 310 331 47 417 160 331 b 486 424 364 331 440 365 b 304 149 479 218 403 149 b 168 211 253 149 197 178 z "}," ":{"ha":289,"x_min":0,"x_max":0,"o":""},"A":{"ha":793,"x_min":0,"x_max":0,"o":"m 296 375 l 318 458 b 389 750 343 549 368 654 l 394 750 b 468 458 419 656 443 549 l 490 375 z m 588 0 l 804 0 l 519 906 l 275 906 l -10 0 l 199 0 l 254 215 l 532 215 z "},"B":{"ha":839,"x_min":0,"x_max":0,"o":"m 106 0 l 442 0 b 794 267 639 0 794 82 b 597 479 794 388 726 456 l 597 485 b 750 681 703 513 750 600 b 415 906 750 854 604 906 l 106 906 z m 311 540 l 311 747 l 408 747 b 550 651 503 747 550 719 b 406 540 550 583 506 540 z m 311 158 l 311 396 l 425 396 b 594 282 538 396 594 361 b 425 158 594 200 536 158 z "},"C":{"ha":806,"x_min":0,"x_max":0,"o":"m 63 447 b 489 -17 63 143 254 -17 b 776 117 601 -17 701 29 l 664 240 b 492 160 619 192 567 160 b 272 454 360 160 272 268 b 497 746 272 636 371 746 b 650 678 561 746 604 719 l 763 804 b 494 922 701 867 607 922 b 63 447 261 922 63 747 z "},"D":{"ha":881,"x_min":0,"x_max":0,"o":"m 106 0 l 374 0 b 817 457 639 0 817 146 b 361 906 817 768 639 906 l 106 906 z m 311 165 l 311 740 l 350 740 b 607 457 503 740 607 674 b 350 165 607 240 503 165 z "},"E":{"ha":758,"x_min":0,"x_max":0,"o":"m 106 0 l 688 0 l 688 172 l 311 172 l 311 381 l 619 381 l 619 551 l 311 551 l 311 733 l 674 733 l 674 906 l 106 906 z "},"F":{"ha":726,"x_min":0,"x_max":0,"o":"m 106 0 l 311 0 l 311 351 l 624 351 l 624 524 l 311 524 l 311 733 l 678 733 l 678 906 l 106 906 z "},"G":{"ha":883,"x_min":0,"x_max":0,"o":"m 63 447 b 501 -17 63 143 257 -17 b 806 93 628 -17 740 36 l 806 510 l 474 510 l 474 343 l 624 343 l 624 188 b 528 160 601 169 564 160 b 272 454 357 160 272 268 b 511 746 272 636 372 746 b 678 678 589 746 632 719 l 790 804 b 508 922 729 865 636 922 b 63 447 263 922 63 747 z "},"H":{"ha":933,"x_min":0,"x_max":0,"o":"m 106 0 l 311 0 l 311 378 l 624 378 l 624 0 l 828 0 l 828 906 l 624 906 l 624 557 l 311 557 l 311 906 l 106 906 z "},"I":{"ha":417,"x_min":0,"x_max":0,"o":"m 106 0 l 311 0 l 311 906 l 106 906 z "},"J":{"ha":704,"x_min":0,"x_max":0,"o":"m 21 147 b 314 -17 83 38 175 -17 b 604 301 514 -17 604 126 l 604 906 l 399 906 l 399 318 b 286 160 399 197 360 160 b 160 250 240 160 194 189 z "},"K":{"ha":851,"x_min":0,"x_max":0,"o":"m 106 0 l 311 0 l 311 243 l 417 382 l 636 0 l 861 0 l 536 544 l 810 906 l 586 906 l 315 535 l 311 535 l 311 906 l 106 906 z "},"L":{"ha":717,"x_min":0,"x_max":0,"o":"m 106 0 l 668 0 l 668 172 l 311 172 l 311 906 l 106 906 z "},"M":{"ha":1057,"x_min":0,"x_max":0,"o":"m 106 0 l 294 0 l 294 332 b 268 640 294 421 278 553 l 274 640 l 346 431 l 485 79 l 567 79 l 707 431 l 781 640 l 786 640 b 760 332 776 553 760 421 l 760 0 l 951 0 l 951 906 l 735 906 l 588 499 l 533 340 l 528 340 l 474 499 l 322 906 l 106 906 z "},"N":{"ha":922,"x_min":0,"x_max":0,"o":"m 106 0 l 301 0 l 301 321 b 275 649 301 428 285 549 l 281 649 l 369 451 l 606 0 l 815 0 l 815 906 l 621 906 l 621 586 b 647 256 621 479 638 351 l 642 256 l 551 456 l 315 906 l 106 906 z "},"O":{"ha":949,"x_min":0,"x_max":0,"o":"m 474 -17 b 885 457 718 -17 885 161 b 474 922 885 751 718 922 b 63 457 231 922 63 753 b 474 -17 63 161 231 -17 z m 474 160 b 272 457 351 160 272 275 b 474 746 272 638 351 746 b 675 457 597 746 675 638 b 474 160 675 275 597 160 z "},"P":{"ha":840,"x_min":0,"x_max":0,"o":"m 106 0 l 311 0 l 311 307 l 436 307 b 790 614 628 307 790 401 b 436 906 790 833 633 906 l 106 906 z m 311 469 l 311 743 l 424 743 b 590 614 532 743 590 708 b 424 469 590 519 536 469 z "},"Q":{"ha":949,"x_min":0,"x_max":0,"o":"m 268 457 b 469 746 268 638 346 746 b 671 457 593 746 671 638 b 469 160 671 275 593 160 b 268 457 346 160 268 275 z m 892 -68 b 792 -85 865 -78 831 -85 b 593 0 715 -85 635 -62 b 881 457 768 50 881 214 b 469 922 881 751 714 922 b 58 457 225 922 58 753 b 376 -7 58 201 183 33 b 768 -247 440 -149 576 -247 b 928 -218 838 -247 894 -235 z "},"R":{"ha":854,"x_min":0,"x_max":0,"o":"m 311 743 l 415 743 b 581 624 522 743 581 713 b 415 489 581 535 522 489 l 311 489 z m 825 0 l 621 363 b 782 624 717 406 782 490 b 432 906 782 839 624 906 l 106 906 l 106 0 l 311 0 l 311 326 l 422 326 l 596 0 z "},"S":{"ha":769,"x_min":0,"x_max":0,"o":"m 47 114 b 383 -17 140 28 265 -17 b 724 264 599 -17 724 114 b 544 510 724 392 654 465 l 429 557 b 290 664 350 589 290 608 b 406 746 290 715 336 746 b 594 674 478 746 535 719 l 697 803 b 406 922 619 881 510 922 b 83 653 218 922 83 803 b 267 406 83 521 172 443 l 383 356 b 514 247 463 322 514 304 b 388 160 514 193 472 160 b 165 254 313 160 229 199 z "},"T":{"ha":771,"x_min":0,"x_max":0,"o":"m 283 0 l 488 0 l 488 733 l 736 733 l 736 906 l 33 906 l 33 733 l 283 733 z "},"U":{"ha":921,"x_min":0,"x_max":0,"o":"m 101 419 b 463 -17 101 115 228 -17 b 821 419 697 -17 821 115 l 821 906 l 624 906 l 624 399 b 463 160 624 221 564 160 b 306 399 361 160 306 221 l 306 906 l 101 906 z "},"V":{"ha":771,"x_min":0,"x_max":0,"o":"m 263 0 l 508 0 l 782 906 l 572 906 l 465 483 b 393 193 439 385 421 293 l 388 193 b 315 483 360 293 342 385 l 206 906 l -11 906 z "},"W":{"ha":1128,"x_min":0,"x_max":0,"o":"m 186 0 l 439 0 l 525 411 b 561 621 539 481 550 554 l 567 621 b 603 411 576 554 589 481 l 692 0 l 949 0 l 1110 906 l 914 906 l 851 482 b 815 196 839 389 826 293 l 810 196 b 756 482 792 293 774 390 l 657 906 l 483 906 l 386 482 b 333 196 368 388 350 292 l 328 196 b 290 482 315 292 303 388 l 228 906 l 18 906 z "},"X":{"ha":786,"x_min":0,"x_max":0,"o":"m 15 0 l 233 0 l 318 185 b 381 333 339 232 358 278 l 386 333 b 454 185 410 278 431 232 l 543 0 l 771 0 l 521 456 l 756 906 l 538 906 l 465 735 b 408 589 447 693 429 646 l 403 589 b 336 735 376 646 357 693 l 258 906 l 29 906 l 265 465 z "},"Y":{"ha":728,"x_min":0,"x_max":0,"o":"m 261 0 l 465 0 l 465 322 l 739 906 l 525 906 l 444 697 b 368 497 419 629 393 567 l 363 497 b 289 697 336 567 313 629 l 207 906 l -11 906 l 261 322 z "},"Z":{"ha":750,"x_min":0,"x_max":0,"o":"m 49 0 l 704 0 l 704 172 l 301 172 l 701 782 l 701 906 l 86 906 l 86 733 l 449 733 l 49 124 z "},"a":{"ha":742,"x_min":0,"x_max":0,"o":"m 65 192 b 269 -17 65 75 144 -17 b 471 71 347 -17 413 19 l 475 71 l 490 0 l 657 0 l 657 394 b 383 706 657 606 560 706 b 89 615 275 706 176 668 l 161 481 b 344 543 228 519 286 543 b 453 443 418 543 449 504 b 65 192 181 415 65 336 z m 260 207 b 453 321 260 260 307 301 l 453 200 b 339 142 417 164 386 142 b 260 207 290 142 260 163 z "},"b":{"ha":796,"x_min":0,"x_max":0,"o":"m 90 0 l 250 0 l 267 72 l 272 72 b 451 -17 326 14 390 -17 b 742 357 600 -17 742 119 b 471 706 742 568 638 706 b 289 629 407 706 342 676 l 294 735 l 294 974 l 90 974 z m 294 194 l 294 476 b 413 539 333 519 371 539 b 532 353 494 539 532 476 b 404 150 532 211 475 150 b 294 194 369 150 331 161 z "},"c":{"ha":649,"x_min":0,"x_max":0,"o":"m 50 344 b 390 -17 50 115 199 -17 b 619 69 465 -17 553 11 l 538 199 b 414 149 504 172 464 149 b 260 344 325 149 260 225 b 421 540 260 464 322 540 b 517 500 453 540 483 528 l 610 626 b 408 706 564 674 493 706 b 50 344 218 706 50 574 z "},"d":{"ha":796,"x_min":0,"x_max":0,"o":"m 54 344 b 336 -17 54 119 165 -17 b 519 68 403 -17 471 19 l 525 68 l 539 0 l 706 0 l 706 974 l 501 974 l 501 739 l 510 633 b 340 706 463 678 417 706 b 54 344 194 706 54 569 z m 264 347 b 388 539 264 478 322 539 b 501 494 425 539 465 528 l 501 213 b 389 150 468 167 433 150 b 264 347 310 150 264 211 z "},"e":{"ha":719,"x_min":0,"x_max":0,"o":"m 50 344 b 399 -17 50 117 201 -17 b 643 61 481 -17 572 13 l 575 185 b 426 139 525 154 478 139 b 247 289 335 139 265 185 l 660 289 b 668 375 664 306 668 339 b 375 706 668 563 571 706 b 50 344 210 706 50 568 z m 246 415 b 379 550 260 507 315 550 b 494 415 461 550 494 494 z "},"f":{"ha":474,"x_min":0,"x_max":0,"o":"m 517 965 b 379 990 486 976 436 990 b 125 725 193 990 125 871 l 125 688 l 33 681 l 33 529 l 125 529 l 125 0 l 329 0 l 329 529 l 453 529 l 453 689 l 329 689 l 329 731 b 408 829 329 801 358 829 b 479 815 431 829 456 824 z "},"g":{"ha":742,"x_min":0,"x_max":0,"o":"m 215 -86 b 253 -18 215 -61 228 -40 b 350 -26 275 -24 303 -26 l 421 -26 b 526 -81 489 -26 526 -37 b 368 -165 526 -128 460 -165 b 215 -86 276 -165 215 -137 z m 47 -118 b 336 -293 47 -240 175 -293 b 721 -46 572 -293 721 -189 b 458 129 721 78 628 129 l 347 129 b 243 181 271 129 243 146 b 268 232 243 204 250 217 b 351 218 299 222 326 218 b 622 450 503 218 622 292 b 600 540 622 486 613 519 l 710 540 l 710 689 l 458 689 b 351 706 428 700 390 706 b 67 457 203 706 67 622 b 160 278 67 376 111 311 l 160 272 b 82 143 115 242 82 193 b 146 26 82 86 110 50 l 146 21 b 47 -118 82 -15 47 -61 z m 351 342 b 257 457 297 342 257 381 b 351 568 257 531 297 568 b 446 457 406 568 446 529 b 351 342 446 381 406 342 z "},"h":{"ha":793,"x_min":0,"x_max":0,"o":"m 90 0 l 294 0 l 294 465 b 422 532 339 508 371 532 b 507 401 481 532 507 501 l 507 0 l 711 0 l 711 428 b 497 706 711 600 647 706 b 285 611 404 706 336 657 l 294 735 l 294 974 l 90 974 z "},"i":{"ha":383,"x_min":0,"x_max":0,"o":"m 192 790 b 310 897 261 790 310 835 b 192 1003 310 960 261 1003 b 74 897 124 1003 74 960 b 192 790 74 835 124 790 z m 90 0 l 294 0 l 294 689 l 90 689 z "},"j":{"ha":386,"x_min":0,"x_max":0,"o":"m 92 -1 b 19 -112 92 -78 74 -112 b -35 -103 0 -112 -17 -108 l -71 -253 b 50 -272 -43 -264 -7 -272 b 296 4 238 -272 296 -146 l 296 689 l 92 689 z m 194 790 b 313 897 263 790 313 835 b 194 1003 313 960 263 1003 b 76 897 126 1003 76 960 b 194 790 76 835 126 790 z "},"k":{"ha":761,"x_min":0,"x_max":0,"o":"m 90 0 l 289 0 l 289 169 l 376 268 l 532 0 l 753 0 l 493 406 l 735 689 l 513 689 l 294 415 l 289 415 l 289 974 l 90 974 z "},"l":{"ha":397,"x_min":0,"x_max":0,"o":"m 90 214 b 278 -17 90 75 138 -17 b 381 0 324 -17 358 -10 l 356 151 b 331 149 344 149 339 149 b 294 206 314 149 294 163 l 294 974 l 90 974 z "},"m":{"ha":1190,"x_min":0,"x_max":0,"o":"m 90 0 l 294 0 l 294 465 b 411 532 338 510 378 532 b 496 401 469 532 496 501 l 496 0 l 700 0 l 700 465 b 818 532 744 510 783 532 b 903 401 876 532 903 501 l 903 0 l 1107 0 l 1107 428 b 892 706 1107 600 1040 706 b 675 590 800 706 736 653 b 485 706 640 664 582 706 b 276 600 394 706 333 657 l 271 600 l 257 689 l 90 689 z "},"n":{"ha":794,"x_min":0,"x_max":0,"o":"m 90 0 l 294 0 l 294 465 b 422 532 339 508 371 532 b 507 401 481 532 507 501 l 507 0 l 711 0 l 711 428 b 497 706 711 600 647 706 b 276 601 404 706 335 657 l 271 601 l 257 689 l 90 689 z "},"o":{"ha":771,"x_min":0,"x_max":0,"o":"m 50 344 b 386 -17 50 115 211 -17 b 721 344 560 -17 721 115 b 386 706 721 574 560 706 b 50 344 211 706 50 574 z m 260 344 b 386 540 260 464 301 540 b 513 344 469 540 513 464 b 386 149 513 225 469 149 b 260 344 301 149 260 225 z "},"p":{"ha":796,"x_min":0,"x_max":0,"o":"m 288 56 b 451 -17 336 10 392 -17 b 742 356 600 -17 742 119 b 472 706 742 568 639 706 b 276 621 400 706 331 669 l 271 621 l 257 689 l 90 689 l 90 -256 l 294 -256 l 294 -54 z m 294 194 l 294 476 b 413 539 335 519 371 539 b 532 353 494 539 532 476 b 404 150 532 211 475 150 b 294 194 369 150 331 161 z "},"q":{"ha":794,"x_min":0,"x_max":0,"o":"m 54 344 b 336 -17 54 119 165 -17 b 510 60 399 -17 464 15 l 501 -46 l 501 -256 l 706 -256 l 706 689 l 546 689 l 529 621 l 524 621 b 340 706 469 679 415 706 b 54 344 194 706 54 569 z m 264 347 b 388 539 264 478 322 539 b 501 494 425 539 465 528 l 501 213 b 389 150 468 167 433 150 b 264 347 310 150 264 211 z "},"r":{"ha":553,"x_min":0,"x_max":0,"o":"m 90 0 l 294 0 l 294 400 b 446 526 331 493 394 526 b 521 515 475 526 496 522 l 554 692 b 472 706 535 700 511 706 b 276 568 401 706 326 661 l 271 568 l 257 689 l 90 689 z "},"s":{"ha":615,"x_min":0,"x_max":0,"o":"m 29 79 b 293 -17 99 22 203 -17 b 576 206 478 -17 576 81 b 390 413 576 332 478 381 b 256 500 319 439 256 456 b 333 554 256 535 281 554 b 479 496 382 554 429 532 l 571 618 b 328 706 511 663 433 706 b 64 490 168 706 64 618 b 246 288 64 376 163 319 b 386 193 317 260 386 239 b 299 135 386 157 360 135 b 121 207 240 135 183 160 z "},"t":{"ha":532,"x_min":0,"x_max":0,"o":"m 118 250 b 356 -17 118 90 185 -17 b 508 8 422 -17 472 -3 l 476 157 b 411 143 458 150 433 143 b 322 253 357 143 322 175 l 322 529 l 488 529 l 488 689 l 322 689 l 322 872 l 153 872 l 129 689 l 24 681 l 24 529 l 118 529 z "},"u":{"ha":789,"x_min":0,"x_max":0,"o":"m 83 261 b 297 -17 83 89 147 -17 b 514 96 392 -17 456 26 l 518 96 l 533 0 l 700 0 l 700 689 l 496 689 l 496 233 b 374 157 456 179 425 157 b 288 288 314 157 288 189 l 288 689 l 83 689 z "},"v":{"ha":726,"x_min":0,"x_max":0,"o":"m 249 0 l 485 0 l 710 689 l 514 689 l 424 364 b 371 151 406 296 388 224 l 365 151 b 311 364 347 224 329 296 l 222 689 l 17 689 z "},"w":{"ha":1078,"x_min":0,"x_max":0,"o":"m 206 0 l 439 0 l 500 275 b 535 476 513 339 522 403 l 540 476 b 578 275 553 403 564 339 l 640 0 l 879 0 l 1044 689 l 856 689 l 790 369 b 758 165 778 301 771 235 l 753 165 b 710 369 739 235 726 301 l 632 689 l 456 689 l 379 369 b 339 165 363 304 351 235 l 333 165 b 303 369 322 235 314 301 l 236 689 l 33 689 z "},"x":{"ha":714,"x_min":0,"x_max":0,"o":"m 19 0 l 231 0 l 285 114 b 338 233 301 154 321 194 l 343 233 b 408 114 365 194 386 153 l 475 0 l 694 0 l 482 335 l 682 689 l 471 689 l 424 578 b 376 460 408 539 390 499 l 371 460 b 313 578 351 499 331 539 l 251 689 l 32 689 l 231 358 z "},"y":{"ha":724,"x_min":0,"x_max":0,"o":"m 106 -100 l 69 -256 b 167 -269 97 -264 125 -269 b 468 -7 329 -269 403 -181 l 707 689 l 511 689 l 428 393 b 381 197 411 328 396 263 l 375 197 b 321 393 357 265 340 331 l 222 689 l 17 689 l 282 18 l 272 -18 b 151 -108 254 -72 219 -108 b 106 -100 136 -108 118 -103 z "},"z":{"ha":639,"x_min":0,"x_max":0,"o":"m 53 0 l 606 0 l 606 160 l 307 160 l 596 581 l 596 689 l 85 689 l 85 529 l 342 529 l 53 110 z "},"À":{"ha":793,"x_min":0,"x_max":0,"o":"m 496 975 l 383 1142 l 167 1142 l 333 975 z m 296 375 l 318 458 b 389 750 343 549 368 654 l 394 750 b 468 458 419 656 443 549 l 490 375 z m 588 0 l 804 0 l 519 906 l 275 906 l -10 0 l 199 0 l 254 215 l 532 215 z "},"Á":{"ha":793,"x_min":0,"x_max":0,"o":"m 617 1142 l 400 1142 l 289 975 l 451 975 z m 296 375 l 318 458 b 389 750 343 549 368 654 l 394 750 b 468 458 419 656 443 549 l 490 375 z m 588 0 l 804 0 l 519 906 l 275 906 l -10 0 l 199 0 l 254 215 l 532 215 z "},"Â":{"ha":793,"x_min":0,"x_max":0,"o":"m 389 1060 l 394 1060 l 469 975 l 625 975 l 492 1142 l 293 1142 l 160 975 l 315 975 z m 296 375 l 318 458 b 389 750 343 549 368 654 l 394 750 b 468 458 419 656 443 549 l 490 375 z m 588 0 l 804 0 l 519 906 l 275 906 l -10 0 l 199 0 l 254 215 l 532 215 z "},"Ã":{"ha":793,"x_min":0,"x_max":0,"o":"m 525 1165 b 471 1103 514 1119 494 1103 b 304 1165 429 1103 379 1165 b 156 976 232 1165 169 1103 l 260 976 b 314 1039 269 1022 290 1039 b 479 976 356 1039 406 976 b 629 1165 553 976 614 1039 z m 296 375 l 318 458 b 389 750 343 549 368 654 l 394 750 b 468 458 419 656 443 549 l 490 375 z m 588 0 l 804 0 l 519 906 l 275 906 l -10 0 l 199 0 l 254 215 l 532 215 z "},"Ä":{"ha":793,"x_min":0,"x_max":0,"o":"m 529 972 b 626 1069 588 972 626 1014 b 529 1167 626 1125 588 1167 b 433 1069 472 1167 433 1125 b 529 972 433 1014 472 972 z m 254 972 b 351 1069 311 972 351 1014 b 254 1167 351 1125 311 1167 b 157 1069 197 1167 157 1125 b 254 972 157 1014 197 972 z m 296 375 l 318 458 b 389 750 343 549 368 654 l 394 750 b 468 458 419 656 443 549 l 490 375 z m 588 0 l 804 0 l 519 906 l 275 906 l -10 0 l 199 0 l 254 215 l 532 215 z "},"Ā":{"ha":793,"x_min":0,"x_max":0,"o":"m 589 1129 l 196 1129 l 196 1000 l 589 1000 z m 296 375 l 318 458 b 389 750 343 549 368 654 l 394 750 b 468 458 419 656 443 549 l 490 375 z m 588 0 l 804 0 l 519 906 l 275 906 l -10 0 l 199 0 l 254 215 l 532 215 z "},"Ă":{"ha":793,"x_min":0,"x_max":0,"o":"m 471 1142 b 392 1078 463 1106 440 1078 b 314 1142 344 1078 322 1106 l 203 1142 b 392 975 213 1043 271 975 b 582 1142 514 975 571 1043 z m 296 375 l 318 458 b 389 750 343 549 368 654 l 394 750 b 468 458 419 656 443 549 l 490 375 z m 588 0 l 804 0 l 519 906 l 275 906 l -10 0 l 199 0 l 254 215 l 532 215 z "},"Å":{"ha":793,"x_min":0,"x_max":0,"o":"m 392 1164 b 449 1104 424 1164 449 1140 b 392 1044 449 1067 424 1044 b 336 1104 361 1044 336 1067 b 392 1164 336 1140 361 1164 z m 392 968 b 549 1104 485 968 549 1021 b 392 1240 549 1186 485 1240 b 236 1104 299 1240 236 1186 b 392 968 236 1021 299 968 z m 296 375 l 318 458 b 389 750 343 549 368 654 l 394 750 b 468 458 419 656 443 549 l 490 375 z m 588 0 l 804 0 l 519 906 l 275 906 l -10 0 l 199 0 l 254 215 l 532 215 z "},"Ǎ":{"ha":793,"x_min":0,"x_max":0,"o":"m 492 975 l 625 1142 l 469 1142 l 394 1057 l 389 1057 l 315 1142 l 160 1142 l 293 975 z m 296 375 l 318 458 b 389 750 343 549 368 654 l 394 750 b 468 458 419 656 443 549 l 490 375 z m 588 0 l 804 0 l 519 906 l 275 906 l -10 0 l 199 0 l 254 215 l 532 215 z "},"Ạ":{"ha":793,"x_min":0,"x_max":0,"o":"m 392 -100 b 279 -207 326 -100 279 -144 b 392 -314 279 -269 326 -314 b 506 -207 458 -314 506 -269 b 392 -100 506 -144 458 -100 z m 296 375 l 318 458 b 389 750 343 549 368 654 l 394 750 b 468 458 419 656 443 549 l 490 375 z m 804 0 l 519 906 l 275 906 l -10 0 l 199 0 l 254 215 l 532 215 l 588 0 z "},"Ả":{"ha":793,"x_min":0,"x_max":0,"o":"m 343 960 b 536 1104 447 968 536 1008 b 303 1231 536 1178 475 1226 l 279 1129 b 389 1082 358 1124 389 1108 b 328 1040 389 1057 363 1047 z m 296 375 l 318 458 b 389 750 343 549 368 654 l 394 750 b 468 458 419 656 443 549 l 490 375 z m 588 0 l 804 0 l 519 906 l 275 906 l -10 0 l 199 0 l 254 215 l 532 215 z "},"Ấ":{"ha":793,"x_min":0,"x_max":0,"o":"m 803 1236 l 644 1236 l 549 1069 l 665 1069 z m 389 1051 l 394 1051 l 468 975 l 613 975 l 481 1133 l 304 1133 l 172 975 l 317 975 z m 296 375 l 318 458 b 389 750 343 549 368 654 l 394 750 b 468 458 419 656 443 549 l 490 375 z m 588 0 l 804 0 l 519 906 l 275 906 l -10 0 l 199 0 l 254 215 l 532 215 z "},"Ầ":{"ha":793,"x_min":0,"x_max":0,"o":"m 722 1069 l 628 1236 l 469 1236 l 607 1069 z m 389 1051 l 394 1051 l 468 975 l 613 975 l 481 1133 l 304 1133 l 172 975 l 317 975 z m 296 375 l 318 458 b 389 750 343 549 368 654 l 394 750 b 468 458 419 656 443 549 l 490 375 z m 588 0 l 804 0 l 519 906 l 275 906 l -10 0 l 199 0 l 254 215 l 532 215 z "},"Ẩ":{"ha":793,"x_min":0,"x_max":0,"o":"m 583 1042 b 743 1163 672 1049 743 1081 b 540 1274 743 1224 692 1269 l 521 1190 b 613 1144 590 1185 613 1171 b 567 1107 613 1121 593 1113 z m 389 1051 l 394 1051 l 468 975 l 613 975 l 481 1133 l 304 1133 l 172 975 l 317 975 z m 296 375 l 318 458 b 389 750 343 549 368 654 l 394 750 b 468 458 419 656 443 549 l 490 375 z m 588 0 l 804 0 l 519 906 l 275 906 l -10 0 l 199 0 l 254 215 l 532 215 z "},"Ẫ":{"ha":793,"x_min":0,"x_max":0,"o":"m 508 1342 b 458 1288 501 1304 482 1288 b 314 1342 419 1288 381 1342 b 185 1183 251 1342 197 1292 l 275 1183 b 325 1236 283 1221 301 1236 b 471 1183 364 1236 404 1183 b 600 1342 532 1183 588 1233 z m 389 1051 l 394 1051 l 468 975 l 613 975 l 481 1133 l 304 1133 l 172 975 l 317 975 z m 296 375 l 318 458 b 389 750 343 549 368 654 l 394 750 b 468 458 419 656 443 549 l 490 375 z m 588 0 l 804 0 l 519 906 l 275 906 l -10 0 l 199 0 l 254 215 l 532 215 z "},"Ậ":{"ha":793,"x_min":0,"x_max":0,"o":"m 389 1060 l 394 1060 l 469 975 l 625 975 l 492 1142 l 293 1142 l 160 975 l 315 975 z m 392 -100 b 279 -207 326 -100 279 -144 b 392 -314 279 -269 326 -314 b 506 -207 458 -314 506 -269 b 392 -100 506 -144 458 -100 z m 296 375 l 318 458 b 389 750 343 549 368 654 l 394 750 b 468 458 419 656 443 549 l 490 375 z m 804 0 l 519 906 l 275 906 l -10 0 l 199 0 l 254 215 l 532 215 l 588 0 z "},"Ắ":{"ha":793,"x_min":0,"x_max":0,"o":"m 572 1288 l 419 1288 l 331 1122 l 433 1122 z m 489 1142 b 392 1067 478 1097 453 1067 b 296 1142 332 1067 307 1097 l 203 1142 b 392 975 214 1042 272 975 b 582 1142 513 975 571 1042 z m 296 375 l 318 458 b 389 750 343 549 368 654 l 394 750 b 468 458 419 656 443 549 l 490 375 z m 588 0 l 804 0 l 519 906 l 275 906 l -10 0 l 199 0 l 254 215 l 532 215 z "},"Ằ":{"ha":793,"x_min":0,"x_max":0,"o":"m 454 1122 l 365 1288 l 211 1288 l 351 1122 z m 489 1142 b 392 1067 478 1097 453 1067 b 296 1142 332 1067 307 1097 l 203 1142 b 392 975 214 1042 272 975 b 582 1142 513 975 571 1042 z m 296 375 l 318 458 b 389 750 343 549 368 654 l 394 750 b 468 458 419 656 443 549 l 490 375 z m 588 0 l 804 0 l 519 906 l 275 906 l -10 0 l 199 0 l 254 215 l 532 215 z "},"Ẳ":{"ha":793,"x_min":0,"x_max":0,"o":"m 347 1119 b 507 1240 438 1126 507 1158 b 304 1353 507 1301 457 1347 l 285 1268 b 376 1222 356 1263 376 1249 b 331 1185 376 1199 357 1190 z m 489 1142 b 392 1067 478 1097 453 1067 b 296 1142 332 1067 307 1097 l 203 1142 b 392 975 214 1042 272 975 b 582 1142 513 975 571 1042 z m 296 375 l 318 458 b 389 750 343 549 368 654 l 394 750 b 468 458 419 656 443 549 l 490 375 z m 588 0 l 804 0 l 519 906 l 275 906 l -10 0 l 199 0 l 254 215 l 532 215 z "},"Ẵ":{"ha":793,"x_min":0,"x_max":0,"o":"m 508 1342 b 458 1288 501 1304 482 1288 b 314 1342 419 1288 381 1342 b 185 1183 251 1342 197 1292 l 275 1183 b 325 1236 283 1221 301 1236 b 471 1183 364 1236 404 1183 b 600 1342 532 1183 588 1233 z m 203 1142 b 392 975 214 1042 272 975 b 582 1142 513 975 571 1042 l 489 1142 b 392 1067 478 1097 453 1067 b 296 1142 332 1067 307 1097 z m 296 375 l 318 458 b 389 750 343 549 368 654 l 394 750 b 468 458 419 656 443 549 l 490 375 z m 588 0 l 804 0 l 519 906 l 275 906 l -10 0 l 199 0 l 254 215 l 532 215 z "},"Ặ":{"ha":793,"x_min":0,"x_max":0,"o":"m 471 1142 b 392 1078 463 1106 440 1078 b 314 1142 344 1078 322 1106 l 203 1142 b 392 975 213 1043 271 975 b 582 1142 514 975 571 1043 z m 392 -100 b 279 -207 326 -100 279 -144 b 392 -314 279 -269 326 -314 b 506 -207 458 -314 506 -269 b 392 -100 506 -144 458 -100 z m 296 375 l 318 458 b 389 750 343 549 368 654 l 394 750 b 468 458 419 656 443 549 l 490 375 z m 804 0 l 519 906 l 275 906 l -10 0 l 199 0 l 254 215 l 532 215 l 588 0 z "},"Ą":{"ha":793,"x_min":0,"x_max":0,"o":"m 296 375 l 318 458 b 389 750 343 549 368 654 l 394 750 b 468 458 419 656 443 549 l 490 375 z m 786 -158 b 732 -178 772 -168 754 -178 b 678 -125 703 -178 678 -160 b 804 0 678 -69 728 -7 l 519 906 l 275 906 l -10 0 l 199 0 l 254 215 l 532 215 l 588 0 l 642 0 b 529 -179 597 -26 529 -93 b 689 -310 529 -262 600 -310 b 833 -261 736 -310 797 -289 z "},"Æ":{"ha":1172,"x_min":0,"x_max":0,"o":"m 361 365 l 419 494 b 529 751 456 574 492 663 l 535 751 l 535 365 z m 740 172 l 740 381 l 1032 381 l 1032 551 l 740 551 l 740 733 l 1086 733 l 1086 906 l 410 906 l -19 0 l 194 0 l 289 207 l 535 207 l 535 0 l 1100 0 l 1100 172 z "},"Ç":{"ha":806,"x_min":0,"x_max":0,"o":"m 664 240 b 492 160 619 192 567 160 b 272 454 360 160 272 268 b 497 746 272 636 371 746 b 650 678 561 746 604 719 l 763 804 b 494 922 701 867 607 922 b 63 447 261 922 63 747 b 422 -12 63 172 218 15 l 375 -106 b 456 -164 438 -121 456 -140 b 342 -225 456 -200 408 -218 l 357 -307 b 603 -162 488 -300 603 -258 b 522 -60 603 -106 568 -75 l 542 -12 b 776 117 633 -1 714 43 z "},"Ć":{"ha":806,"x_min":0,"x_max":0,"o":"m 63 447 b 489 -17 63 143 254 -17 b 776 117 601 -17 701 29 l 664 240 b 492 160 619 192 567 160 b 272 454 360 160 272 268 b 497 746 272 636 371 746 b 650 678 561 746 604 719 l 763 804 b 494 922 701 867 607 922 b 63 447 261 922 63 747 z m 700 1142 l 483 1142 l 372 975 l 535 975 z "},"Ĉ":{"ha":806,"x_min":0,"x_max":0,"o":"m 63 447 b 489 -17 63 143 254 -17 b 776 117 601 -17 701 29 l 664 240 b 492 160 619 192 567 160 b 272 454 360 160 272 268 b 497 746 272 636 371 746 b 650 678 561 746 604 719 l 763 804 b 494 922 701 867 607 922 b 63 447 261 922 63 747 z m 399 975 l 472 1060 l 478 1060 l 553 975 l 708 975 l 575 1142 l 376 1142 l 243 975 z "},"Č":{"ha":806,"x_min":0,"x_max":0,"o":"m 63 447 b 489 -17 63 143 254 -17 b 776 117 601 -17 701 29 l 664 240 b 492 160 619 192 567 160 b 272 454 360 160 272 268 b 497 746 272 636 371 746 b 650 678 561 746 604 719 l 763 804 b 494 922 701 867 607 922 b 63 447 261 922 63 747 z m 553 1142 l 478 1057 l 472 1057 l 399 1142 l 243 1142 l 376 975 l 575 975 l 708 1142 z "},"Ċ":{"ha":806,"x_min":0,"x_max":0,"o":"m 63 447 b 489 -17 63 143 254 -17 b 776 117 601 -17 701 29 l 664 240 b 492 160 619 192 567 160 b 272 454 360 160 272 268 b 497 746 272 636 371 746 b 650 678 561 746 604 719 l 763 804 b 494 922 701 867 607 922 b 63 447 261 922 63 747 z m 475 974 b 593 1081 544 974 593 1018 b 475 1188 593 1143 544 1188 b 357 1081 407 1188 357 1143 b 475 974 357 1018 407 974 z "},"Ď":{"ha":881,"x_min":0,"x_max":0,"o":"m 106 0 l 374 0 b 817 457 639 0 817 146 b 361 906 817 768 639 906 l 106 906 z m 311 165 l 311 740 l 350 740 b 607 457 503 740 607 674 b 350 165 607 240 503 165 z m 518 1142 l 443 1057 l 438 1057 l 364 1142 l 208 1142 l 342 975 l 540 975 l 674 1142 z "},"Ḍ":{"ha":881,"x_min":0,"x_max":0,"o":"m 106 0 l 374 0 b 817 457 639 0 817 146 b 361 906 817 768 639 906 l 106 906 z m 311 165 l 311 740 l 350 740 b 607 457 503 740 607 674 b 350 165 607 240 503 165 z m 433 -314 b 547 -207 500 -314 547 -269 b 433 -100 547 -144 500 -100 b 321 -207 367 -100 321 -144 b 433 -314 321 -269 367 -314 z "},"Ḏ":{"ha":881,"x_min":0,"x_max":0,"o":"m 106 0 l 374 0 b 817 457 639 0 817 146 b 361 906 817 768 639 906 l 106 906 z m 311 165 l 311 740 l 350 740 b 607 457 503 740 607 674 b 350 165 607 240 503 165 z m 625 -132 l 242 -132 l 242 -262 l 625 -262 z "},"Đ":{"ha":914,"x_min":0,"x_max":0,"o":"m 344 165 l 344 418 l 519 418 l 519 517 l 344 517 l 344 740 l 383 740 b 640 457 536 740 640 674 b 383 165 640 240 536 165 z m 139 906 l 139 517 l 36 510 l 36 418 l 139 418 l 139 0 l 407 0 b 850 457 672 0 850 146 b 396 906 850 768 672 906 z "},"È":{"ha":758,"x_min":0,"x_max":0,"o":"m 106 0 l 688 0 l 688 172 l 311 172 l 311 381 l 619 381 l 619 551 l 311 551 l 311 733 l 674 733 l 674 906 l 106 906 z m 340 975 l 504 975 l 392 1142 l 175 1142 z "},"É":{"ha":758,"x_min":0,"x_max":0,"o":"m 106 0 l 688 0 l 688 172 l 311 172 l 311 381 l 619 381 l 619 551 l 311 551 l 311 733 l 674 733 l 674 906 l 106 906 z m 625 1142 l 408 1142 l 296 975 l 458 975 z "},"Ê":{"ha":758,"x_min":0,"x_max":0,"o":"m 106 0 l 688 0 l 688 172 l 311 172 l 311 381 l 619 381 l 619 551 l 311 551 l 311 733 l 674 733 l 674 906 l 106 906 z m 322 975 l 397 1060 l 403 1060 l 476 975 l 632 975 l 499 1142 l 300 1142 l 167 975 z "},"Ě":{"ha":758,"x_min":0,"x_max":0,"o":"m 106 0 l 688 0 l 688 172 l 311 172 l 311 381 l 619 381 l 619 551 l 311 551 l 311 733 l 674 733 l 674 906 l 106 906 z m 476 1142 l 403 1057 l 397 1057 l 322 1142 l 167 1142 l 300 975 l 499 975 l 632 1142 z "},"Ë":{"ha":758,"x_min":0,"x_max":0,"o":"m 106 0 l 688 0 l 688 172 l 311 172 l 311 381 l 619 381 l 619 551 l 311 551 l 311 733 l 674 733 l 674 906 l 106 906 z m 263 972 b 360 1069 319 972 360 1014 b 263 1167 360 1125 319 1167 b 165 1069 206 1167 165 1125 b 263 972 165 1014 206 972 z m 538 972 b 635 1069 594 972 635 1014 b 538 1167 635 1125 594 1167 b 440 1069 481 1167 440 1125 b 538 972 440 1014 481 972 z "},"Ē":{"ha":758,"x_min":0,"x_max":0,"o":"m 106 0 l 688 0 l 688 172 l 311 172 l 311 381 l 619 381 l 619 551 l 311 551 l 311 733 l 674 733 l 674 906 l 106 906 z m 203 1000 l 596 1000 l 596 1129 l 203 1129 z "},"Ĕ":{"ha":758,"x_min":0,"x_max":0,"o":"m 106 0 l 688 0 l 688 172 l 311 172 l 311 381 l 619 381 l 619 551 l 311 551 l 311 733 l 674 733 l 674 906 l 106 906 z m 400 975 b 589 1142 521 975 579 1043 l 478 1142 b 400 1078 469 1106 447 1078 b 321 1142 351 1078 329 1106 l 210 1142 b 400 975 221 1043 279 975 z "},"Ė":{"ha":758,"x_min":0,"x_max":0,"o":"m 106 0 l 688 0 l 688 172 l 311 172 l 311 381 l 619 381 l 619 551 l 311 551 l 311 733 l 674 733 l 674 906 l 106 906 z m 400 974 b 518 1081 468 974 518 1018 b 400 1188 518 1143 468 1188 b 282 1081 331 1188 282 1143 b 400 974 282 1018 331 974 z "},"Ẹ":{"ha":758,"x_min":0,"x_max":0,"o":"m 106 0 l 688 0 l 688 172 l 311 172 l 311 381 l 619 381 l 619 551 l 311 551 l 311 733 l 674 733 l 674 906 l 106 906 z m 408 -314 b 521 -207 474 -314 521 -269 b 408 -100 521 -144 474 -100 b 294 -207 342 -100 294 -144 b 408 -314 294 -269 342 -314 z "},"Ẻ":{"ha":758,"x_min":0,"x_max":0,"o":"m 106 0 l 688 0 l 688 172 l 311 172 l 311 381 l 619 381 l 619 551 l 311 551 l 311 733 l 674 733 l 674 906 l 106 906 z m 351 960 b 544 1104 456 968 544 1008 b 310 1231 544 1178 482 1226 l 286 1129 b 397 1082 367 1124 397 1108 b 335 1040 397 1057 369 1047 z "},"Ẽ":{"ha":758,"x_min":0,"x_max":0,"o":"m 106 0 l 688 0 l 688 172 l 311 172 l 311 381 l 619 381 l 619 551 l 311 551 l 311 733 l 674 733 l 674 906 l 106 906 z m 488 976 b 636 1165 560 976 622 1039 l 532 1165 b 478 1103 522 1119 501 1103 b 313 1165 436 1103 386 1165 b 164 976 240 1165 178 1103 l 267 976 b 321 1039 278 1022 297 1039 b 488 976 363 1039 413 976 z "},"Ế":{"ha":758,"x_min":0,"x_max":0,"o":"m 106 0 l 688 0 l 688 172 l 311 172 l 311 381 l 619 381 l 619 551 l 311 551 l 311 733 l 674 733 l 674 906 l 106 906 z m 556 1069 l 672 1069 l 810 1236 l 651 1236 z m 179 975 l 324 975 l 397 1051 l 403 1051 l 475 975 l 619 975 l 488 1133 l 311 1133 z "},"Ề":{"ha":758,"x_min":0,"x_max":0,"o":"m 106 0 l 688 0 l 688 172 l 311 172 l 311 381 l 619 381 l 619 551 l 311 551 l 311 733 l 674 733 l 674 906 l 106 906 z m 635 1236 l 476 1236 l 614 1069 l 731 1069 z m 179 975 l 324 975 l 397 1051 l 403 1051 l 475 975 l 619 975 l 488 1133 l 311 1133 z "},"Ể":{"ha":758,"x_min":0,"x_max":0,"o":"m 106 0 l 688 0 l 688 172 l 311 172 l 311 381 l 619 381 l 619 551 l 311 551 l 311 733 l 674 733 l 674 906 l 106 906 z m 590 1042 b 750 1163 681 1049 750 1081 b 547 1274 750 1224 700 1269 l 528 1190 b 619 1144 599 1185 619 1171 b 574 1107 619 1121 600 1113 z m 179 975 l 324 975 l 397 1051 l 403 1051 l 475 975 l 619 975 l 488 1133 l 311 1133 z "},"Ễ":{"ha":758,"x_min":0,"x_max":0,"o":"m 106 0 l 688 0 l 688 172 l 311 172 l 311 381 l 619 381 l 619 551 l 311 551 l 311 733 l 674 733 l 674 906 l 106 906 z m 179 975 l 324 975 l 397 1051 l 403 1051 l 475 975 l 619 975 l 488 1133 l 311 1133 z m 283 1183 b 333 1236 290 1221 310 1236 b 478 1183 372 1236 411 1183 b 607 1342 540 1183 594 1233 l 517 1342 b 467 1288 508 1304 490 1288 b 321 1342 428 1288 388 1342 b 192 1183 260 1342 204 1292 z "},"Ệ":{"ha":758,"x_min":0,"x_max":0,"o":"m 106 0 l 688 0 l 688 172 l 311 172 l 311 381 l 619 381 l 619 551 l 311 551 l 311 733 l 674 733 l 674 906 l 106 906 z m 322 975 l 397 1060 l 403 1060 l 476 975 l 632 975 l 499 1142 l 300 1142 l 167 975 z m 408 -314 b 521 -207 474 -314 521 -269 b 408 -100 521 -144 474 -100 b 294 -207 342 -100 294 -144 b 408 -314 294 -269 342 -314 z "},"Ę":{"ha":758,"x_min":0,"x_max":0,"o":"m 106 0 l 519 0 b 411 -179 472 -29 411 -94 b 569 -310 411 -262 482 -310 b 715 -261 618 -310 679 -289 l 668 -158 b 618 -178 654 -168 636 -178 b 560 -125 589 -178 560 -161 b 679 0 560 -64 615 -3 l 688 0 l 688 172 l 311 172 l 311 381 l 619 381 l 619 551 l 311 551 l 311 733 l 674 733 l 674 906 l 106 906 z "},"Ĝ":{"ha":883,"x_min":0,"x_max":0,"o":"m 63 447 b 501 -17 63 143 257 -17 b 806 93 628 -17 740 36 l 806 510 l 474 510 l 474 343 l 624 343 l 624 188 b 528 160 601 169 564 160 b 272 454 357 160 272 268 b 511 746 272 636 372 746 b 678 678 589 746 632 719 l 790 804 b 508 922 729 865 636 922 b 63 447 263 922 63 747 z m 432 975 l 506 1060 l 511 1060 l 585 975 l 742 975 l 608 1142 l 410 1142 l 276 975 z "},"Ğ":{"ha":883,"x_min":0,"x_max":0,"o":"m 63 447 b 501 -17 63 143 257 -17 b 806 93 628 -17 740 36 l 806 510 l 474 510 l 474 343 l 624 343 l 624 188 b 528 160 601 169 564 160 b 272 454 357 160 272 268 b 511 746 272 636 372 746 b 678 678 589 746 632 719 l 790 804 b 508 922 729 865 636 922 b 63 447 263 922 63 747 z m 508 975 b 699 1142 629 975 688 1043 l 588 1142 b 508 1078 579 1106 556 1078 b 431 1142 461 1078 439 1106 l 318 1142 b 508 975 329 1043 388 975 z "},"Ġ":{"ha":883,"x_min":0,"x_max":0,"o":"m 63 447 b 501 -17 63 143 257 -17 b 806 93 628 -17 740 36 l 806 510 l 474 510 l 474 343 l 624 343 l 624 188 b 528 160 601 169 564 160 b 272 454 357 160 272 268 b 511 746 272 636 372 746 b 678 678 589 746 632 719 l 790 804 b 508 922 729 865 636 922 b 63 447 263 922 63 747 z m 508 974 b 626 1081 578 974 626 1018 b 508 1188 626 1143 578 1188 b 390 1081 440 1188 390 1143 b 508 974 390 1018 440 974 z "},"Ģ":{"ha":883,"x_min":0,"x_max":0,"o":"m 63 447 b 501 -17 63 143 257 -17 b 806 93 628 -17 740 36 l 806 510 l 474 510 l 474 343 l 624 343 l 624 188 b 528 160 601 169 564 160 b 272 454 357 160 272 268 b 511 746 272 636 372 746 b 678 678 589 746 632 719 l 790 804 b 508 922 729 865 636 922 b 63 447 263 922 63 747 z m 453 -58 l 414 -133 b 474 -185 456 -144 474 -158 b 360 -236 474 -217 426 -229 l 375 -318 b 621 -175 506 -311 621 -269 b 453 -58 621 -106 578 -71 z "},"Ǧ":{"ha":883,"x_min":0,"x_max":0,"o":"m 63 447 b 501 -17 63 143 257 -17 b 806 93 628 -17 740 36 l 806 510 l 474 510 l 474 343 l 624 343 l 624 188 b 528 160 601 169 564 160 b 272 454 357 160 272 268 b 511 746 272 636 372 746 b 678 678 589 746 632 719 l 790 804 b 508 922 729 865 636 922 b 63 447 263 922 63 747 z m 585 1142 l 511 1057 l 506 1057 l 432 1142 l 276 1142 l 410 975 l 608 975 l 742 1142 z "},"Ḡ":{"ha":883,"x_min":0,"x_max":0,"o":"m 63 447 b 501 -17 63 143 257 -17 b 806 93 628 -17 740 36 l 806 510 l 474 510 l 474 343 l 624 343 l 624 188 b 528 160 601 169 564 160 b 272 454 357 160 272 268 b 511 746 272 636 372 746 b 678 678 589 746 632 719 l 790 804 b 508 922 729 865 636 922 b 63 447 263 922 63 747 z m 313 1000 l 706 1000 l 706 1129 l 313 1129 z "},"Ĥ":{"ha":933,"x_min":0,"x_max":0,"o":"m 106 0 l 311 0 l 311 378 l 624 378 l 624 0 l 828 0 l 828 906 l 624 906 l 624 557 l 311 557 l 311 906 l 106 906 z m 389 975 l 463 1060 l 468 1060 l 543 975 l 699 975 l 565 1142 l 367 1142 l 233 975 z "},"Ḥ":{"ha":933,"x_min":0,"x_max":0,"o":"m 106 0 l 311 0 l 311 378 l 624 378 l 624 0 l 828 0 l 828 906 l 624 906 l 624 557 l 311 557 l 311 906 l 106 906 z m 465 -314 b 579 -207 532 -314 579 -269 b 465 -100 579 -144 532 -100 b 353 -207 400 -100 353 -144 b 465 -314 353 -269 400 -314 z "},"Ḫ":{"ha":933,"x_min":0,"x_max":0,"o":"m 106 0 l 311 0 l 311 378 l 624 378 l 624 0 l 828 0 l 828 906 l 624 906 l 624 557 l 311 557 l 311 906 l 106 906 z m 465 -292 b 658 -99 594 -292 656 -200 l 544 -99 b 465 -181 539 -144 515 -181 b 386 -99 417 -181 393 -144 l 272 -99 b 465 -292 276 -200 336 -292 z "},"Ħ":{"ha":988,"x_min":0,"x_max":0,"o":"m 650 557 l 338 557 l 338 675 l 650 675 z m 954 774 l 854 774 l 854 906 l 650 906 l 650 774 l 338 774 l 338 906 l 133 906 l 133 774 l 33 765 l 33 675 l 133 675 l 133 0 l 338 0 l 338 378 l 650 378 l 650 0 l 854 0 l 854 675 l 954 675 z "},"Ì":{"ha":417,"x_min":0,"x_max":0,"o":"m 106 0 l 311 0 l 311 906 l 106 906 z m 149 975 l 313 975 l 200 1142 l -17 1142 z "},"Í":{"ha":417,"x_min":0,"x_max":0,"o":"m 106 0 l 311 0 l 311 906 l 106 906 z m 433 1142 l 217 1142 l 104 975 l 267 975 z "},"Î":{"ha":417,"x_min":0,"x_max":0,"o":"m 106 0 l 311 0 l 311 906 l 106 906 z m 132 975 l 206 1060 l 211 1060 l 285 975 l 442 975 l 308 1142 l 108 1142 l -25 975 z "},"Ĩ":{"ha":417,"x_min":0,"x_max":0,"o":"m 106 0 l 311 0 l 311 906 l 106 906 z m 296 976 b 444 1165 368 976 431 1039 l 340 1165 b 288 1103 331 1119 311 1103 b 121 1165 244 1103 196 1165 b -28 976 49 1165 -14 1103 l 75 976 b 129 1039 86 1022 106 1039 b 296 976 172 1039 221 976 z "},"Ï":{"ha":417,"x_min":0,"x_max":0,"o":"m 106 0 l 311 0 l 311 906 l 106 906 z m 71 972 b 168 1069 128 972 168 1014 b 71 1167 168 1125 128 1167 b -26 1069 14 1167 -26 1125 b 71 972 -26 1014 14 972 z m 346 972 b 443 1069 403 972 443 1014 b 346 1167 443 1125 403 1167 b 249 1069 289 1167 249 1125 b 346 972 249 1014 289 972 z "},"Ī":{"ha":417,"x_min":0,"x_max":0,"o":"m 106 0 l 311 0 l 311 906 l 106 906 z m 13 1000 l 404 1000 l 404 1129 l 13 1129 z "},"İ":{"ha":417,"x_min":0,"x_max":0,"o":"m 106 0 l 311 0 l 311 906 l 106 906 z m 208 974 b 326 1081 276 974 326 1018 b 208 1188 326 1143 276 1188 b 90 1081 140 1188 90 1143 b 208 974 90 1018 140 974 z "},"Ǐ":{"ha":417,"x_min":0,"x_max":0,"o":"m 106 0 l 311 0 l 311 906 l 106 906 z m 285 1142 l 211 1057 l 206 1057 l 132 1142 l -25 1142 l 108 975 l 308 975 l 442 1142 z "},"Ỉ":{"ha":417,"x_min":0,"x_max":0,"o":"m 106 0 l 311 0 l 311 906 l 106 906 z m 160 960 b 353 1104 264 968 353 1008 b 118 1231 353 1178 290 1226 l 96 1129 b 206 1082 175 1124 206 1108 b 143 1040 206 1057 178 1047 z "},"Ị":{"ha":417,"x_min":0,"x_max":0,"o":"m 106 0 l 311 0 l 311 906 l 106 906 z m 208 -314 b 322 -207 275 -314 322 -269 b 208 -100 322 -144 275 -100 b 96 -207 142 -100 96 -144 b 208 -314 96 -269 142 -314 z "},"Į":{"ha":417,"x_min":0,"x_max":0,"o":"m 106 0 l 161 0 b 58 -179 121 -29 58 -90 b 217 -310 58 -262 128 -310 b 363 -261 265 -310 326 -289 l 315 -158 b 264 -178 303 -168 283 -178 b 207 -125 236 -178 207 -161 b 311 0 207 -78 236 -31 l 311 906 l 106 906 z "},"Ĵ":{"ha":704,"x_min":0,"x_max":0,"o":"m 21 147 b 314 -17 83 38 175 -17 b 604 301 514 -17 604 126 l 604 906 l 399 906 l 399 318 b 286 160 399 197 360 160 b 160 250 240 160 194 189 z m 421 975 l 496 1060 l 501 1060 l 575 975 l 731 975 l 597 1142 l 399 1142 l 265 975 z "},"Ķ":{"ha":851,"x_min":0,"x_max":0,"o":"m 106 0 l 311 0 l 311 243 l 417 382 l 636 0 l 861 0 l 536 544 l 810 906 l 586 906 l 315 535 l 311 535 l 311 906 l 106 906 z m 410 -58 l 371 -133 b 432 -185 413 -144 432 -158 b 317 -236 432 -217 383 -229 l 332 -318 b 578 -175 464 -311 578 -269 b 410 -58 578 -106 535 -71 z "},"Ĺ":{"ha":717,"x_min":0,"x_max":0,"o":"m 106 0 l 668 0 l 668 172 l 311 172 l 311 906 l 106 906 z m 439 1142 l 222 1142 l 110 975 l 272 975 z "},"Ľ":{"ha":717,"x_min":0,"x_max":0,"o":"m 106 0 l 668 0 l 668 172 l 311 172 l 311 906 l 106 906 z m 576 708 l 610 919 l 613 1017 l 482 1017 l 489 708 z "},"Ļ":{"ha":717,"x_min":0,"x_max":0,"o":"m 106 0 l 668 0 l 668 172 l 311 172 l 311 906 l 106 906 z m 353 -58 l 314 -133 b 374 -185 354 -144 374 -158 b 258 -236 374 -217 325 -229 l 274 -318 b 521 -175 406 -311 521 -269 b 353 -58 521 -106 476 -71 z "},"Ŀ":{"ha":717,"x_min":0,"x_max":0,"o":"m 106 0 l 668 0 l 668 172 l 311 172 l 311 906 l 106 906 z m 446 457 b 568 328 446 385 497 328 b 692 457 639 328 692 385 b 568 585 692 529 639 585 b 446 457 497 585 446 529 z "},"Ḷ":{"ha":717,"x_min":0,"x_max":0,"o":"m 106 0 l 668 0 l 668 172 l 311 172 l 311 906 l 106 906 z m 401 -314 b 515 -207 468 -314 515 -269 b 401 -100 515 -144 468 -100 b 289 -207 336 -100 289 -144 b 401 -314 289 -269 336 -314 z "},"Ḹ":{"ha":717,"x_min":0,"x_max":0,"o":"m 106 0 l 668 0 l 668 172 l 311 172 l 311 906 l 106 906 z m 17 1000 l 410 1000 l 410 1129 l 17 1129 z m 401 -314 b 515 -207 468 -314 515 -269 b 401 -100 515 -144 468 -100 b 289 -207 336 -100 289 -144 b 401 -314 289 -269 336 -314 z "},"Ḻ":{"ha":717,"x_min":0,"x_max":0,"o":"m 106 0 l 668 0 l 668 172 l 311 172 l 311 906 l 106 906 z m 593 -132 l 210 -132 l 210 -262 l 593 -262 z "},"Ł":{"ha":726,"x_min":0,"x_max":0,"o":"m 319 172 l 319 386 l 561 518 l 561 676 l 319 544 l 319 906 l 115 906 l 115 444 l 14 390 l 14 232 l 115 286 l 115 0 l 676 0 l 676 172 z "},"Ṃ":{"ha":1057,"x_min":0,"x_max":0,"o":"m 106 0 l 294 0 l 294 332 b 268 640 294 421 278 553 l 274 640 l 346 431 l 485 79 l 567 79 l 707 431 l 781 640 l 786 640 b 760 332 776 553 760 421 l 760 0 l 951 0 l 951 906 l 735 906 l 588 499 l 533 340 l 528 340 l 474 499 l 322 906 l 106 906 z m 531 -314 b 644 -207 597 -314 644 -269 b 531 -100 644 -144 597 -100 b 418 -207 465 -100 418 -144 b 531 -314 418 -269 465 -314 z "},"Ń":{"ha":922,"x_min":0,"x_max":0,"o":"m 106 0 l 301 0 l 301 321 b 275 649 301 428 285 549 l 281 649 l 369 451 l 606 0 l 815 0 l 815 906 l 621 906 l 621 586 b 647 256 621 479 638 351 l 642 256 l 551 456 l 315 906 l 106 906 z m 688 1142 l 471 1142 l 358 975 l 521 975 z "},"Ň":{"ha":922,"x_min":0,"x_max":0,"o":"m 106 0 l 301 0 l 301 321 b 275 649 301 428 285 549 l 281 649 l 369 451 l 606 0 l 815 0 l 815 906 l 621 906 l 621 586 b 647 256 621 479 638 351 l 642 256 l 551 456 l 315 906 l 106 906 z m 539 1142 l 465 1057 l 460 1057 l 385 1142 l 229 1142 l 363 975 l 561 975 l 694 1142 z "},"Ñ":{"ha":922,"x_min":0,"x_max":0,"o":"m 106 0 l 301 0 l 301 321 b 275 649 301 428 285 549 l 281 649 l 369 451 l 606 0 l 815 0 l 815 906 l 621 906 l 621 586 b 647 256 621 479 638 351 l 642 256 l 551 456 l 315 906 l 106 906 z m 550 976 b 699 1165 622 976 685 1039 l 594 1165 b 540 1103 585 1119 564 1103 b 375 1165 499 1103 449 1165 b 226 976 301 1165 240 1103 l 329 976 b 383 1039 340 1022 360 1039 b 550 976 425 1039 475 976 z "},"Ņ":{"ha":922,"x_min":0,"x_max":0,"o":"m 106 0 l 301 0 l 301 321 b 275 649 301 428 285 549 l 281 649 l 369 451 l 606 0 l 815 0 l 815 906 l 621 906 l 621 586 b 647 256 621 479 638 351 l 642 256 l 551 456 l 315 906 l 106 906 z m 428 -58 l 388 -133 b 449 -185 429 -144 449 -158 b 333 -236 449 -217 400 -229 l 349 -318 b 594 -175 481 -311 594 -269 b 428 -58 594 -106 551 -71 z "},"Ṅ":{"ha":922,"x_min":0,"x_max":0,"o":"m 106 0 l 301 0 l 301 321 b 275 649 301 428 285 549 l 281 649 l 369 451 l 606 0 l 815 0 l 815 906 l 621 906 l 621 586 b 647 256 621 479 638 351 l 642 256 l 551 456 l 315 906 l 106 906 z m 463 974 b 581 1081 531 974 581 1018 b 463 1188 581 1143 531 1188 b 344 1081 393 1188 344 1143 b 463 974 344 1018 393 974 z "},"Ṇ":{"ha":922,"x_min":0,"x_max":0,"o":"m 106 0 l 301 0 l 301 321 b 275 649 301 428 285 549 l 281 649 l 369 451 l 606 0 l 815 0 l 815 906 l 621 906 l 621 586 b 647 256 621 479 638 351 l 642 256 l 551 456 l 315 906 l 106 906 z m 476 -314 b 590 -207 543 -314 590 -269 b 476 -100 590 -144 543 -100 b 364 -207 410 -100 364 -144 b 476 -314 364 -269 410 -314 z "},"Ṉ":{"ha":922,"x_min":0,"x_max":0,"o":"m 106 0 l 301 0 l 301 321 b 275 649 301 428 285 549 l 281 649 l 369 451 l 606 0 l 815 0 l 815 906 l 621 906 l 621 586 b 647 256 621 479 638 351 l 642 256 l 551 456 l 315 906 l 106 906 z m 668 -132 l 285 -132 l 285 -262 l 668 -262 z "},"Ò":{"ha":949,"x_min":0,"x_max":0,"o":"m 474 -17 b 885 457 718 -17 885 161 b 474 922 885 751 718 922 b 63 457 231 922 63 753 b 474 -17 63 161 231 -17 z m 474 160 b 272 457 351 160 272 275 b 474 746 272 638 351 746 b 675 457 597 746 675 638 b 474 160 675 275 597 160 z m 415 975 l 578 975 l 465 1142 l 249 1142 z "},"Ó":{"ha":949,"x_min":0,"x_max":0,"o":"m 474 -17 b 885 457 718 -17 885 161 b 474 922 885 751 718 922 b 63 457 231 922 63 753 b 474 -17 63 161 231 -17 z m 474 160 b 272 457 351 160 272 275 b 474 746 272 638 351 746 b 675 457 597 746 675 638 b 474 160 675 275 597 160 z m 699 1142 l 482 1142 l 371 975 l 533 975 z "},"Ô":{"ha":949,"x_min":0,"x_max":0,"o":"m 474 -17 b 885 457 718 -17 885 161 b 474 922 885 751 718 922 b 63 457 231 922 63 753 b 474 -17 63 161 231 -17 z m 474 160 b 272 457 351 160 272 275 b 474 746 272 638 351 746 b 675 457 597 746 675 638 b 474 160 675 275 597 160 z m 397 975 l 471 1060 l 476 1060 l 551 975 l 707 975 l 574 1142 l 375 1142 l 242 975 z "},"Õ":{"ha":949,"x_min":0,"x_max":0,"o":"m 474 -17 b 885 457 718 -17 885 161 b 474 922 885 751 718 922 b 63 457 231 922 63 753 b 474 -17 63 161 231 -17 z m 474 160 b 272 457 351 160 272 275 b 474 746 272 638 351 746 b 675 457 597 746 675 638 b 474 160 675 275 597 160 z m 561 976 b 711 1165 635 976 696 1039 l 607 1165 b 553 1103 597 1119 576 1103 b 386 1165 511 1103 461 1165 b 238 976 314 1165 253 1103 l 342 976 b 396 1039 351 1022 372 1039 b 561 976 438 1039 488 976 z "},"Ö":{"ha":949,"x_min":0,"x_max":0,"o":"m 474 -17 b 885 457 718 -17 885 161 b 474 922 885 751 718 922 b 63 457 231 922 63 753 b 474 -17 63 161 231 -17 z m 474 160 b 272 457 351 160 272 275 b 474 746 272 638 351 746 b 675 457 597 746 675 638 b 474 160 675 275 597 160 z m 336 972 b 433 1069 393 972 433 1014 b 336 1167 433 1125 393 1167 b 239 1069 279 1167 239 1125 b 336 972 239 1014 279 972 z m 611 972 b 708 1069 669 972 708 1014 b 611 1167 708 1125 669 1167 b 515 1069 554 1167 515 1125 b 611 972 515 1014 554 972 z "},"Ō":{"ha":949,"x_min":0,"x_max":0,"o":"m 474 -17 b 885 457 718 -17 885 161 b 474 922 885 751 718 922 b 63 457 231 922 63 753 b 474 -17 63 161 231 -17 z m 474 160 b 272 457 351 160 272 275 b 474 746 272 638 351 746 b 675 457 597 746 675 638 b 474 160 675 275 597 160 z m 278 1000 l 671 1000 l 671 1129 l 278 1129 z "},"Ő":{"ha":949,"x_min":0,"x_max":0,"o":"m 474 -17 b 885 457 718 -17 885 161 b 474 922 885 751 718 922 b 63 457 231 922 63 753 b 474 -17 63 161 231 -17 z m 474 160 b 272 457 351 160 272 275 b 474 746 272 638 351 746 b 675 457 597 746 675 638 b 474 160 675 275 597 160 z m 421 975 l 546 1142 l 371 1142 l 283 975 z m 533 975 l 671 975 l 794 1142 l 621 1142 z "},"Ǒ":{"ha":949,"x_min":0,"x_max":0,"o":"m 474 -17 b 885 457 718 -17 885 161 b 474 922 885 751 718 922 b 63 457 231 922 63 753 b 474 -17 63 161 231 -17 z m 474 160 b 272 457 351 160 272 275 b 474 746 272 638 351 746 b 675 457 597 746 675 638 b 474 160 675 275 597 160 z m 551 1142 l 476 1057 l 471 1057 l 397 1142 l 242 1142 l 375 975 l 574 975 l 707 1142 z "},"Ọ":{"ha":949,"x_min":0,"x_max":0,"o":"m 474 -17 b 885 457 718 -17 885 161 b 474 922 885 751 718 922 b 63 457 231 922 63 753 b 474 -17 63 161 231 -17 z m 474 160 b 272 457 351 160 272 275 b 474 746 272 638 351 746 b 675 457 597 746 675 638 b 474 160 675 275 597 160 z m 474 -314 b 588 -207 540 -314 588 -269 b 474 -100 588 -144 540 -100 b 361 -207 408 -100 361 -144 b 474 -314 361 -269 408 -314 z "},"Ỏ":{"ha":949,"x_min":0,"x_max":0,"o":"m 474 -17 b 885 457 718 -17 885 161 b 474 922 885 751 718 922 b 63 457 231 922 63 753 b 474 -17 63 161 231 -17 z m 474 160 b 272 457 351 160 272 275 b 474 746 272 638 351 746 b 675 457 597 746 675 638 b 474 160 675 275 597 160 z m 425 960 b 618 1104 531 968 618 1008 b 385 1231 618 1178 557 1226 l 361 1129 b 472 1082 440 1124 472 1108 b 410 1040 472 1057 444 1047 z "},"Ố":{"ha":949,"x_min":0,"x_max":0,"o":"m 474 -17 b 885 457 718 -17 885 161 b 474 922 885 751 718 922 b 63 457 231 922 63 753 b 474 -17 63 161 231 -17 z m 474 160 b 272 457 351 160 272 275 b 474 746 272 638 351 746 b 675 457 597 746 675 638 b 474 160 675 275 597 160 z m 631 1069 l 747 1069 l 885 1236 l 726 1236 z m 254 975 l 399 975 l 471 1051 l 476 1051 l 550 975 l 694 975 l 563 1133 l 386 1133 z "},"Ồ":{"ha":949,"x_min":0,"x_max":0,"o":"m 474 -17 b 885 457 718 -17 885 161 b 474 922 885 751 718 922 b 63 457 231 922 63 753 b 474 -17 63 161 231 -17 z m 474 160 b 272 457 351 160 272 275 b 474 746 272 638 351 746 b 675 457 597 746 675 638 b 474 160 675 275 597 160 z m 710 1236 l 551 1236 l 689 1069 l 804 1069 z m 254 975 l 399 975 l 471 1051 l 476 1051 l 550 975 l 694 975 l 563 1133 l 386 1133 z "},"Ổ":{"ha":949,"x_min":0,"x_max":0,"o":"m 474 -17 b 885 457 718 -17 885 161 b 474 922 885 751 718 922 b 63 457 231 922 63 753 b 474 -17 63 161 231 -17 z m 474 160 b 272 457 351 160 272 275 b 474 746 272 638 351 746 b 675 457 597 746 675 638 b 474 160 675 275 597 160 z m 665 1042 b 825 1163 754 1049 825 1081 b 622 1274 825 1224 775 1269 l 603 1190 b 694 1144 672 1185 694 1171 b 649 1107 694 1121 675 1113 z m 254 975 l 399 975 l 471 1051 l 476 1051 l 550 975 l 694 975 l 563 1133 l 386 1133 z "},"Ỗ":{"ha":949,"x_min":0,"x_max":0,"o":"m 474 -17 b 885 457 718 -17 885 161 b 474 922 885 751 718 922 b 63 457 231 922 63 753 b 474 -17 63 161 231 -17 z m 474 160 b 272 457 351 160 272 275 b 474 746 272 638 351 746 b 675 457 597 746 675 638 b 474 160 675 275 597 160 z m 254 975 l 399 975 l 471 1051 l 476 1051 l 550 975 l 694 975 l 563 1133 l 386 1133 z m 357 1183 b 408 1236 365 1221 383 1236 b 553 1183 446 1236 486 1183 b 682 1342 615 1183 669 1233 l 592 1342 b 540 1288 583 1304 564 1288 b 396 1342 503 1288 463 1342 b 267 1183 333 1342 279 1292 z "},"Ộ":{"ha":949,"x_min":0,"x_max":0,"o":"m 474 -17 b 885 457 718 -17 885 161 b 474 922 885 751 718 922 b 63 457 231 922 63 753 b 474 -17 63 161 231 -17 z m 474 160 b 272 457 351 160 272 275 b 474 746 272 638 351 746 b 675 457 597 746 675 638 b 474 160 675 275 597 160 z m 397 975 l 471 1060 l 476 1060 l 551 975 l 707 975 l 574 1142 l 375 1142 l 242 975 z m 474 -314 b 588 -207 540 -314 588 -269 b 474 -100 588 -144 540 -100 b 361 -207 408 -100 361 -144 b 474 -314 361 -269 408 -314 z "},"Ø":{"ha":949,"x_min":0,"x_max":0,"o":"m 664 568 b 675 457 671 535 675 497 b 474 160 675 275 597 160 b 365 197 432 160 396 174 z m 290 318 b 272 457 279 358 272 404 b 474 746 272 638 351 746 b 596 697 522 746 564 729 z m 915 881 l 810 963 l 718 849 b 474 922 651 897 568 922 b 63 457 231 922 63 753 b 150 143 63 328 94 222 l 54 24 l 161 -57 l 246 49 b 474 -17 310 6 386 -17 b 885 457 718 -17 885 161 b 810 749 885 575 858 674 z "},"Œ":{"ha":1207,"x_min":0,"x_max":0,"o":"m 63 457 b 517 0 63 146 260 0 l 1136 0 l 1136 172 l 778 172 l 778 381 l 1068 381 l 1068 551 l 778 551 l 778 733 l 1122 733 l 1122 906 l 528 906 b 63 457 260 906 63 768 z m 272 457 b 540 740 272 675 382 740 l 574 740 l 574 165 l 540 165 b 272 457 382 165 272 238 z "},"Ơ":{"ha":949,"x_min":0,"x_max":0,"o":"m 474 160 b 272 457 351 160 272 275 b 474 746 272 638 351 746 b 675 457 597 746 675 638 b 474 160 675 275 597 160 z m 729 1028 b 750 964 739 1011 750 989 b 668 879 750 913 721 892 b 474 922 611 907 546 922 b 63 457 231 922 63 753 b 474 -17 63 161 231 -17 b 885 457 718 -17 885 161 b 761 811 885 611 839 731 b 908 978 850 836 908 888 b 868 1089 908 1024 889 1064 z "},"Ớ":{"ha":949,"x_min":0,"x_max":0,"o":"m 699 1142 l 482 1142 l 371 975 l 533 975 z m 474 160 b 272 457 351 160 272 275 b 474 746 272 638 351 746 b 675 457 597 746 675 638 b 474 160 675 275 597 160 z m 729 1028 b 750 964 739 1011 750 989 b 668 879 750 913 721 892 b 474 922 611 907 546 922 b 63 457 231 922 63 753 b 474 -17 63 161 231 -17 b 885 457 718 -17 885 161 b 761 811 885 611 839 731 b 908 978 850 836 908 888 b 868 1089 908 1024 889 1064 z "},"Ờ":{"ha":949,"x_min":0,"x_max":0,"o":"m 578 975 l 465 1142 l 249 1142 l 415 975 z m 474 160 b 272 457 351 160 272 275 b 474 746 272 638 351 746 b 675 457 597 746 675 638 b 474 160 675 275 597 160 z m 729 1028 b 750 964 739 1011 750 989 b 668 879 750 913 721 892 b 474 922 611 907 546 922 b 63 457 231 922 63 753 b 474 -17 63 161 231 -17 b 885 457 718 -17 885 161 b 761 811 885 611 839 731 b 908 978 850 836 908 888 b 868 1089 908 1024 889 1064 z "},"Ở":{"ha":949,"x_min":0,"x_max":0,"o":"m 425 960 b 618 1104 531 968 618 1008 b 385 1231 618 1178 557 1226 l 361 1129 b 472 1082 440 1124 472 1108 b 410 1040 472 1057 444 1047 z m 474 160 b 272 457 351 160 272 275 b 474 746 272 638 351 746 b 675 457 597 746 675 638 b 474 160 675 275 597 160 z m 729 1028 b 750 964 739 1011 750 989 b 668 879 750 913 721 892 b 474 922 611 907 546 922 b 63 457 231 922 63 753 b 474 -17 63 161 231 -17 b 885 457 718 -17 885 161 b 761 811 885 611 839 731 b 908 978 850 836 908 888 b 868 1089 908 1024 889 1064 z "},"Ỡ":{"ha":949,"x_min":0,"x_max":0,"o":"m 607 1165 b 553 1103 597 1119 576 1103 b 386 1165 511 1103 461 1165 b 238 976 314 1165 253 1103 l 342 976 b 396 1039 351 1022 372 1039 b 561 976 438 1039 488 976 b 711 1165 635 976 696 1039 z m 474 160 b 272 457 351 160 272 275 b 474 746 272 638 351 746 b 675 457 597 746 675 638 b 474 160 675 275 597 160 z m 729 1028 b 750 964 739 1011 750 989 b 668 879 750 913 721 892 b 474 922 611 907 546 922 b 63 457 231 922 63 753 b 474 -17 63 161 231 -17 b 885 457 718 -17 885 161 b 761 811 885 611 839 731 b 908 978 850 836 908 888 b 868 1089 908 1024 889 1064 z "},"Ợ":{"ha":949,"x_min":0,"x_max":0,"o":"m 474 -100 b 361 -207 408 -100 361 -144 b 474 -314 361 -269 408 -314 b 588 -207 540 -314 588 -269 b 474 -100 588 -144 540 -100 z m 474 160 b 272 457 351 160 272 275 b 474 746 272 638 351 746 b 675 457 597 746 675 638 b 474 160 675 275 597 160 z m 729 1028 b 750 964 739 1011 750 989 b 668 879 750 913 721 892 b 474 922 611 907 546 922 b 63 457 231 922 63 753 b 474 -17 63 161 231 -17 b 885 457 718 -17 885 161 b 761 811 885 611 839 731 b 908 978 850 836 908 888 b 868 1089 908 1024 889 1064 z "},"Ǫ":{"ha":949,"x_min":0,"x_max":0,"o":"m 350 -179 b 510 -310 350 -262 421 -310 b 654 -261 558 -310 619 -289 l 608 -158 b 558 -178 594 -168 576 -178 b 500 -125 529 -178 500 -161 b 597 -7 500 -86 529 -37 b 885 457 776 75 885 201 b 474 922 885 751 718 922 b 63 457 231 922 63 753 b 439 -14 63 178 208 3 b 350 -179 396 -50 350 -107 z m 474 160 b 272 457 351 160 272 275 b 474 746 272 638 351 746 b 675 457 597 746 675 638 b 474 160 675 275 597 160 z "},"Ŕ":{"ha":854,"x_min":0,"x_max":0,"o":"m 654 1142 l 438 1142 l 325 975 l 489 975 z m 311 743 l 415 743 b 581 624 522 743 581 713 b 415 489 581 535 522 489 l 311 489 z m 825 0 l 621 363 b 782 624 717 406 782 490 b 432 906 782 839 624 906 l 106 906 l 106 0 l 311 0 l 311 326 l 422 326 l 596 0 z "},"Ř":{"ha":854,"x_min":0,"x_max":0,"o":"m 529 975 l 663 1142 l 506 1142 l 432 1057 l 426 1057 l 353 1142 l 196 1142 l 329 975 z m 311 743 l 415 743 b 581 624 522 743 581 713 b 415 489 581 535 522 489 l 311 489 z m 825 0 l 621 363 b 782 624 717 406 782 490 b 432 906 782 839 624 906 l 106 906 l 106 0 l 311 0 l 311 326 l 422 326 l 596 0 z "},"Ŗ":{"ha":854,"x_min":0,"x_max":0,"o":"m 365 -133 b 425 -185 406 -144 425 -158 b 310 -236 425 -217 376 -229 l 325 -318 b 572 -175 457 -311 572 -269 b 404 -58 572 -106 528 -71 z m 311 743 l 415 743 b 581 624 522 743 581 713 b 415 489 581 535 522 489 l 311 489 z m 621 363 b 782 624 717 406 782 490 b 432 906 782 839 624 906 l 106 906 l 106 0 l 311 0 l 311 326 l 422 326 l 596 0 l 825 0 z "},"Ṛ":{"ha":854,"x_min":0,"x_max":0,"o":"m 453 -100 b 340 -207 388 -100 340 -144 b 453 -314 340 -269 388 -314 b 567 -207 519 -314 567 -269 b 453 -100 567 -144 519 -100 z m 311 743 l 415 743 b 581 624 522 743 581 713 b 415 489 581 535 522 489 l 311 489 z m 621 363 b 782 624 717 406 782 490 b 432 906 782 839 624 906 l 106 906 l 106 0 l 311 0 l 311 326 l 422 326 l 596 0 l 825 0 z "},"Ṝ":{"ha":854,"x_min":0,"x_max":0,"o":"m 625 1129 l 233 1129 l 233 1000 l 625 1000 z m 453 -100 b 340 -207 388 -100 340 -144 b 453 -314 340 -269 388 -314 b 567 -207 519 -314 567 -269 b 453 -100 567 -144 519 -100 z m 311 743 l 415 743 b 581 624 522 743 581 713 b 415 489 581 535 522 489 l 311 489 z m 621 363 b 782 624 717 406 782 490 b 432 906 782 839 624 906 l 106 906 l 106 0 l 311 0 l 311 326 l 422 326 l 596 0 l 825 0 z "},"Ṟ":{"ha":854,"x_min":0,"x_max":0,"o":"m 311 743 l 415 743 b 581 624 522 743 581 713 b 415 489 581 535 522 489 l 311 489 z m 311 326 l 422 326 l 596 0 l 825 0 l 621 363 b 782 624 717 406 782 490 b 432 906 782 839 624 906 l 106 906 l 106 0 l 311 0 z m 261 -262 l 644 -262 l 644 -132 l 261 -132 z "},"Ś":{"ha":769,"x_min":0,"x_max":0,"o":"m 47 114 b 383 -17 140 28 265 -17 b 724 264 599 -17 724 114 b 544 510 724 392 654 465 l 429 557 b 290 664 350 589 290 608 b 406 746 290 715 336 746 b 594 674 478 746 535 719 l 697 803 b 406 922 619 881 510 922 b 83 653 218 922 83 803 b 267 406 83 521 172 443 l 383 356 b 514 247 463 322 514 304 b 388 160 514 193 472 160 b 165 254 313 160 229 199 z m 629 1142 l 413 1142 l 300 975 l 463 975 z "},"Ŝ":{"ha":769,"x_min":0,"x_max":0,"o":"m 47 114 b 383 -17 140 28 265 -17 b 724 264 599 -17 724 114 b 544 510 724 392 654 465 l 429 557 b 290 664 350 589 290 608 b 406 746 290 715 336 746 b 594 674 478 746 535 719 l 697 803 b 406 922 619 881 510 922 b 83 653 218 922 83 803 b 267 406 83 521 172 443 l 383 356 b 514 247 463 322 514 304 b 388 160 514 193 472 160 b 165 254 313 160 229 199 z m 326 975 l 401 1060 l 407 1060 l 481 975 l 636 975 l 503 1142 l 304 1142 l 171 975 z "},"Š":{"ha":769,"x_min":0,"x_max":0,"o":"m 47 114 b 383 -17 140 28 265 -17 b 724 264 599 -17 724 114 b 544 510 724 392 654 465 l 429 557 b 290 664 350 589 290 608 b 406 746 290 715 336 746 b 594 674 478 746 535 719 l 697 803 b 406 922 619 881 510 922 b 83 653 218 922 83 803 b 267 406 83 521 172 443 l 383 356 b 514 247 463 322 514 304 b 388 160 514 193 472 160 b 165 254 313 160 229 199 z m 481 1142 l 407 1057 l 401 1057 l 326 1142 l 171 1142 l 304 975 l 503 975 l 636 1142 z "},"Ş":{"ha":769,"x_min":0,"x_max":0,"o":"m 429 557 b 290 664 350 589 290 608 b 406 746 290 715 336 746 b 594 674 478 746 535 719 l 697 803 b 406 922 619 881 510 922 b 83 653 218 922 83 803 b 267 406 83 521 172 443 l 383 356 b 514 247 463 322 514 304 b 388 160 514 193 472 160 b 165 254 313 160 229 199 l 47 114 b 324 -12 125 42 225 -1 l 278 -106 b 358 -164 340 -121 358 -140 b 244 -225 358 -200 310 -218 l 260 -307 b 506 -162 390 -300 506 -258 b 425 -60 506 -106 471 -75 l 444 -12 b 724 264 622 10 724 129 b 544 510 724 392 654 465 z "},"Ș":{"ha":769,"x_min":0,"x_max":0,"o":"m 47 114 b 383 -17 140 28 265 -17 b 724 264 599 -17 724 114 b 544 510 724 392 654 465 l 429 557 b 290 664 350 589 290 608 b 406 746 290 715 336 746 b 594 674 478 746 535 719 l 697 803 b 406 922 619 881 510 922 b 83 653 218 922 83 803 b 267 406 83 521 172 443 l 383 356 b 514 247 463 322 514 304 b 388 160 514 193 472 160 b 165 254 313 160 229 199 z m 338 -58 l 299 -133 b 358 -185 340 -144 358 -158 b 244 -236 358 -217 310 -229 l 260 -318 b 506 -175 390 -311 506 -269 b 338 -58 506 -106 463 -71 z "},"Ṡ":{"ha":769,"x_min":0,"x_max":0,"o":"m 47 114 b 383 -17 140 28 265 -17 b 724 264 599 -17 724 114 b 544 510 724 392 654 465 l 429 557 b 290 664 350 589 290 608 b 406 746 290 715 336 746 b 594 674 478 746 535 719 l 697 803 b 406 922 619 881 510 922 b 83 653 218 922 83 803 b 267 406 83 521 172 443 l 383 356 b 514 247 463 322 514 304 b 388 160 514 193 472 160 b 165 254 313 160 229 199 z m 404 974 b 522 1081 472 974 522 1018 b 404 1188 522 1143 472 1188 b 285 1081 335 1188 285 1143 b 404 974 285 1018 335 974 z "},"Ṣ":{"ha":769,"x_min":0,"x_max":0,"o":"m 47 114 b 383 -17 140 28 265 -17 b 724 264 599 -17 724 114 b 544 510 724 392 654 465 l 429 557 b 290 664 350 589 290 608 b 406 746 290 715 336 746 b 594 674 478 746 535 719 l 697 803 b 406 922 619 881 510 922 b 83 653 218 922 83 803 b 267 406 83 521 172 443 l 383 356 b 514 247 463 322 514 304 b 388 160 514 193 472 160 b 165 254 313 160 229 199 z m 388 -314 b 500 -207 453 -314 500 -269 b 388 -100 500 -144 453 -100 b 274 -207 321 -100 274 -144 b 388 -314 274 -269 321 -314 z "},"ẞ":{"ha":978,"x_min":0,"x_max":0,"o":"m 111 0 l 315 0 l 315 540 b 494 757 315 685 376 757 b 643 675 569 757 619 718 l 492 501 l 504 382 b 714 249 657 354 714 304 b 617 149 714 189 676 149 b 490 208 576 149 535 164 l 383 83 b 642 -17 435 32 522 -17 b 924 247 825 -17 924 99 b 694 499 924 383 831 456 l 844 668 b 500 922 803 819 682 922 b 111 568 226 922 111 765 z "},"Ť":{"ha":771,"x_min":0,"x_max":0,"o":"m 283 0 l 488 0 l 488 733 l 736 733 l 736 906 l 33 906 l 33 733 l 283 733 z m 463 1142 l 388 1057 l 382 1057 l 308 1142 l 153 1142 l 286 975 l 485 975 l 618 1142 z "},"Ţ":{"ha":771,"x_min":0,"x_max":0,"o":"m 488 0 l 488 733 l 736 733 l 736 906 l 33 906 l 33 733 l 283 733 l 283 0 l 332 0 l 279 -106 b 360 -164 340 -121 360 -140 b 244 -225 360 -200 311 -218 l 260 -307 b 507 -162 392 -300 507 -258 b 425 -60 507 -106 472 -75 l 450 0 z "},"Ț":{"ha":771,"x_min":0,"x_max":0,"o":"m 283 0 l 488 0 l 488 733 l 736 733 l 736 906 l 33 906 l 33 733 l 283 733 z m 336 -58 l 297 -133 b 357 -185 339 -144 357 -158 b 243 -236 357 -217 308 -229 l 258 -318 b 504 -175 389 -311 504 -269 b 336 -58 504 -106 461 -71 z "},"Ṭ":{"ha":771,"x_min":0,"x_max":0,"o":"m 283 0 l 488 0 l 488 733 l 736 733 l 736 906 l 33 906 l 33 733 l 283 733 z m 386 -314 b 499 -207 451 -314 499 -269 b 386 -100 499 -144 451 -100 b 272 -207 319 -100 272 -144 b 386 -314 272 -269 319 -314 z "},"Ṯ":{"ha":771,"x_min":0,"x_max":0,"o":"m 283 0 l 488 0 l 488 733 l 736 733 l 736 906 l 33 906 l 33 733 l 283 733 z m 578 -132 l 193 -132 l 193 -262 l 578 -262 z "},"Ù":{"ha":921,"x_min":0,"x_max":0,"o":"m 101 419 b 463 -17 101 115 228 -17 b 821 419 697 -17 821 115 l 821 906 l 624 906 l 624 399 b 463 160 624 221 564 160 b 306 399 361 160 306 221 l 306 906 l 101 906 z m 401 975 l 564 975 l 453 1142 l 236 1142 z "},"Ú":{"ha":921,"x_min":0,"x_max":0,"o":"m 101 419 b 463 -17 101 115 228 -17 b 821 419 697 -17 821 115 l 821 906 l 624 906 l 624 399 b 463 160 624 221 564 160 b 306 399 361 160 306 221 l 306 906 l 101 906 z m 686 1142 l 469 1142 l 357 975 l 519 975 z "},"Û":{"ha":921,"x_min":0,"x_max":0,"o":"m 101 419 b 463 -17 101 115 228 -17 b 821 419 697 -17 821 115 l 821 906 l 624 906 l 624 399 b 463 160 624 221 564 160 b 306 399 361 160 306 221 l 306 906 l 101 906 z m 383 975 l 458 1060 l 464 1060 l 538 975 l 693 975 l 560 1142 l 361 1142 l 228 975 z "},"Ũ":{"ha":921,"x_min":0,"x_max":0,"o":"m 101 419 b 463 -17 101 115 228 -17 b 821 419 697 -17 821 115 l 821 906 l 624 906 l 624 399 b 463 160 624 221 564 160 b 306 399 361 160 306 221 l 306 906 l 101 906 z m 549 976 b 697 1165 621 976 683 1039 l 593 1165 b 539 1103 583 1119 563 1103 b 374 1165 497 1103 447 1165 b 224 976 300 1165 239 1103 l 328 976 b 382 1039 338 1022 358 1039 b 549 976 424 1039 474 976 z "},"Ü":{"ha":921,"x_min":0,"x_max":0,"o":"m 101 419 b 463 -17 101 115 228 -17 b 821 419 697 -17 821 115 l 821 906 l 624 906 l 624 399 b 463 160 624 221 564 160 b 306 399 361 160 306 221 l 306 906 l 101 906 z m 324 972 b 419 1069 381 972 419 1014 b 324 1167 419 1125 381 1167 b 226 1069 265 1167 226 1125 b 324 972 226 1014 265 972 z m 599 972 b 696 1069 656 972 696 1014 b 599 1167 696 1125 656 1167 b 501 1069 542 1167 501 1125 b 599 972 501 1014 542 972 z "},"Ū":{"ha":921,"x_min":0,"x_max":0,"o":"m 101 419 b 463 -17 101 115 228 -17 b 821 419 697 -17 821 115 l 821 906 l 624 906 l 624 399 b 463 160 624 221 564 160 b 306 399 361 160 306 221 l 306 906 l 101 906 z m 264 1000 l 657 1000 l 657 1129 l 264 1129 z "},"Ŭ":{"ha":921,"x_min":0,"x_max":0,"o":"m 101 419 b 463 -17 101 115 228 -17 b 821 419 697 -17 821 115 l 821 906 l 624 906 l 624 399 b 463 160 624 221 564 160 b 306 399 361 160 306 221 l 306 906 l 101 906 z m 461 975 b 650 1142 582 975 640 1043 l 539 1142 b 461 1078 531 1106 508 1078 b 382 1142 413 1078 390 1106 l 271 1142 b 461 975 282 1043 339 975 z "},"Ů":{"ha":921,"x_min":0,"x_max":0,"o":"m 101 419 b 463 -17 101 115 228 -17 b 821 419 697 -17 821 115 l 821 906 l 624 906 l 624 399 b 463 160 624 221 564 160 b 306 399 361 160 306 221 l 306 906 l 101 906 z m 461 968 b 617 1104 553 968 617 1021 b 461 1240 617 1186 553 1240 b 304 1104 368 1240 304 1186 b 461 968 304 1021 368 968 z m 461 1044 b 404 1104 429 1044 404 1067 b 461 1164 404 1140 429 1164 b 517 1104 492 1164 517 1140 b 461 1044 517 1067 492 1044 z "},"Ű":{"ha":921,"x_min":0,"x_max":0,"o":"m 101 419 b 463 -17 101 115 228 -17 b 821 419 697 -17 821 115 l 821 906 l 624 906 l 624 399 b 463 160 624 221 564 160 b 306 399 361 160 306 221 l 306 906 l 101 906 z m 407 975 l 532 1142 l 358 1142 l 271 975 z m 519 975 l 657 975 l 781 1142 l 607 1142 z "},"Ǔ":{"ha":921,"x_min":0,"x_max":0,"o":"m 101 419 b 463 -17 101 115 228 -17 b 821 419 697 -17 821 115 l 821 906 l 624 906 l 624 399 b 463 160 624 221 564 160 b 306 399 361 160 306 221 l 306 906 l 101 906 z m 538 1142 l 464 1057 l 458 1057 l 383 1142 l 228 1142 l 361 975 l 560 975 l 693 1142 z "},"Ǖ":{"ha":921,"x_min":0,"x_max":0,"o":"m 101 419 b 463 -17 101 115 228 -17 b 821 419 697 -17 821 115 l 821 906 l 624 906 l 624 399 b 463 160 624 221 564 160 b 306 399 361 160 306 221 l 306 906 l 101 906 z m 264 1211 l 657 1211 l 657 1307 l 264 1307 z m 324 972 b 408 1058 374 972 408 1010 b 324 1143 408 1106 374 1143 b 238 1058 272 1143 238 1106 b 324 972 238 1010 272 972 z m 599 972 b 683 1058 649 972 683 1010 b 599 1143 683 1106 649 1143 b 513 1058 549 1143 513 1106 b 599 972 513 1010 549 972 z "},"Ǘ":{"ha":921,"x_min":0,"x_max":0,"o":"m 101 419 b 463 -17 101 115 228 -17 b 821 419 697 -17 821 115 l 821 906 l 624 906 l 624 399 b 463 160 624 221 564 160 b 306 399 361 160 306 221 l 306 906 l 101 906 z m 357 1186 l 519 1186 l 683 1353 l 469 1353 z m 324 972 b 408 1058 374 972 408 1010 b 324 1143 408 1106 374 1143 b 238 1058 272 1143 238 1106 b 324 972 238 1010 272 972 z m 599 972 b 683 1058 649 972 683 1010 b 599 1143 683 1106 649 1143 b 513 1058 549 1143 513 1106 b 599 972 513 1010 549 972 z "},"Ǚ":{"ha":921,"x_min":0,"x_max":0,"o":"m 101 419 b 463 -17 101 115 228 -17 b 821 419 697 -17 821 115 l 821 906 l 624 906 l 624 399 b 463 160 624 221 564 160 b 306 399 361 160 306 221 l 306 906 l 101 906 z m 324 972 b 408 1058 374 972 408 1010 b 324 1143 408 1106 374 1143 b 238 1058 272 1143 238 1106 b 324 972 238 1010 272 972 z m 599 972 b 683 1058 649 972 683 1010 b 599 1143 683 1106 649 1143 b 513 1058 549 1143 513 1106 b 599 972 513 1010 549 972 z m 538 1353 l 464 1269 l 458 1269 l 383 1353 l 228 1353 l 361 1186 l 560 1186 l 693 1353 z "},"Ǜ":{"ha":921,"x_min":0,"x_max":0,"o":"m 101 419 b 463 -17 101 115 228 -17 b 821 419 697 -17 821 115 l 821 906 l 624 906 l 624 399 b 463 160 624 221 564 160 b 306 399 361 160 306 221 l 306 906 l 101 906 z m 451 1353 l 239 1353 l 401 1186 l 564 1186 z m 599 972 b 683 1058 649 972 683 1010 b 599 1143 683 1106 649 1143 b 513 1058 549 1143 513 1106 b 599 972 513 1010 549 972 z m 324 972 b 408 1058 374 972 408 1010 b 324 1143 408 1106 374 1143 b 238 1058 272 1143 238 1106 b 324 972 238 1010 272 972 z "},"Ụ":{"ha":921,"x_min":0,"x_max":0,"o":"m 101 419 b 463 -17 101 115 228 -17 b 821 419 697 -17 821 115 l 821 906 l 624 906 l 624 399 b 463 160 624 221 564 160 b 306 399 361 160 306 221 l 306 906 l 101 906 z m 461 -314 b 574 -207 526 -314 574 -269 b 461 -100 574 -144 526 -100 b 347 -207 394 -100 347 -144 b 461 -314 347 -269 394 -314 z "},"Ủ":{"ha":921,"x_min":0,"x_max":0,"o":"m 101 419 b 463 -17 101 115 228 -17 b 821 419 697 -17 821 115 l 821 906 l 624 906 l 624 399 b 463 160 624 221 564 160 b 306 399 361 160 306 221 l 306 906 l 101 906 z m 411 960 b 606 1104 517 968 606 1008 b 371 1231 606 1178 543 1226 l 347 1129 b 458 1082 428 1124 458 1108 b 396 1040 458 1057 431 1047 z "},"Ų":{"ha":921,"x_min":0,"x_max":0,"o":"m 101 419 b 425 -14 101 135 214 -1 b 336 -179 401 -36 336 -93 b 494 -310 336 -262 407 -310 b 640 -261 543 -310 604 -289 l 593 -158 b 543 -178 579 -168 561 -178 b 485 -125 514 -178 485 -161 b 583 -7 485 -87 515 -39 b 821 419 749 68 821 163 l 821 906 l 624 906 l 624 399 b 463 160 624 221 564 160 b 306 399 361 160 306 221 l 306 906 l 101 906 z "},"Ư":{"ha":946,"x_min":0,"x_max":0,"o":"m 813 1056 b 835 992 824 1039 835 1017 b 721 906 835 919 775 908 l 624 906 l 624 399 b 463 160 624 221 564 160 b 306 399 361 160 306 221 l 306 906 l 101 906 l 101 419 b 463 -17 101 115 228 -17 b 821 419 697 -17 821 115 l 821 831 b 993 1006 917 849 993 901 b 951 1117 993 1051 974 1092 z "},"Ứ":{"ha":946,"x_min":0,"x_max":0,"o":"m 685 1142 l 468 1142 l 357 975 l 519 975 z m 813 1056 b 835 992 824 1039 835 1017 b 721 906 835 919 775 908 l 624 906 l 624 399 b 463 160 624 221 564 160 b 306 399 361 160 306 221 l 306 906 l 101 906 l 101 419 b 463 -17 101 115 228 -17 b 821 419 697 -17 821 115 l 821 831 b 993 1006 917 849 993 901 b 951 1117 993 1051 974 1092 z "},"Ừ":{"ha":946,"x_min":0,"x_max":0,"o":"m 564 975 l 451 1142 l 235 1142 l 401 975 z m 813 1056 b 835 992 824 1039 835 1017 b 721 906 835 919 775 908 l 624 906 l 624 399 b 463 160 624 221 564 160 b 306 399 361 160 306 221 l 306 906 l 101 906 l 101 419 b 463 -17 101 115 228 -17 b 821 419 697 -17 821 115 l 821 831 b 993 1006 917 849 993 901 b 951 1117 993 1051 974 1092 z "},"Ử":{"ha":946,"x_min":0,"x_max":0,"o":"m 411 960 b 604 1104 517 968 604 1008 b 371 1231 604 1178 543 1226 l 347 1129 b 458 1082 426 1124 458 1108 b 396 1040 458 1057 431 1047 z m 813 1056 b 835 992 824 1039 835 1017 b 721 906 835 919 775 908 l 624 906 l 624 399 b 463 160 624 221 564 160 b 306 399 361 160 306 221 l 306 906 l 101 906 l 101 419 b 463 -17 101 115 228 -17 b 821 419 697 -17 821 115 l 821 831 b 993 1006 917 849 993 901 b 951 1117 993 1051 974 1092 z "},"Ữ":{"ha":946,"x_min":0,"x_max":0,"o":"m 593 1165 b 539 1103 583 1119 563 1103 b 372 1165 497 1103 447 1165 b 224 976 300 1165 239 1103 l 328 976 b 382 1039 338 1022 358 1039 b 547 976 424 1039 474 976 b 697 1165 621 976 682 1039 z m 813 1056 b 835 992 824 1039 835 1017 b 721 906 835 919 775 908 l 624 906 l 624 399 b 463 160 624 221 564 160 b 306 399 361 160 306 221 l 306 906 l 101 906 l 101 419 b 463 -17 101 115 228 -17 b 821 419 697 -17 821 115 l 821 831 b 993 1006 917 849 993 901 b 951 1117 993 1051 974 1092 z "},"Ự":{"ha":946,"x_min":0,"x_max":0,"o":"m 460 -100 b 347 -207 394 -100 347 -144 b 460 -314 347 -269 394 -314 b 574 -207 526 -314 574 -269 b 460 -100 574 -144 526 -100 z m 813 1056 b 835 992 824 1039 835 1017 b 721 906 835 919 775 908 l 624 906 l 624 399 b 463 160 624 221 564 160 b 306 399 361 160 306 221 l 306 906 l 101 906 l 101 419 b 463 -17 101 115 228 -17 b 821 419 697 -17 821 115 l 821 831 b 993 1006 917 849 993 901 b 951 1117 993 1051 974 1092 z "},"Ẁ":{"ha":1128,"x_min":0,"x_max":0,"o":"m 186 0 l 439 0 l 525 411 b 561 621 539 481 550 554 l 567 621 b 603 411 576 554 589 481 l 692 0 l 949 0 l 1110 906 l 914 906 l 851 482 b 815 196 839 389 826 293 l 810 196 b 756 482 792 293 774 390 l 657 906 l 483 906 l 386 482 b 333 196 368 388 350 292 l 328 196 b 290 482 315 292 303 388 l 228 906 l 18 906 z m 506 975 l 668 975 l 556 1142 l 339 1142 z "},"Ẃ":{"ha":1128,"x_min":0,"x_max":0,"o":"m 186 0 l 439 0 l 525 411 b 561 621 539 481 550 554 l 567 621 b 603 411 576 554 589 481 l 692 0 l 949 0 l 1110 906 l 914 906 l 851 482 b 815 196 839 389 826 293 l 810 196 b 756 482 792 293 774 390 l 657 906 l 483 906 l 386 482 b 333 196 368 388 350 292 l 328 196 b 290 482 315 292 303 388 l 228 906 l 18 906 z m 789 1142 l 572 1142 l 460 975 l 624 975 z "},"Ŵ":{"ha":1128,"x_min":0,"x_max":0,"o":"m 186 0 l 439 0 l 525 411 b 561 621 539 481 550 554 l 567 621 b 603 411 576 554 589 481 l 692 0 l 949 0 l 1110 906 l 914 906 l 851 482 b 815 196 839 389 826 293 l 810 196 b 756 482 792 293 774 390 l 657 906 l 483 906 l 386 482 b 333 196 368 388 350 292 l 328 196 b 290 482 315 292 303 388 l 228 906 l 18 906 z m 488 975 l 561 1060 l 567 1060 l 640 975 l 797 975 l 664 1142 l 464 1142 l 331 975 z "},"Ẅ":{"ha":1128,"x_min":0,"x_max":0,"o":"m 186 0 l 439 0 l 525 411 b 561 621 539 481 550 554 l 567 621 b 603 411 576 554 589 481 l 692 0 l 949 0 l 1110 906 l 914 906 l 851 482 b 815 196 839 389 826 293 l 810 196 b 756 482 792 293 774 390 l 657 906 l 483 906 l 386 482 b 333 196 368 388 350 292 l 328 196 b 290 482 315 292 303 388 l 228 906 l 18 906 z m 426 972 b 524 1069 483 972 524 1014 b 426 1167 524 1125 483 1167 b 329 1069 369 1167 329 1125 b 426 972 329 1014 369 972 z m 701 972 b 799 1069 758 972 799 1014 b 701 1167 799 1125 758 1167 b 604 1069 644 1167 604 1125 b 701 972 604 1014 644 972 z "},"Ỳ":{"ha":728,"x_min":0,"x_max":0,"o":"m 261 0 l 465 0 l 465 322 l 739 906 l 525 906 l 444 697 b 368 497 419 629 393 567 l 363 497 b 289 697 336 567 313 629 l 207 906 l -11 906 l 261 322 z m 304 975 l 468 975 l 356 1142 l 139 1142 z "},"Ý":{"ha":728,"x_min":0,"x_max":0,"o":"m 261 0 l 465 0 l 465 322 l 739 906 l 525 906 l 444 697 b 368 497 419 629 393 567 l 363 497 b 289 697 336 567 313 629 l 207 906 l -11 906 l 261 322 z m 589 1142 l 372 1142 l 260 975 l 422 975 z "},"Ŷ":{"ha":728,"x_min":0,"x_max":0,"o":"m 261 0 l 465 0 l 465 322 l 739 906 l 525 906 l 444 697 b 368 497 419 629 393 567 l 363 497 b 289 697 336 567 313 629 l 207 906 l -11 906 l 261 322 z m 288 975 l 361 1060 l 367 1060 l 440 975 l 596 975 l 463 1142 l 264 1142 l 131 975 z "},"Ÿ":{"ha":728,"x_min":0,"x_max":0,"o":"m 261 0 l 465 0 l 465 322 l 739 906 l 525 906 l 444 697 b 368 497 419 629 393 567 l 363 497 b 289 697 336 567 313 629 l 207 906 l -11 906 l 261 322 z m 226 972 b 324 1069 283 972 324 1014 b 226 1167 324 1125 283 1167 b 129 1069 169 1167 129 1125 b 226 972 129 1014 169 972 z m 501 972 b 599 1069 558 972 599 1014 b 501 1167 599 1125 558 1167 b 404 1069 444 1167 404 1125 b 501 972 404 1014 444 972 z "},"Ẏ":{"ha":728,"x_min":0,"x_max":0,"o":"m 261 0 l 465 0 l 465 322 l 739 906 l 525 906 l 444 697 b 368 497 419 629 393 567 l 363 497 b 289 697 336 567 313 629 l 207 906 l -11 906 l 261 322 z m 364 974 b 482 1081 432 974 482 1018 b 364 1188 482 1143 432 1188 b 246 1081 294 1188 246 1143 b 364 974 246 1018 294 974 z "},"Ỵ":{"ha":728,"x_min":0,"x_max":0,"o":"m 261 0 l 465 0 l 465 322 l 739 906 l 525 906 l 444 697 b 368 497 419 629 393 567 l 363 497 b 289 697 336 567 313 629 l 207 906 l -11 906 l 261 322 z m 367 -314 b 479 -207 432 -314 479 -269 b 367 -100 479 -144 432 -100 b 253 -207 300 -100 253 -144 b 367 -314 253 -269 300 -314 z "},"Ỷ":{"ha":728,"x_min":0,"x_max":0,"o":"m 261 0 l 465 0 l 465 322 l 739 906 l 525 906 l 444 697 b 368 497 419 629 393 567 l 363 497 b 289 697 336 567 313 629 l 207 906 l -11 906 l 261 322 z m 315 960 b 508 1104 419 968 508 1008 b 274 1231 508 1178 446 1226 l 250 1129 b 361 1082 331 1124 361 1108 b 299 1040 361 1057 333 1047 z "},"Ỹ":{"ha":728,"x_min":0,"x_max":0,"o":"m 261 0 l 465 0 l 465 322 l 739 906 l 525 906 l 444 697 b 368 497 419 629 393 567 l 363 497 b 289 697 336 567 313 629 l 207 906 l -11 906 l 261 322 z m 451 976 b 600 1165 524 976 586 1039 l 496 1165 b 442 1103 486 1119 467 1103 b 276 1165 400 1103 350 1165 b 128 976 204 1165 142 1103 l 231 976 b 285 1039 242 1022 261 1039 b 451 976 328 1039 376 976 z "},"Ź":{"ha":750,"x_min":0,"x_max":0,"o":"m 49 0 l 704 0 l 704 172 l 301 172 l 701 782 l 701 906 l 86 906 l 86 733 l 449 733 l 49 124 z m 617 1142 l 400 1142 l 289 975 l 451 975 z "},"Ž":{"ha":750,"x_min":0,"x_max":0,"o":"m 49 0 l 704 0 l 704 172 l 301 172 l 701 782 l 701 906 l 86 906 l 86 733 l 449 733 l 49 124 z m 469 1142 l 394 1057 l 389 1057 l 315 1142 l 160 1142 l 293 975 l 492 975 l 625 1142 z "},"Ż":{"ha":750,"x_min":0,"x_max":0,"o":"m 49 0 l 704 0 l 704 172 l 301 172 l 701 782 l 701 906 l 86 906 l 86 733 l 449 733 l 49 124 z m 392 974 b 511 1081 461 974 511 1018 b 392 1188 511 1143 461 1188 b 274 1081 324 1188 274 1143 b 392 974 274 1018 324 974 z "},"Ẓ":{"ha":750,"x_min":0,"x_max":0,"o":"m 49 0 l 704 0 l 704 172 l 301 172 l 701 782 l 701 906 l 86 906 l 86 733 l 449 733 l 49 124 z m 390 -314 b 504 -207 457 -314 504 -269 b 390 -100 504 -144 457 -100 b 278 -207 324 -100 278 -144 b 390 -314 278 -269 324 -314 z "},"Ð":{"ha":914,"x_min":0,"x_max":0,"o":"m 344 165 l 344 418 l 519 418 l 519 517 l 344 517 l 344 740 l 383 740 b 640 457 536 740 640 674 b 383 165 640 240 536 165 z m 139 906 l 139 517 l 36 510 l 36 418 l 139 418 l 139 0 l 407 0 b 850 457 672 0 850 146 b 396 906 850 768 672 906 z "},"Þ":{"ha":861,"x_min":0,"x_max":0,"o":"m 111 0 l 315 0 l 315 171 l 440 171 b 796 478 633 171 796 264 b 440 768 796 697 638 768 l 315 768 l 315 906 l 111 906 z m 315 333 l 315 606 l 429 606 b 594 478 536 606 594 572 b 429 333 594 383 542 333 z "},"Ə":{"ha":971,"x_min":0,"x_max":0,"o":"m 693 367 b 496 157 671 229 594 157 b 307 367 394 157 319 229 z m 279 669 b 476 749 328 711 392 749 b 697 517 606 749 682 669 l 101 517 b 97 449 100 493 97 469 b 496 -17 97 156 258 -17 b 903 454 733 -17 903 158 b 501 922 903 750 736 922 b 190 810 361 922 261 875 z "},"à":{"ha":742,"x_min":0,"x_max":0,"o":"m 65 192 b 269 -17 65 75 144 -17 b 471 71 347 -17 413 19 l 475 71 l 490 0 l 657 0 l 657 394 b 383 706 657 606 560 706 b 89 615 275 706 176 668 l 161 481 b 344 543 228 519 286 543 b 453 443 418 543 449 504 b 65 192 181 415 65 336 z m 260 207 b 453 321 260 260 307 301 l 453 200 b 339 142 417 164 386 142 b 260 207 290 142 260 163 z m 354 797 l 503 797 l 381 1006 l 182 1006 z "},"á":{"ha":742,"x_min":0,"x_max":0,"o":"m 65 192 b 269 -17 65 75 144 -17 b 471 71 347 -17 413 19 l 475 71 l 490 0 l 657 0 l 657 394 b 383 706 657 606 560 706 b 89 615 275 706 176 668 l 161 481 b 344 543 228 519 286 543 b 453 443 418 543 449 504 b 65 192 181 415 65 336 z m 260 207 b 453 321 260 260 307 301 l 453 200 b 339 142 417 164 386 142 b 260 207 290 142 260 163 z m 597 1006 l 400 1006 l 276 797 l 425 797 z "},"â":{"ha":742,"x_min":0,"x_max":0,"o":"m 65 192 b 269 -17 65 75 144 -17 b 471 71 347 -17 413 19 l 475 71 l 490 0 l 657 0 l 657 394 b 383 706 657 606 560 706 b 89 615 275 706 176 668 l 161 481 b 344 543 228 519 286 543 b 453 443 418 543 449 504 b 65 192 181 415 65 336 z m 260 207 b 453 321 260 260 307 301 l 453 200 b 339 142 417 164 386 142 b 260 207 290 142 260 163 z m 175 797 l 313 797 l 388 907 l 393 907 l 467 797 l 604 797 l 471 1006 l 308 1006 z "},"ã":{"ha":742,"x_min":0,"x_max":0,"o":"m 65 192 b 269 -17 65 75 144 -17 b 471 71 347 -17 413 19 l 475 71 l 490 0 l 657 0 l 657 394 b 383 706 657 606 560 706 b 89 615 275 706 176 668 l 161 481 b 344 543 228 519 286 543 b 453 443 418 543 449 504 b 65 192 181 415 65 336 z m 260 207 b 453 321 260 260 307 301 l 453 200 b 339 142 417 164 386 142 b 260 207 290 142 260 163 z m 160 799 l 264 799 b 313 861 274 844 289 861 b 476 799 353 861 403 799 b 619 986 550 799 606 861 l 515 986 b 468 925 506 942 492 925 b 303 986 426 925 376 986 b 160 799 231 986 174 925 z "},"ä":{"ha":742,"x_min":0,"x_max":0,"o":"m 65 192 b 269 -17 65 75 144 -17 b 471 71 347 -17 413 19 l 475 71 l 490 0 l 657 0 l 657 394 b 383 706 657 606 560 706 b 89 615 275 706 176 668 l 161 481 b 344 543 228 519 286 543 b 453 443 418 543 449 504 b 65 192 181 415 65 336 z m 260 207 b 453 321 260 260 307 301 l 453 200 b 339 142 417 164 386 142 b 260 207 290 142 260 163 z m 253 793 b 349 890 310 793 349 835 b 253 986 349 944 310 986 b 156 890 194 986 156 944 b 253 793 156 835 194 793 z m 528 793 b 625 890 585 793 625 835 b 528 986 625 944 585 986 b 431 890 471 986 431 944 b 528 793 431 835 471 793 z "},"ā":{"ha":742,"x_min":0,"x_max":0,"o":"m 65 192 b 269 -17 65 75 144 -17 b 471 71 347 -17 413 19 l 475 71 l 490 0 l 657 0 l 657 394 b 383 706 657 606 560 706 b 89 615 275 706 176 668 l 161 481 b 344 543 228 519 286 543 b 453 443 418 543 449 504 b 65 192 181 415 65 336 z m 260 207 b 453 321 260 260 307 301 l 453 200 b 339 142 417 164 386 142 b 260 207 290 142 260 163 z m 199 822 l 582 822 l 582 951 l 199 951 z "},"ă":{"ha":742,"x_min":0,"x_max":0,"o":"m 65 192 b 269 -17 65 75 144 -17 b 471 71 347 -17 413 19 l 475 71 l 490 0 l 657 0 l 657 394 b 383 706 657 606 560 706 b 89 615 275 706 176 668 l 161 481 b 344 543 228 519 286 543 b 453 443 418 543 449 504 b 65 192 181 415 65 336 z m 260 207 b 453 321 260 260 307 301 l 453 200 b 339 142 417 164 386 142 b 260 207 290 142 260 163 z m 390 797 b 583 990 519 797 579 890 l 469 990 b 390 910 463 946 439 910 b 311 990 340 910 317 946 l 197 990 b 390 797 200 890 260 797 z "},"å":{"ha":742,"x_min":0,"x_max":0,"o":"m 65 192 b 269 -17 65 75 144 -17 b 471 71 347 -17 413 19 l 475 71 l 490 0 l 657 0 l 657 394 b 383 706 657 606 560 706 b 89 615 275 706 176 668 l 161 481 b 344 543 228 519 286 543 b 453 443 418 543 449 504 b 65 192 181 415 65 336 z m 260 207 b 453 321 260 260 307 301 l 453 200 b 339 142 417 164 386 142 b 260 207 290 142 260 163 z m 390 761 b 546 903 483 761 546 817 b 390 1044 546 989 483 1044 b 233 903 297 1044 233 989 b 390 761 233 817 297 761 z m 390 838 b 333 903 358 838 333 864 b 390 968 333 942 358 968 b 446 903 421 968 446 942 b 390 838 446 864 421 838 z "},"ǎ":{"ha":742,"x_min":0,"x_max":0,"o":"m 65 192 b 269 -17 65 75 144 -17 b 471 71 347 -17 413 19 l 475 71 l 490 0 l 657 0 l 657 394 b 383 706 657 606 560 706 b 89 615 275 706 176 668 l 161 481 b 344 543 228 519 286 543 b 453 443 418 543 449 504 b 65 192 181 415 65 336 z m 260 207 b 453 321 260 260 307 301 l 453 200 b 339 142 417 164 386 142 b 260 207 290 142 260 163 z m 308 797 l 471 797 l 604 1006 l 467 1006 l 393 896 l 388 896 l 313 1006 l 175 1006 z "},"ạ":{"ha":742,"x_min":0,"x_max":0,"o":"m 65 192 b 269 -17 65 75 144 -17 b 471 71 347 -17 413 19 l 475 71 l 490 0 l 657 0 l 657 394 b 383 706 657 606 560 706 b 89 615 275 706 176 668 l 161 481 b 344 543 228 519 286 543 b 453 443 418 543 449 504 b 65 192 181 415 65 336 z m 260 207 b 453 321 260 260 307 301 l 453 200 b 339 142 417 164 386 142 b 260 207 290 142 260 163 z m 367 -314 b 479 -207 432 -314 479 -269 b 367 -100 479 -144 432 -100 b 253 -207 300 -100 253 -144 b 367 -314 253 -269 300 -314 z "},"ả":{"ha":742,"x_min":0,"x_max":0,"o":"m 65 192 b 269 -17 65 75 144 -17 b 471 71 347 -17 413 19 l 475 71 l 490 0 l 657 0 l 657 394 b 383 706 657 606 560 706 b 89 615 275 706 176 668 l 161 481 b 344 543 228 519 286 543 b 453 443 418 543 449 504 b 65 192 181 415 65 336 z m 260 207 b 453 321 260 260 307 301 l 453 200 b 339 142 417 164 386 142 b 260 207 290 142 260 163 z m 340 774 b 535 917 446 781 535 822 b 300 1044 535 992 472 1039 l 276 942 b 388 896 357 938 388 922 b 325 854 388 869 360 860 z "},"ấ":{"ha":742,"x_min":0,"x_max":0,"o":"m 65 192 b 269 -17 65 75 144 -17 b 471 71 347 -17 413 19 l 475 71 l 490 0 l 657 0 l 657 394 b 383 706 657 606 560 706 b 89 615 275 706 176 668 l 161 481 b 344 543 228 519 286 543 b 453 443 418 543 449 504 b 65 192 181 415 65 336 z m 260 207 b 453 321 260 260 307 301 l 453 200 b 339 142 417 164 386 142 b 260 207 290 142 260 163 z m 196 797 l 322 797 l 388 888 l 393 888 l 457 797 l 583 797 l 471 975 l 308 975 z m 539 897 l 653 897 l 785 1061 l 633 1061 z "},"ầ":{"ha":742,"x_min":0,"x_max":0,"o":"m 65 192 b 269 -17 65 75 144 -17 b 471 71 347 -17 413 19 l 475 71 l 490 0 l 657 0 l 657 394 b 383 706 657 606 560 706 b 89 615 275 706 176 668 l 161 481 b 344 543 228 519 286 543 b 453 443 418 543 449 504 b 65 192 181 415 65 336 z m 260 207 b 453 321 260 260 307 301 l 453 200 b 339 142 417 164 386 142 b 260 207 290 142 260 163 z m 196 797 l 322 797 l 388 888 l 393 888 l 457 797 l 583 797 l 471 975 l 308 975 z m 642 1061 l 490 1061 l 622 897 l 736 897 z "},"ẩ":{"ha":742,"x_min":0,"x_max":0,"o":"m 65 192 b 269 -17 65 75 144 -17 b 471 71 347 -17 413 19 l 475 71 l 490 0 l 657 0 l 657 394 b 383 706 657 606 560 706 b 89 615 275 706 176 668 l 161 481 b 344 543 228 519 286 543 b 453 443 418 543 449 504 b 65 192 181 415 65 336 z m 260 207 b 453 321 260 260 307 301 l 453 200 b 339 142 417 164 386 142 b 260 207 290 142 260 163 z m 196 797 l 322 797 l 388 888 l 393 888 l 457 797 l 583 797 l 471 975 l 308 975 z m 581 872 b 743 1003 669 885 743 911 b 538 1113 743 1067 690 1108 l 519 1026 b 610 981 589 1022 610 1007 b 568 942 610 957 593 947 z "},"ẫ":{"ha":742,"x_min":0,"x_max":0,"o":"m 65 192 b 269 -17 65 75 144 -17 b 471 71 347 -17 413 19 l 475 71 l 490 0 l 657 0 l 657 394 b 383 706 657 606 560 706 b 89 615 275 706 176 668 l 161 481 b 344 543 228 519 286 543 b 453 443 418 543 449 504 b 65 192 181 415 65 336 z m 260 207 b 453 321 260 260 307 301 l 453 200 b 339 142 417 164 386 142 b 260 207 290 142 260 163 z m 185 796 l 318 796 l 388 878 l 393 878 l 461 796 l 594 796 l 482 950 l 297 950 z m 275 1000 b 325 1053 283 1038 300 1053 b 467 1000 363 1053 393 1000 b 593 1158 528 1000 581 1050 l 504 1158 b 456 1106 496 1121 479 1106 b 314 1158 417 1106 388 1158 b 188 1000 251 1158 199 1110 z "},"ậ":{"ha":742,"x_min":0,"x_max":0,"o":"m 65 192 b 269 -17 65 75 144 -17 b 471 71 347 -17 413 19 l 475 71 l 490 0 l 657 0 l 657 394 b 383 706 657 606 560 706 b 89 615 275 706 176 668 l 161 481 b 344 543 228 519 286 543 b 453 443 418 543 449 504 b 65 192 181 415 65 336 z m 260 207 b 453 321 260 260 307 301 l 453 200 b 339 142 417 164 386 142 b 260 207 290 142 260 163 z m 175 797 l 313 797 l 388 907 l 393 907 l 467 797 l 604 797 l 471 1006 l 308 1006 z m 367 -314 b 479 -207 432 -314 479 -269 b 367 -100 479 -144 432 -100 b 253 -207 300 -100 253 -144 b 367 -314 253 -269 300 -314 z "},"ắ":{"ha":742,"x_min":0,"x_max":0,"o":"m 65 192 b 269 -17 65 75 144 -17 b 471 71 347 -17 413 19 l 475 71 l 490 0 l 657 0 l 657 394 b 383 706 657 606 560 706 b 89 615 275 706 176 668 l 161 481 b 344 543 228 519 286 543 b 453 443 418 543 449 504 b 65 192 181 415 65 336 z m 260 207 b 453 321 260 260 307 301 l 453 200 b 339 142 417 164 386 142 b 260 207 290 142 260 163 z m 325 961 l 428 961 l 553 1125 l 406 1125 z m 390 797 b 583 990 519 797 579 890 l 492 990 b 390 897 483 939 453 897 b 288 990 326 897 296 939 l 197 990 b 390 797 200 890 260 797 z "},"ằ":{"ha":742,"x_min":0,"x_max":0,"o":"m 65 192 b 269 -17 65 75 144 -17 b 471 71 347 -17 413 19 l 475 71 l 490 0 l 657 0 l 657 394 b 383 706 657 606 560 706 b 89 615 275 706 176 668 l 161 481 b 344 543 228 519 286 543 b 453 443 418 543 449 504 b 65 192 181 415 65 336 z m 260 207 b 453 321 260 260 307 301 l 453 200 b 339 142 417 164 386 142 b 260 207 290 142 260 163 z m 374 1125 l 228 1125 l 351 961 l 454 961 z m 390 797 b 583 990 519 797 579 890 l 492 990 b 390 897 483 939 453 897 b 288 990 326 897 296 939 l 197 990 b 390 797 200 890 260 797 z "},"ẳ":{"ha":742,"x_min":0,"x_max":0,"o":"m 65 192 b 269 -17 65 75 144 -17 b 471 71 347 -17 413 19 l 475 71 l 490 0 l 657 0 l 657 394 b 383 706 657 606 560 706 b 89 615 275 706 176 668 l 161 481 b 344 543 228 519 286 543 b 453 443 418 543 449 504 b 65 192 181 415 65 336 z m 260 207 b 453 321 260 260 307 301 l 453 200 b 339 142 417 164 386 142 b 260 207 290 142 260 163 z m 390 797 b 583 990 519 797 579 890 l 492 990 b 390 897 483 939 453 897 b 288 990 326 897 296 939 l 197 990 b 390 797 200 890 260 797 z m 342 969 b 504 1099 429 981 504 1008 b 299 1210 504 1164 451 1204 l 279 1124 b 371 1078 350 1118 371 1104 b 328 1039 371 1053 354 1044 z "},"ẵ":{"ha":742,"x_min":0,"x_max":0,"o":"m 65 192 b 269 -17 65 75 144 -17 b 471 71 347 -17 413 19 l 475 71 l 490 0 l 657 0 l 657 394 b 383 706 657 606 560 706 b 89 615 275 706 176 668 l 161 481 b 344 543 228 519 286 543 b 453 443 418 543 449 504 b 65 192 181 415 65 336 z m 260 207 b 453 321 260 260 307 301 l 453 200 b 339 142 417 164 386 142 b 260 207 290 142 260 163 z m 390 797 b 582 963 519 797 579 875 l 486 963 b 390 893 478 926 453 893 b 293 963 328 893 301 926 l 197 963 b 390 797 201 875 260 797 z m 188 1000 l 275 1000 b 325 1053 283 1038 300 1053 b 467 1000 363 1053 393 1000 b 593 1158 528 1000 581 1050 l 504 1158 b 456 1106 496 1121 479 1106 b 314 1158 417 1106 388 1158 b 188 1000 251 1158 199 1110 z "},"ặ":{"ha":742,"x_min":0,"x_max":0,"o":"m 65 192 b 269 -17 65 75 144 -17 b 471 71 347 -17 413 19 l 475 71 l 490 0 l 657 0 l 657 394 b 383 706 657 606 560 706 b 89 615 275 706 176 668 l 161 481 b 344 543 228 519 286 543 b 453 443 418 543 449 504 b 65 192 181 415 65 336 z m 260 207 b 453 321 260 260 307 301 l 453 200 b 339 142 417 164 386 142 b 260 207 290 142 260 163 z m 390 797 b 583 990 519 797 579 890 l 469 990 b 390 910 463 946 439 910 b 311 990 340 910 317 946 l 197 990 b 390 797 200 890 260 797 z m 367 -314 b 479 -207 432 -314 479 -269 b 367 -100 479 -144 432 -100 b 253 -207 300 -100 253 -144 b 367 -314 253 -269 300 -314 z "},"ą":{"ha":742,"x_min":0,"x_max":0,"o":"m 260 207 b 453 321 260 260 307 301 l 453 200 b 339 142 417 164 386 142 b 260 207 290 142 260 163 z m 65 190 b 269 -17 65 75 144 -17 b 471 71 347 -17 413 19 l 475 71 l 493 -3 b 397 -165 457 -26 397 -83 b 544 -292 397 -249 463 -292 b 685 -246 589 -292 650 -274 l 643 -154 b 593 -171 631 -162 611 -171 b 535 -118 564 -171 535 -156 b 657 0 535 -76 567 -25 l 657 394 b 383 706 657 606 560 706 b 89 615 275 706 176 668 l 161 481 b 344 543 228 519 286 543 b 453 443 418 543 449 504 b 65 190 181 415 65 336 z "},"æ":{"ha":1092,"x_min":0,"x_max":0,"o":"m 260 207 b 447 321 260 261 313 301 l 449 292 b 468 200 451 261 458 228 b 339 142 431 164 386 142 b 260 207 290 142 260 163 z m 161 481 b 342 543 228 519 286 543 b 449 444 418 543 444 504 b 65 190 178 417 65 336 b 269 -17 65 75 144 -17 b 535 90 361 -17 438 13 b 772 -17 593 26 669 -17 b 1015 61 853 -17 944 13 l 946 193 b 800 143 896 164 851 143 b 635 285 717 143 650 189 l 1032 285 b 1040 371 1036 301 1040 333 b 767 706 1040 558 949 706 b 563 601 685 706 621 668 b 371 706 522 667 456 706 b 89 615 271 706 176 668 z m 635 410 b 760 550 646 506 696 550 b 867 410 835 550 867 493 z "},"ç":{"ha":649,"x_min":0,"x_max":0,"o":"m 451 -11 b 619 69 510 0 571 26 l 538 199 b 414 149 504 172 464 149 b 260 344 325 149 260 225 b 421 540 260 464 322 540 b 517 500 453 540 483 528 l 610 626 b 408 706 564 674 493 706 b 50 344 218 706 50 574 b 331 -12 50 140 168 13 l 283 -106 b 364 -164 346 -121 364 -140 b 250 -225 364 -200 317 -218 l 265 -307 b 511 -162 396 -300 511 -258 b 431 -60 511 -106 476 -75 z "},"ć":{"ha":649,"x_min":0,"x_max":0,"o":"m 50 344 b 390 -17 50 115 199 -17 b 619 69 465 -17 553 11 l 538 199 b 414 149 504 172 464 149 b 260 344 325 149 260 225 b 421 540 260 464 322 540 b 517 500 453 540 483 528 l 610 626 b 408 706 564 674 493 706 b 50 344 218 706 50 574 z m 611 1006 l 413 1006 l 290 797 l 439 797 z "},"ĉ":{"ha":649,"x_min":0,"x_max":0,"o":"m 50 344 b 390 -17 50 115 199 -17 b 619 69 465 -17 553 11 l 538 199 b 414 149 504 172 464 149 b 260 344 325 149 260 225 b 421 540 260 464 322 540 b 517 500 453 540 483 528 l 610 626 b 408 706 564 674 493 706 b 50 344 218 706 50 574 z m 189 797 l 326 797 l 400 907 l 406 907 l 481 797 l 618 797 l 485 1006 l 322 1006 z "},"č":{"ha":649,"x_min":0,"x_max":0,"o":"m 50 344 b 390 -17 50 115 199 -17 b 619 69 465 -17 553 11 l 538 199 b 414 149 504 172 464 149 b 260 344 325 149 260 225 b 421 540 260 464 322 540 b 517 500 453 540 483 528 l 610 626 b 408 706 564 674 493 706 b 50 344 218 706 50 574 z m 322 797 l 485 797 l 618 1006 l 481 1006 l 406 896 l 400 896 l 326 1006 l 189 1006 z "},"ċ":{"ha":649,"x_min":0,"x_max":0,"o":"m 50 344 b 390 -17 50 115 199 -17 b 619 69 465 -17 553 11 l 538 199 b 414 149 504 172 464 149 b 260 344 325 149 260 225 b 421 540 260 464 322 540 b 517 500 453 540 483 528 l 610 626 b 408 706 564 674 493 706 b 50 344 218 706 50 574 z m 403 790 b 517 897 469 790 517 835 b 403 1004 517 960 469 1004 b 290 897 338 1004 290 960 b 403 790 290 835 338 790 z "},"ď":{"ha":853,"x_min":0,"x_max":0,"o":"m 54 344 b 336 -17 54 119 165 -17 b 519 68 403 -17 471 19 l 525 68 l 539 0 l 706 0 l 706 974 l 501 974 l 501 739 l 510 633 b 340 706 463 678 417 706 b 54 344 194 706 54 569 z m 264 347 b 388 539 264 478 322 539 b 501 494 425 539 465 528 l 501 213 b 389 150 468 167 433 150 b 264 347 310 150 264 211 z m 854 761 l 888 974 l 890 1069 l 758 1069 l 767 761 z "},"ḍ":{"ha":796,"x_min":0,"x_max":0,"o":"m 54 344 b 336 -17 54 119 165 -17 b 519 68 403 -17 471 19 l 525 68 l 539 0 l 706 0 l 706 974 l 501 974 l 501 739 l 510 633 b 340 706 463 678 417 706 b 54 344 194 706 54 569 z m 264 347 b 388 539 264 478 322 539 b 501 494 425 539 465 528 l 501 213 b 389 150 468 167 433 150 b 264 347 310 150 264 211 z m 433 -314 b 547 -207 500 -314 547 -269 b 433 -100 547 -144 500 -100 b 321 -207 367 -100 321 -144 b 433 -314 321 -269 367 -314 z "},"ḏ":{"ha":796,"x_min":0,"x_max":0,"o":"m 54 344 b 336 -17 54 119 165 -17 b 519 68 403 -17 471 19 l 525 68 l 539 0 l 706 0 l 706 974 l 501 974 l 501 739 l 510 633 b 340 706 463 678 417 706 b 54 344 194 706 54 569 z m 264 347 b 388 539 264 478 322 539 b 501 494 425 539 465 528 l 501 213 b 389 150 468 167 433 150 b 264 347 310 150 264 211 z m 625 -132 l 242 -132 l 242 -262 l 625 -262 z "},"đ":{"ha":796,"x_min":0,"x_max":0,"o":"m 501 213 b 389 150 468 167 433 150 b 264 333 310 150 264 204 b 388 511 264 454 322 511 b 501 467 425 511 465 500 z m 800 871 l 706 871 l 706 974 l 501 974 l 501 871 l 294 871 l 294 772 l 501 772 l 501 711 l 510 606 b 340 678 463 650 417 678 b 54 331 194 678 54 544 b 336 -17 54 111 165 -17 b 517 61 406 -17 469 15 l 522 61 l 535 0 l 706 0 l 706 774 l 800 781 z "},"è":{"ha":719,"x_min":0,"x_max":0,"o":"m 50 344 b 399 -17 50 117 201 -17 b 643 61 481 -17 572 13 l 575 185 b 426 139 525 154 478 139 b 247 289 335 139 265 185 l 660 289 b 668 375 664 306 668 339 b 375 706 668 563 571 706 b 50 344 210 706 50 568 z m 246 415 b 379 550 260 507 315 550 b 494 415 461 550 494 494 z m 339 797 l 489 797 l 365 1006 l 168 1006 z "},"é":{"ha":719,"x_min":0,"x_max":0,"o":"m 50 344 b 399 -17 50 117 201 -17 b 643 61 481 -17 572 13 l 575 185 b 426 139 525 154 478 139 b 247 289 335 139 265 185 l 660 289 b 668 375 664 306 668 339 b 375 706 668 563 571 706 b 50 344 210 706 50 568 z m 246 415 b 379 550 260 507 315 550 b 494 415 461 550 494 494 z m 582 1006 l 385 1006 l 261 797 l 410 797 z "},"ê":{"ha":719,"x_min":0,"x_max":0,"o":"m 50 344 b 399 -17 50 117 201 -17 b 643 61 481 -17 572 13 l 575 185 b 426 139 525 154 478 139 b 247 289 335 139 265 185 l 660 289 b 668 375 664 306 668 339 b 375 706 668 563 571 706 b 50 344 210 706 50 568 z m 246 415 b 379 550 260 507 315 550 b 494 415 461 550 494 494 z m 161 797 l 299 797 l 372 907 l 378 907 l 451 797 l 589 797 l 456 1006 l 293 1006 z "},"ě":{"ha":719,"x_min":0,"x_max":0,"o":"m 50 344 b 399 -17 50 117 201 -17 b 643 61 481 -17 572 13 l 575 185 b 426 139 525 154 478 139 b 247 289 335 139 265 185 l 660 289 b 668 375 664 306 668 339 b 375 706 668 563 571 706 b 50 344 210 706 50 568 z m 246 415 b 379 550 260 507 315 550 b 494 415 461 550 494 494 z m 293 797 l 456 797 l 589 1006 l 451 1006 l 378 896 l 372 896 l 299 1006 l 161 1006 z "},"ë":{"ha":719,"x_min":0,"x_max":0,"o":"m 50 344 b 399 -17 50 117 201 -17 b 643 61 481 -17 572 13 l 575 185 b 426 139 525 154 478 139 b 247 289 335 139 265 185 l 660 289 b 668 375 664 306 668 339 b 375 706 668 563 571 706 b 50 344 210 706 50 568 z m 246 415 b 379 550 260 507 315 550 b 494 415 461 550 494 494 z m 238 793 b 335 890 294 793 335 835 b 238 986 335 944 294 986 b 140 890 181 986 140 944 b 238 793 140 835 181 793 z m 513 793 b 610 890 569 793 610 835 b 513 986 610 944 569 986 b 415 890 456 986 415 944 b 513 793 415 835 456 793 z "},"ē":{"ha":719,"x_min":0,"x_max":0,"o":"m 50 344 b 399 -17 50 117 201 -17 b 643 61 481 -17 572 13 l 575 185 b 426 139 525 154 478 139 b 247 289 335 139 265 185 l 660 289 b 668 375 664 306 668 339 b 375 706 668 563 571 706 b 50 344 210 706 50 568 z m 246 415 b 379 550 260 507 315 550 b 494 415 461 550 494 494 z m 183 822 l 567 822 l 567 951 l 183 951 z "},"ĕ":{"ha":719,"x_min":0,"x_max":0,"o":"m 50 344 b 399 -17 50 117 201 -17 b 643 61 481 -17 572 13 l 575 185 b 426 139 525 154 478 139 b 247 289 335 139 265 185 l 660 289 b 668 375 664 306 668 339 b 375 706 668 563 571 706 b 50 344 210 706 50 568 z m 246 415 b 379 550 260 507 315 550 b 494 415 461 550 494 494 z m 375 797 b 568 990 504 797 564 890 l 454 990 b 375 910 449 946 424 910 b 296 990 325 910 301 946 l 182 990 b 375 797 186 890 246 797 z "},"ė":{"ha":719,"x_min":0,"x_max":0,"o":"m 50 344 b 399 -17 50 117 201 -17 b 643 61 481 -17 572 13 l 575 185 b 426 139 525 154 478 139 b 247 289 335 139 265 185 l 660 289 b 668 375 664 306 668 339 b 375 706 668 563 571 706 b 50 344 210 706 50 568 z m 246 415 b 379 550 260 507 315 550 b 494 415 461 550 494 494 z m 375 790 b 488 897 442 790 488 835 b 375 1004 488 960 442 1004 b 261 897 308 1004 261 960 b 375 790 261 835 308 790 z "},"ẹ":{"ha":719,"x_min":0,"x_max":0,"o":"m 50 344 b 399 -17 50 117 201 -17 b 643 61 481 -17 572 13 l 575 185 b 426 139 525 154 478 139 b 247 289 335 139 265 185 l 660 289 b 668 375 664 306 668 339 b 375 706 668 563 571 706 b 50 344 210 706 50 568 z m 246 415 b 379 550 260 507 315 550 b 494 415 461 550 494 494 z m 374 -314 b 488 -207 440 -314 488 -269 b 374 -100 488 -144 440 -100 b 261 -207 308 -100 261 -144 b 374 -314 261 -269 308 -314 z "},"ẻ":{"ha":719,"x_min":0,"x_max":0,"o":"m 50 344 b 399 -17 50 117 201 -17 b 643 61 481 -17 572 13 l 575 185 b 426 139 525 154 478 139 b 247 289 335 139 265 185 l 660 289 b 668 375 664 306 668 339 b 375 706 668 563 571 706 b 50 344 210 706 50 568 z m 246 415 b 379 550 260 507 315 550 b 494 415 461 550 494 494 z m 326 774 b 519 917 431 781 519 822 b 285 1044 519 992 457 1039 l 263 942 b 372 896 342 938 372 922 b 310 854 372 869 344 860 z "},"ẽ":{"ha":719,"x_min":0,"x_max":0,"o":"m 50 344 b 399 -17 50 117 201 -17 b 643 61 481 -17 572 13 l 575 185 b 426 139 525 154 478 139 b 247 289 335 139 265 185 l 660 289 b 668 375 664 306 668 339 b 375 706 668 563 571 706 b 50 344 210 706 50 568 z m 246 415 b 379 550 260 507 315 550 b 494 415 461 550 494 494 z m 144 799 l 249 799 b 297 861 258 844 274 861 b 461 799 338 861 388 799 b 606 986 535 799 590 861 l 501 986 b 453 925 490 942 476 925 b 289 986 413 925 363 986 b 144 799 215 986 158 925 z "},"ế":{"ha":719,"x_min":0,"x_max":0,"o":"m 50 344 b 399 -17 50 117 201 -17 b 643 61 481 -17 572 13 l 575 185 b 426 139 525 154 478 139 b 247 289 335 139 265 185 l 660 289 b 668 375 664 306 668 339 b 375 706 668 563 571 706 b 50 344 210 706 50 568 z m 246 415 b 379 550 260 507 315 550 b 494 415 461 550 494 494 z m 182 797 l 307 797 l 372 888 l 378 888 l 442 797 l 568 797 l 456 975 l 293 975 z m 524 897 l 638 897 l 769 1061 l 618 1061 z "},"ề":{"ha":719,"x_min":0,"x_max":0,"o":"m 50 344 b 399 -17 50 117 201 -17 b 643 61 481 -17 572 13 l 575 185 b 426 139 525 154 478 139 b 247 289 335 139 265 185 l 660 289 b 668 375 664 306 668 339 b 375 706 668 563 571 706 b 50 344 210 706 50 568 z m 246 415 b 379 550 260 507 315 550 b 494 415 461 550 494 494 z m 182 797 l 307 797 l 372 888 l 378 888 l 442 797 l 568 797 l 456 975 l 293 975 z m 626 1061 l 475 1061 l 607 897 l 721 897 z "},"ể":{"ha":719,"x_min":0,"x_max":0,"o":"m 50 344 b 399 -17 50 117 201 -17 b 643 61 481 -17 572 13 l 575 185 b 426 139 525 154 478 139 b 247 289 335 139 265 185 l 660 289 b 668 375 664 306 668 339 b 375 706 668 563 571 706 b 50 344 210 706 50 568 z m 246 415 b 379 550 260 507 315 550 b 494 415 461 550 494 494 z m 182 797 l 307 797 l 372 888 l 378 888 l 442 797 l 568 797 l 456 975 l 293 975 z m 565 872 b 728 1003 654 885 728 911 b 522 1113 728 1067 675 1108 l 504 1026 b 594 981 574 1022 594 1007 b 553 942 594 957 578 947 z "},"ễ":{"ha":719,"x_min":0,"x_max":0,"o":"m 50 344 b 399 -17 50 117 201 -17 b 643 61 481 -17 572 13 l 575 185 b 426 139 525 154 478 139 b 247 289 335 139 265 185 l 660 289 b 668 375 664 306 668 339 b 375 706 668 563 571 706 b 50 344 210 706 50 568 z m 246 415 b 379 550 260 507 315 550 b 494 415 461 550 494 494 z m 171 796 l 303 796 l 372 878 l 378 878 l 447 796 l 579 796 l 468 950 l 282 950 z m 260 1000 b 310 1053 268 1038 286 1053 b 451 1000 349 1053 378 1000 b 578 1158 513 1000 565 1050 l 489 1158 b 440 1106 482 1121 464 1106 b 299 1158 401 1106 372 1158 b 172 1000 236 1158 183 1110 z "},"ệ":{"ha":719,"x_min":0,"x_max":0,"o":"m 50 344 b 399 -17 50 117 201 -17 b 643 61 481 -17 572 13 l 575 185 b 426 139 525 154 478 139 b 247 289 335 139 265 185 l 660 289 b 668 375 664 306 668 339 b 375 706 668 563 571 706 b 50 344 210 706 50 568 z m 246 415 b 379 550 260 507 315 550 b 494 415 461 550 494 494 z m 161 797 l 299 797 l 372 907 l 378 907 l 451 797 l 589 797 l 456 1006 l 293 1006 z m 374 -314 b 488 -207 440 -314 488 -269 b 374 -100 488 -144 440 -100 b 261 -207 308 -100 261 -144 b 374 -314 261 -269 308 -314 z "},"ę":{"ha":719,"x_min":0,"x_max":0,"o":"m 50 344 b 399 -17 50 117 201 -17 b 436 -12 408 -17 419 -17 b 358 -165 401 -43 358 -97 b 503 -292 358 -249 421 -292 b 643 -246 547 -292 608 -274 l 601 -154 b 553 -171 588 -162 571 -171 b 493 -118 519 -171 493 -154 b 643 61 493 -64 521 -24 l 575 185 b 426 139 525 154 478 139 b 247 289 335 139 265 185 l 660 289 b 668 375 664 306 668 338 b 375 706 668 563 571 706 b 50 344 210 706 50 568 z m 246 415 b 379 550 260 508 315 550 b 494 415 461 550 494 494 z "},"ĝ":{"ha":742,"x_min":0,"x_max":0,"o":"m 215 -86 b 253 -18 215 -61 228 -40 b 350 -26 275 -24 303 -26 l 421 -26 b 526 -81 489 -26 526 -37 b 368 -165 526 -128 460 -165 b 215 -86 276 -165 215 -137 z m 47 -118 b 336 -293 47 -240 175 -293 b 721 -46 572 -293 721 -189 b 458 129 721 78 628 129 l 347 129 b 243 181 271 129 243 146 b 268 232 243 204 250 217 b 351 218 299 222 326 218 b 622 450 503 218 622 292 b 600 540 622 486 613 519 l 710 540 l 710 689 l 458 689 b 351 706 428 700 390 706 b 67 457 203 706 67 622 b 160 278 67 376 111 311 l 160 272 b 82 143 115 242 82 193 b 146 26 82 86 110 50 l 146 21 b 47 -118 82 -15 47 -61 z m 351 342 b 257 457 297 342 257 381 b 351 568 257 531 297 568 b 446 457 406 568 446 529 b 351 342 446 381 406 342 z m 135 797 l 272 797 l 346 907 l 351 907 l 426 797 l 564 797 l 431 1006 l 268 1006 z "},"ğ":{"ha":742,"x_min":0,"x_max":0,"o":"m 215 -86 b 253 -18 215 -61 228 -40 b 350 -26 275 -24 303 -26 l 421 -26 b 526 -81 489 -26 526 -37 b 368 -165 526 -128 460 -165 b 215 -86 276 -165 215 -137 z m 47 -118 b 336 -293 47 -240 175 -293 b 721 -46 572 -293 721 -189 b 458 129 721 78 628 129 l 347 129 b 243 181 271 129 243 146 b 268 232 243 204 250 217 b 351 218 299 222 326 218 b 622 450 503 218 622 292 b 600 540 622 486 613 519 l 710 540 l 710 689 l 458 689 b 351 706 428 700 390 706 b 67 457 203 706 67 622 b 160 278 67 376 111 311 l 160 272 b 82 143 115 242 82 193 b 146 26 82 86 110 50 l 146 21 b 47 -118 82 -15 47 -61 z m 351 342 b 257 457 297 342 257 381 b 351 568 257 531 297 568 b 446 457 406 568 446 529 b 351 342 446 381 406 342 z m 349 797 b 542 990 479 797 539 890 l 428 990 b 349 910 422 946 399 910 b 269 990 300 910 276 946 l 156 990 b 349 797 160 890 219 797 z "},"ġ":{"ha":742,"x_min":0,"x_max":0,"o":"m 215 -86 b 253 -18 215 -61 228 -40 b 350 -26 275 -24 303 -26 l 421 -26 b 526 -81 489 -26 526 -37 b 368 -165 526 -128 460 -165 b 215 -86 276 -165 215 -137 z m 47 -118 b 336 -293 47 -240 175 -293 b 721 -46 572 -293 721 -189 b 458 129 721 78 628 129 l 347 129 b 243 181 271 129 243 146 b 268 232 243 204 250 217 b 351 218 299 222 326 218 b 622 450 503 218 622 292 b 600 540 622 486 613 519 l 710 540 l 710 689 l 458 689 b 351 706 428 700 390 706 b 67 457 203 706 67 622 b 160 278 67 376 111 311 l 160 272 b 82 143 115 242 82 193 b 146 26 82 86 110 50 l 146 21 b 47 -118 82 -15 47 -61 z m 351 342 b 257 457 297 342 257 381 b 351 568 257 531 297 568 b 446 457 406 568 446 529 b 351 342 446 381 406 342 z m 349 790 b 463 897 415 790 463 835 b 349 1004 463 960 415 1004 b 236 897 283 1004 236 960 b 349 790 236 835 283 790 z "},"ģ":{"ha":742,"x_min":0,"x_max":0,"o":"m 215 -86 b 253 -18 215 -61 228 -40 b 350 -26 275 -24 303 -26 l 421 -26 b 526 -81 489 -26 526 -37 b 368 -165 526 -128 460 -165 b 215 -86 276 -165 215 -137 z m 47 -118 b 336 -293 47 -240 175 -293 b 721 -46 572 -293 721 -189 b 458 129 721 78 628 129 l 347 129 b 243 181 271 129 243 146 b 268 232 243 204 250 217 b 351 218 299 222 326 218 b 622 450 503 218 622 292 b 600 540 622 486 613 519 l 710 540 l 710 689 l 458 689 b 351 706 428 700 390 706 b 67 457 203 706 67 622 b 160 278 67 376 111 311 l 160 272 b 82 143 115 242 82 193 b 146 26 82 86 110 50 l 146 21 b 47 -118 82 -15 47 -61 z m 351 342 b 257 457 297 342 257 381 b 351 568 257 531 297 568 b 446 457 406 568 446 529 b 351 342 446 381 406 342 z m 399 757 l 438 832 b 378 882 396 842 378 857 b 492 935 378 914 425 928 l 476 1017 b 231 872 344 1010 231 967 b 399 757 231 803 274 768 z "},"ǧ":{"ha":742,"x_min":0,"x_max":0,"o":"m 215 -86 b 253 -18 215 -61 228 -40 b 350 -26 275 -24 303 -26 l 421 -26 b 526 -81 489 -26 526 -37 b 368 -165 526 -128 460 -165 b 215 -86 276 -165 215 -137 z m 47 -118 b 336 -293 47 -240 175 -293 b 721 -46 572 -293 721 -189 b 458 129 721 78 628 129 l 347 129 b 243 181 271 129 243 146 b 268 232 243 204 250 217 b 351 218 299 222 326 218 b 622 450 503 218 622 292 b 600 540 622 486 613 519 l 710 540 l 710 689 l 458 689 b 351 706 428 700 390 706 b 67 457 203 706 67 622 b 160 278 67 376 111 311 l 160 272 b 82 143 115 242 82 193 b 146 26 82 86 110 50 l 146 21 b 47 -118 82 -15 47 -61 z m 351 342 b 257 457 297 342 257 381 b 351 568 257 531 297 568 b 446 457 406 568 446 529 b 351 342 446 381 406 342 z m 268 797 l 431 797 l 564 1006 l 426 1006 l 351 896 l 346 896 l 272 1006 l 135 1006 z "},"ḡ":{"ha":742,"x_min":0,"x_max":0,"o":"m 215 -86 b 253 -18 215 -61 228 -40 b 350 -26 275 -24 303 -26 l 421 -26 b 526 -81 489 -26 526 -37 b 368 -165 526 -128 460 -165 b 215 -86 276 -165 215 -137 z m 47 -118 b 336 -293 47 -240 175 -293 b 721 -46 572 -293 721 -189 b 458 129 721 78 628 129 l 347 129 b 243 181 271 129 243 146 b 268 232 243 204 250 217 b 351 218 299 222 326 218 b 622 450 503 218 622 292 b 600 540 622 486 613 519 l 710 540 l 710 689 l 458 689 b 351 706 428 700 390 706 b 67 457 203 706 67 622 b 160 278 67 376 111 311 l 160 272 b 82 143 115 242 82 193 b 146 26 82 86 110 50 l 146 21 b 47 -118 82 -15 47 -61 z m 351 342 b 257 457 297 342 257 381 b 351 568 257 531 297 568 b 446 457 406 568 446 529 b 351 342 446 381 406 342 z m 157 822 l 540 822 l 540 951 l 157 951 z "},"ĥ":{"ha":793,"x_min":0,"x_max":0,"o":"m 90 0 l 294 0 l 294 465 b 422 532 339 508 371 532 b 507 401 481 532 507 501 l 507 0 l 711 0 l 711 428 b 497 706 711 600 647 706 b 285 611 404 706 336 657 l 294 735 l 294 974 l 90 974 z m 114 1042 l 188 1125 l 193 1125 l 267 1042 l 424 1042 l 290 1208 l 90 1208 l -43 1042 z "},"ḥ":{"ha":793,"x_min":0,"x_max":0,"o":"m 90 0 l 294 0 l 294 465 b 422 532 339 508 371 532 b 507 401 481 532 507 501 l 507 0 l 711 0 l 711 428 b 497 706 711 600 647 706 b 285 611 404 706 336 657 l 294 735 l 294 974 l 90 974 z m 407 -314 b 521 -207 474 -314 521 -269 b 407 -100 521 -144 474 -100 b 294 -207 342 -100 294 -144 b 407 -314 294 -269 342 -314 z "},"ḫ":{"ha":793,"x_min":0,"x_max":0,"o":"m 90 0 l 294 0 l 294 465 b 422 532 339 508 371 532 b 507 401 481 532 507 501 l 507 0 l 711 0 l 711 428 b 497 706 711 600 647 706 b 285 611 404 706 336 657 l 294 735 l 294 974 l 90 974 z m 407 -292 b 600 -99 536 -292 596 -200 l 486 -99 b 407 -181 481 -144 456 -181 b 328 -99 358 -181 333 -144 l 214 -99 b 407 -292 218 -200 278 -292 z "},"ħ":{"ha":793,"x_min":0,"x_max":0,"o":"m 294 707 l 294 772 l 529 772 l 529 871 l 294 871 l 294 974 l 90 974 l 90 869 l -4 863 l -4 772 l 90 772 l 90 0 l 294 0 l 294 438 b 422 504 339 481 371 504 b 507 374 481 504 507 474 l 507 0 l 711 0 l 711 400 b 497 678 711 572 647 678 b 285 583 404 678 336 629 z "},"ì":{"ha":383,"x_min":0,"x_max":0,"o":"m 90 0 l 294 0 l 294 689 l 90 689 z m 157 797 l 306 797 l 182 1006 l -15 1006 z "},"í":{"ha":383,"x_min":0,"x_max":0,"o":"m 90 0 l 294 0 l 294 689 l 90 689 z m 399 1006 l 201 1006 l 79 797 l 228 797 z "},"î":{"ha":383,"x_min":0,"x_max":0,"o":"m 90 0 l 294 0 l 294 689 l 90 689 z m -22 797 l 115 797 l 189 907 l 194 907 l 268 797 l 406 797 l 274 1006 l 111 1006 z "},"ĩ":{"ha":383,"x_min":0,"x_max":0,"o":"m 90 0 l 294 0 l 294 689 l 90 689 z m -39 799 l 65 799 b 114 861 76 844 90 861 b 278 799 156 861 204 799 b 422 986 351 799 408 861 l 318 986 b 269 925 308 942 293 925 b 106 986 229 925 179 986 b -39 799 32 986 -24 925 z "},"ï":{"ha":383,"x_min":0,"x_max":0,"o":"m 90 0 l 294 0 l 294 689 l 90 689 z m 54 793 b 151 890 111 793 151 835 b 54 986 151 944 111 986 b -43 890 -3 986 -43 944 b 54 793 -43 835 -3 793 z m 329 793 b 426 890 386 793 426 835 b 329 986 426 944 386 986 b 232 890 272 986 232 944 b 329 793 232 835 272 793 z "},"ī":{"ha":383,"x_min":0,"x_max":0,"o":"m 90 0 l 294 0 l 294 689 l 90 689 z m 0 822 l 383 822 l 383 951 l 0 951 z "},"ǐ":{"ha":383,"x_min":0,"x_max":0,"o":"m 90 0 l 294 0 l 294 689 l 90 689 z m 111 797 l 274 797 l 406 1006 l 268 1006 l 194 896 l 189 896 l 115 1006 l -22 1006 z "},"ỉ":{"ha":383,"x_min":0,"x_max":0,"o":"m 90 0 l 294 0 l 294 689 l 90 689 z m 143 774 b 336 917 247 781 336 822 b 103 1044 336 992 275 1039 l 79 942 b 189 896 158 938 189 922 b 128 854 189 869 163 860 z "},"ị":{"ha":383,"x_min":0,"x_max":0,"o":"m 192 790 b 310 897 261 790 310 835 b 192 1003 310 960 261 1003 b 74 897 124 1003 74 960 b 192 790 74 835 124 790 z m 90 0 l 294 0 l 294 689 l 90 689 z m 192 -314 b 306 -207 258 -314 306 -269 b 192 -100 306 -144 258 -100 b 79 -207 126 -100 79 -144 b 192 -314 79 -269 126 -314 z "},"į":{"ha":383,"x_min":0,"x_max":0,"o":"m 90 0 l 147 0 b 57 -165 113 -28 57 -85 b 204 -292 57 -249 122 -292 b 344 -246 247 -292 310 -274 l 303 -154 b 254 -171 286 -162 271 -171 b 194 -118 222 -171 194 -154 b 294 0 194 -76 221 -28 l 294 689 l 90 689 z m 192 790 b 310 897 260 790 310 835 b 192 1003 310 960 260 1003 b 74 897 124 1003 74 960 b 192 790 74 835 124 790 z "},"ı":{"ha":383,"x_min":0,"x_max":0,"o":"m 90 0 l 294 0 l 294 689 l 90 689 z "},"ĵ":{"ha":386,"x_min":0,"x_max":0,"o":"m 92 -1 b 19 -112 92 -78 74 -112 b -35 -103 0 -112 -17 -108 l -71 -253 b 50 -272 -43 -264 -7 -272 b 296 4 238 -272 296 -146 l 296 689 l 92 689 z m -19 797 l 118 797 l 192 907 l 197 907 l 271 797 l 408 797 l 275 1006 l 113 1006 z "},"ķ":{"ha":761,"x_min":0,"x_max":0,"o":"m 90 0 l 289 0 l 289 169 l 376 268 l 532 0 l 753 0 l 493 406 l 735 689 l 513 689 l 294 415 l 289 415 l 289 974 l 90 974 z m 360 -58 l 321 -133 b 381 -185 363 -144 381 -158 b 267 -236 381 -217 333 -229 l 282 -318 b 528 -175 413 -311 528 -269 b 360 -58 528 -106 485 -71 z "},"ĸ":{"ha":761,"x_min":0,"x_max":0,"o":"m 90 0 l 294 0 l 294 163 l 376 263 l 532 0 l 753 0 l 499 406 l 735 689 l 513 689 l 299 411 l 294 411 l 294 689 l 90 689 z "},"ĺ":{"ha":397,"x_min":0,"x_max":0,"o":"m 90 214 b 278 -17 90 75 138 -17 b 381 0 324 -17 358 -10 l 356 151 b 331 149 344 149 339 149 b 294 206 314 149 294 163 l 294 974 l 90 974 z m 421 1218 l 204 1218 l 92 1051 l 254 1051 z "},"ľ":{"ha":442,"x_min":0,"x_max":0,"o":"m 90 214 b 278 -17 90 75 138 -17 b 381 0 324 -17 358 -10 l 356 151 b 331 149 344 149 339 149 b 294 206 314 149 294 163 l 294 974 l 90 974 z m 442 761 l 475 974 l 478 1069 l 347 1069 l 354 761 z "},"ŀ":{"ha":629,"x_min":0,"x_max":0,"o":"m 90 214 b 278 -17 90 75 138 -17 b 381 0 324 -17 358 -10 l 356 151 b 331 149 344 149 339 149 b 294 206 314 149 294 163 l 294 974 l 90 974 z m 383 457 b 506 328 383 385 435 328 b 629 457 576 328 629 385 b 506 585 629 529 576 585 b 383 457 435 585 383 529 z "},"ļ":{"ha":397,"x_min":0,"x_max":0,"o":"m 90 214 b 278 -17 90 75 138 -17 b 381 0 324 -17 358 -10 l 356 151 b 331 149 344 149 339 149 b 294 206 314 149 294 163 l 294 974 l 90 974 z m 215 -58 l 176 -133 b 236 -185 217 -144 236 -158 b 121 -236 236 -217 188 -229 l 136 -318 b 383 -175 268 -311 383 -269 b 215 -58 383 -106 339 -71 z "},"ḷ":{"ha":397,"x_min":0,"x_max":0,"o":"m 90 214 b 278 -17 90 75 138 -17 b 381 0 324 -17 358 -10 l 356 151 b 331 149 344 149 339 149 b 294 206 314 149 294 163 l 294 974 l 90 974 z m 264 -314 b 378 -207 331 -314 378 -269 b 264 -100 378 -144 331 -100 b 151 -207 199 -100 151 -144 b 264 -314 151 -269 199 -314 z "},"ḹ":{"ha":397,"x_min":0,"x_max":0,"o":"m 90 214 b 278 -17 90 75 138 -17 b 381 0 324 -17 358 -10 l 356 151 b 331 149 344 149 339 149 b 294 206 314 149 294 163 l 294 974 l 90 974 z m -1 1115 l 382 1115 l 382 1246 l -1 1246 z m 264 -314 b 378 -207 331 -314 378 -269 b 264 -100 378 -144 331 -100 b 151 -207 199 -100 151 -144 b 264 -314 151 -269 199 -314 z "},"ḻ":{"ha":397,"x_min":0,"x_max":0,"o":"m 90 214 b 278 -17 90 75 138 -17 b 381 0 324 -17 358 -10 l 356 151 b 331 149 344 149 339 149 b 294 206 314 149 294 163 l 294 974 l 90 974 z m 456 -132 l 72 -132 l 72 -262 l 456 -262 z "},"ł":{"ha":421,"x_min":0,"x_max":0,"o":"m 399 539 l 399 703 l 308 649 l 308 974 l 104 974 l 104 547 l 21 496 l 21 333 l 104 383 l 104 214 b 292 -17 104 75 151 -17 b 394 0 338 -17 371 -10 l 369 151 b 344 149 358 149 353 149 b 308 206 328 149 308 163 l 308 485 z "},"ṃ":{"ha":1190,"x_min":0,"x_max":0,"o":"m 90 0 l 294 0 l 294 465 b 411 532 338 510 378 532 b 496 401 469 532 496 501 l 496 0 l 700 0 l 700 465 b 818 532 744 510 783 532 b 903 401 876 532 903 501 l 903 0 l 1107 0 l 1107 428 b 892 706 1107 600 1040 706 b 675 590 800 706 736 653 b 485 706 640 664 582 706 b 276 600 394 706 333 657 l 271 600 l 257 689 l 90 689 z m 610 -314 b 724 -207 676 -314 724 -269 b 610 -100 724 -144 676 -100 b 497 -207 543 -100 497 -144 b 610 -314 497 -269 543 -314 z "},"ń":{"ha":794,"x_min":0,"x_max":0,"o":"m 90 0 l 294 0 l 294 465 b 422 532 339 508 371 532 b 507 401 481 532 507 501 l 507 0 l 711 0 l 711 428 b 497 706 711 600 647 706 b 276 601 404 706 335 657 l 271 601 l 257 689 l 90 689 z m 635 1006 l 438 1006 l 314 797 l 463 797 z "},"ň":{"ha":794,"x_min":0,"x_max":0,"o":"m 90 0 l 294 0 l 294 465 b 422 532 339 508 371 532 b 507 401 481 532 507 501 l 507 0 l 711 0 l 711 428 b 497 706 711 600 647 706 b 276 601 404 706 335 657 l 271 601 l 257 689 l 90 689 z m 346 797 l 508 797 l 642 1006 l 504 1006 l 431 896 l 425 896 l 351 1006 l 214 1006 z "},"ñ":{"ha":794,"x_min":0,"x_max":0,"o":"m 90 0 l 294 0 l 294 465 b 422 532 339 508 371 532 b 507 401 481 532 507 501 l 507 0 l 711 0 l 711 428 b 497 706 711 600 647 706 b 276 601 404 706 335 657 l 271 601 l 257 689 l 90 689 z m 197 799 l 301 799 b 350 861 311 844 326 861 b 514 799 390 861 440 799 b 658 986 588 799 643 861 l 554 986 b 506 925 543 942 529 925 b 342 986 465 925 415 986 b 197 799 268 986 211 925 z "},"ņ":{"ha":794,"x_min":0,"x_max":0,"o":"m 90 0 l 294 0 l 294 465 b 422 532 339 508 371 532 b 507 401 481 532 507 501 l 507 0 l 711 0 l 711 428 b 497 706 711 600 647 706 b 276 601 404 706 335 657 l 271 601 l 257 689 l 90 689 z m 356 -58 l 317 -133 b 376 -185 357 -144 376 -158 b 261 -236 376 -217 328 -229 l 276 -318 b 524 -175 408 -311 524 -269 b 356 -58 524 -106 479 -71 z "},"ṅ":{"ha":794,"x_min":0,"x_max":0,"o":"m 90 0 l 294 0 l 294 465 b 422 532 339 508 371 532 b 507 401 481 532 507 501 l 507 0 l 711 0 l 711 428 b 497 706 711 600 647 706 b 276 601 404 706 335 657 l 271 601 l 257 689 l 90 689 z m 428 790 b 540 897 494 790 540 835 b 428 1004 540 960 494 1004 b 314 897 361 1004 314 960 b 428 790 314 835 361 790 z "},"ṇ":{"ha":794,"x_min":0,"x_max":0,"o":"m 90 0 l 294 0 l 294 465 b 422 532 339 508 371 532 b 507 401 481 532 507 501 l 507 0 l 711 0 l 711 428 b 497 706 711 600 647 706 b 276 601 404 706 335 657 l 271 601 l 257 689 l 90 689 z m 404 -314 b 518 -207 471 -314 518 -269 b 404 -100 518 -144 471 -100 b 292 -207 339 -100 292 -144 b 404 -314 292 -269 339 -314 z "},"ṉ":{"ha":794,"x_min":0,"x_max":0,"o":"m 90 0 l 294 0 l 294 465 b 422 532 339 508 371 532 b 507 401 481 532 507 501 l 507 0 l 711 0 l 711 428 b 497 706 711 600 647 706 b 276 601 404 706 335 657 l 271 601 l 257 689 l 90 689 z m 596 -132 l 213 -132 l 213 -262 l 596 -262 z "},"ŉ":{"ha":1183,"x_min":0,"x_max":0,"o":"m 143 489 b 342 786 276 554 342 656 b 211 968 342 901 296 968 b 104 854 149 968 104 924 b 211 753 104 792 151 753 b 224 754 215 753 219 753 b 99 578 224 671 182 619 z m 658 601 l 643 689 l 476 689 l 476 0 l 681 0 l 681 465 b 808 532 725 508 757 532 b 894 401 867 532 894 501 l 894 0 l 1099 0 l 1099 428 b 885 706 1099 600 1035 706 b 663 601 790 706 721 657 z "},"ò":{"ha":771,"x_min":0,"x_max":0,"o":"m 50 344 b 386 -17 50 115 211 -17 b 721 344 560 -17 721 115 b 386 706 721 574 560 706 b 50 344 211 706 50 574 z m 260 344 b 386 540 260 464 301 540 b 513 344 469 540 513 464 b 386 149 513 225 469 149 b 260 344 301 149 260 225 z m 350 797 l 499 797 l 375 1006 l 178 1006 z "},"ó":{"ha":771,"x_min":0,"x_max":0,"o":"m 50 344 b 386 -17 50 115 211 -17 b 721 344 560 -17 721 115 b 386 706 721 574 560 706 b 50 344 211 706 50 574 z m 260 344 b 386 540 260 464 301 540 b 513 344 469 540 513 464 b 386 149 513 225 469 149 b 260 344 301 149 260 225 z m 593 1006 l 396 1006 l 272 797 l 421 797 z "},"ô":{"ha":771,"x_min":0,"x_max":0,"o":"m 50 344 b 386 -17 50 115 211 -17 b 721 344 560 -17 721 115 b 386 706 721 574 560 706 b 50 344 211 706 50 574 z m 260 344 b 386 540 260 464 301 540 b 513 344 469 540 513 464 b 386 149 513 225 469 149 b 260 344 301 149 260 225 z m 171 797 l 308 797 l 383 907 l 389 907 l 463 797 l 600 797 l 467 1006 l 304 1006 z "},"õ":{"ha":771,"x_min":0,"x_max":0,"o":"m 50 344 b 386 -17 50 115 211 -17 b 721 344 560 -17 721 115 b 386 706 721 574 560 706 b 50 344 211 706 50 574 z m 260 344 b 386 540 260 464 301 540 b 513 344 469 540 513 464 b 386 149 513 225 469 149 b 260 344 301 149 260 225 z m 156 799 l 260 799 b 308 861 269 844 283 861 b 472 799 349 861 399 799 b 615 986 546 799 601 861 l 511 986 b 464 925 501 942 488 925 b 299 986 422 925 372 986 b 156 799 226 986 169 925 z "},"ö":{"ha":771,"x_min":0,"x_max":0,"o":"m 50 344 b 386 -17 50 115 211 -17 b 721 344 560 -17 721 115 b 386 706 721 574 560 706 b 50 344 211 706 50 574 z m 260 344 b 386 540 260 464 301 540 b 513 344 469 540 513 464 b 386 149 513 225 469 149 b 260 344 301 149 260 225 z m 247 793 b 344 890 306 793 344 835 b 247 986 344 944 306 986 b 151 890 190 986 151 944 b 247 793 151 835 190 793 z m 524 793 b 621 890 581 793 621 835 b 524 986 621 944 581 986 b 426 890 467 986 426 944 b 524 793 426 835 467 793 z "},"ō":{"ha":771,"x_min":0,"x_max":0,"o":"m 50 344 b 386 -17 50 115 211 -17 b 721 344 560 -17 721 115 b 386 706 721 574 560 706 b 50 344 211 706 50 574 z m 260 344 b 386 540 260 464 301 540 b 513 344 469 540 513 464 b 386 149 513 225 469 149 b 260 344 301 149 260 225 z m 194 822 l 578 822 l 578 951 l 194 951 z "},"ő":{"ha":771,"x_min":0,"x_max":0,"o":"m 50 344 b 386 -17 50 115 211 -17 b 721 344 560 -17 721 115 b 386 706 721 574 560 706 b 50 344 211 706 50 574 z m 260 344 b 386 540 260 464 301 540 b 513 344 469 540 513 464 b 386 149 513 225 469 149 b 260 344 301 149 260 225 z m 211 796 l 336 796 l 469 1006 l 307 1006 z m 449 796 l 574 796 l 706 1006 l 544 1006 z "},"ǒ":{"ha":771,"x_min":0,"x_max":0,"o":"m 50 344 b 386 -17 50 115 211 -17 b 721 344 560 -17 721 115 b 386 706 721 574 560 706 b 50 344 211 706 50 574 z m 260 344 b 386 540 260 464 301 540 b 513 344 469 540 513 464 b 386 149 513 225 469 149 b 260 344 301 149 260 225 z m 304 797 l 467 797 l 600 1006 l 463 1006 l 389 896 l 383 896 l 308 1006 l 171 1006 z "},"ọ":{"ha":771,"x_min":0,"x_max":0,"o":"m 50 344 b 386 -17 50 115 211 -17 b 721 344 560 -17 721 115 b 386 706 721 574 560 706 b 50 344 211 706 50 574 z m 260 344 b 386 540 260 464 301 540 b 513 344 469 540 513 464 b 386 149 513 225 469 149 b 260 344 301 149 260 225 z m 386 -314 b 499 -207 451 -314 499 -269 b 386 -100 499 -144 451 -100 b 272 -207 319 -100 272 -144 b 386 -314 272 -269 319 -314 z "},"ỏ":{"ha":771,"x_min":0,"x_max":0,"o":"m 50 344 b 386 -17 50 115 211 -17 b 721 344 560 -17 721 115 b 386 706 721 574 560 706 b 50 344 211 706 50 574 z m 260 344 b 386 540 260 464 301 540 b 513 344 469 540 513 464 b 386 149 513 225 469 149 b 260 344 301 149 260 225 z m 336 774 b 529 917 442 781 529 822 b 296 1044 529 992 468 1039 l 272 942 b 383 896 353 938 383 922 b 321 854 383 869 356 860 z "},"ố":{"ha":771,"x_min":0,"x_max":0,"o":"m 50 344 b 386 -17 50 115 211 -17 b 721 344 560 -17 721 115 b 386 706 721 574 560 706 b 50 344 211 706 50 574 z m 260 344 b 386 540 260 464 301 540 b 513 344 469 540 513 464 b 386 149 513 225 469 149 b 260 344 301 149 260 225 z m 192 797 l 318 797 l 383 888 l 389 888 l 453 797 l 579 797 l 467 975 l 304 975 z m 533 897 l 649 897 l 779 1061 l 629 1061 z "},"ồ":{"ha":771,"x_min":0,"x_max":0,"o":"m 50 344 b 386 -17 50 115 211 -17 b 721 344 560 -17 721 115 b 386 706 721 574 560 706 b 50 344 211 706 50 574 z m 260 344 b 386 540 260 464 301 540 b 513 344 469 540 513 464 b 386 149 513 225 469 149 b 260 344 301 149 260 225 z m 192 797 l 318 797 l 383 888 l 389 888 l 453 797 l 579 797 l 467 975 l 304 975 z m 638 1061 l 486 1061 l 618 897 l 732 897 z "},"ổ":{"ha":771,"x_min":0,"x_max":0,"o":"m 50 344 b 386 -17 50 115 211 -17 b 721 344 560 -17 721 115 b 386 706 721 574 560 706 b 50 344 211 706 50 574 z m 260 344 b 386 540 260 464 301 540 b 513 344 469 540 513 464 b 386 149 513 225 469 149 b 260 344 301 149 260 225 z m 192 797 l 318 797 l 383 888 l 389 888 l 453 797 l 579 797 l 467 975 l 304 975 z m 576 872 b 739 1003 665 885 739 911 b 533 1113 739 1067 686 1108 l 515 1026 b 606 981 585 1022 606 1007 b 563 942 606 957 589 947 z "},"ỗ":{"ha":771,"x_min":0,"x_max":0,"o":"m 50 344 b 386 -17 50 115 211 -17 b 721 344 560 -17 721 115 b 386 706 721 574 560 706 b 50 344 211 706 50 574 z m 260 344 b 386 540 260 464 301 540 b 513 344 469 540 513 464 b 386 149 513 225 469 149 b 260 344 301 149 260 225 z m 181 796 l 314 796 l 383 878 l 389 878 l 457 796 l 590 796 l 478 950 l 293 950 z m 271 1000 b 319 1053 279 1038 296 1053 b 461 1000 358 1053 389 1000 b 589 1158 524 1000 576 1050 l 500 1158 b 451 1106 492 1121 475 1106 b 310 1158 413 1106 383 1158 b 183 1000 247 1158 194 1110 z "},"ộ":{"ha":771,"x_min":0,"x_max":0,"o":"m 50 344 b 386 -17 50 115 211 -17 b 721 344 560 -17 721 115 b 386 706 721 574 560 706 b 50 344 211 706 50 574 z m 260 344 b 386 540 260 464 301 540 b 513 344 469 540 513 464 b 386 149 513 225 469 149 b 260 344 301 149 260 225 z m 171 797 l 308 797 l 383 907 l 389 907 l 463 797 l 600 797 l 467 1006 l 304 1006 z m 386 -314 b 499 -207 451 -314 499 -269 b 386 -100 499 -144 451 -100 b 272 -207 319 -100 272 -144 b 386 -314 272 -269 319 -314 z "},"ø":{"ha":771,"x_min":0,"x_max":0,"o":"m 514 428 b 524 333 521 401 524 369 b 386 142 524 218 469 142 b 306 169 354 142 326 151 z m 257 263 b 247 356 250 289 247 319 b 386 547 247 471 301 547 b 464 521 417 547 443 539 z m 707 667 l 631 726 l 569 651 b 386 706 515 686 451 706 b 50 344 211 706 50 574 b 129 104 50 244 81 164 l 64 24 l 140 -35 l 200 39 b 386 -17 254 3 319 -17 b 721 344 560 -17 721 115 b 642 586 721 444 690 525 z "},"œ":{"ha":1142,"x_min":0,"x_max":0,"o":"m 257 344 b 375 540 257 464 300 540 b 496 344 450 540 496 464 b 375 149 496 225 450 149 b 257 344 300 149 257 225 z m 50 344 b 371 -17 50 115 194 -17 b 600 104 472 -17 543 25 b 822 -17 657 28 739 -17 b 1067 61 903 -17 996 13 l 996 193 b 850 143 946 164 901 143 b 685 285 767 143 700 189 l 1083 285 b 1092 371 1088 301 1092 333 b 817 706 1092 558 999 706 b 599 585 733 706 654 661 b 375 706 546 660 472 706 b 50 344 200 706 50 574 z m 685 410 b 810 550 696 506 746 550 b 917 410 885 550 917 493 z "},"ơ":{"ha":771,"x_min":0,"x_max":0,"o":"m 386 149 b 260 344 301 149 260 225 b 386 540 260 464 301 540 b 513 344 469 540 513 464 b 386 149 513 225 469 149 z m 574 825 b 594 761 583 810 594 786 b 518 679 594 710 563 689 b 386 706 476 696 432 706 b 50 344 211 706 50 574 b 386 -17 50 115 211 -17 b 721 344 560 -17 721 115 b 618 611 721 460 681 550 b 753 775 696 633 753 686 b 713 886 753 821 733 861 z "},"ớ":{"ha":771,"x_min":0,"x_max":0,"o":"m 593 1006 l 396 1006 l 272 797 l 421 797 z m 386 149 b 260 344 301 149 260 225 b 386 540 260 464 301 540 b 513 344 469 540 513 464 b 386 149 513 225 469 149 z m 574 825 b 594 761 583 810 594 786 b 518 679 594 710 563 689 b 386 706 476 696 432 706 b 50 344 211 706 50 574 b 386 -17 50 115 211 -17 b 721 344 560 -17 721 115 b 618 611 721 460 681 550 b 753 775 696 633 753 686 b 713 886 753 821 733 861 z "},"ờ":{"ha":771,"x_min":0,"x_max":0,"o":"m 499 797 l 375 1006 l 178 1006 l 350 797 z m 386 149 b 260 344 301 149 260 225 b 386 540 260 464 301 540 b 513 344 469 540 513 464 b 386 149 513 225 469 149 z m 574 825 b 594 761 583 810 594 786 b 518 679 594 710 563 689 b 386 706 476 696 432 706 b 50 344 211 706 50 574 b 386 -17 50 115 211 -17 b 721 344 560 -17 721 115 b 618 611 721 460 681 550 b 753 775 696 633 753 686 b 713 886 753 821 733 861 z "},"ở":{"ha":771,"x_min":0,"x_max":0,"o":"m 336 774 b 529 917 442 781 529 822 b 296 1044 529 992 468 1039 l 272 942 b 383 896 353 938 383 922 b 321 854 383 869 356 860 z m 386 149 b 260 344 301 149 260 225 b 386 540 260 464 301 540 b 513 344 469 540 513 464 b 386 149 513 225 469 149 z m 574 825 b 594 761 583 810 594 786 b 518 679 594 710 563 689 b 386 706 476 696 432 706 b 50 344 211 706 50 574 b 386 -17 50 115 211 -17 b 721 344 560 -17 721 115 b 618 611 721 460 681 550 b 753 775 696 633 753 686 b 713 886 753 821 733 861 z "},"ỡ":{"ha":771,"x_min":0,"x_max":0,"o":"m 511 986 b 464 925 501 942 488 925 b 299 986 422 925 372 986 b 156 799 226 986 169 925 l 260 799 b 308 861 269 844 283 861 b 472 799 349 861 399 799 b 615 986 546 799 601 861 z m 386 149 b 260 344 301 149 260 225 b 386 540 260 464 301 540 b 513 344 469 540 513 464 b 386 149 513 225 469 149 z m 574 825 b 594 761 583 810 594 786 b 518 679 594 710 563 689 b 386 706 476 696 432 706 b 50 344 211 706 50 574 b 386 -17 50 115 211 -17 b 721 344 560 -17 721 115 b 618 611 721 460 681 550 b 753 775 696 633 753 686 b 713 886 753 821 733 861 z "},"ợ":{"ha":771,"x_min":0,"x_max":0,"o":"m 386 -100 b 272 -207 319 -100 272 -144 b 386 -314 272 -269 319 -314 b 499 -207 451 -314 499 -269 b 386 -100 499 -144 451 -100 z m 386 149 b 260 344 301 149 260 225 b 386 540 260 464 301 540 b 513 344 469 540 513 464 b 386 149 513 225 469 149 z m 574 825 b 594 761 583 810 594 786 b 518 679 594 710 563 689 b 386 706 476 696 432 706 b 50 344 211 706 50 574 b 386 -17 50 115 211 -17 b 721 344 560 -17 721 115 b 618 611 721 460 681 550 b 753 775 696 633 753 686 b 713 886 753 821 733 861 z "},"ǫ":{"ha":771,"x_min":0,"x_max":0,"o":"m 265 -165 b 413 -292 265 -249 331 -292 b 553 -246 457 -292 518 -274 l 511 -154 b 461 -171 497 -162 479 -171 b 403 -118 432 -171 403 -156 b 496 0 403 -78 428 -31 b 721 344 631 64 721 161 b 386 706 721 574 560 706 b 50 344 211 706 50 574 b 342 -14 50 135 185 6 b 265 -165 310 -42 265 -96 z m 260 344 b 386 540 260 464 301 540 b 513 344 469 540 513 464 b 386 149 513 225 469 149 b 260 344 301 149 260 225 z "},"ŕ":{"ha":553,"x_min":0,"x_max":0,"o":"m 90 0 l 294 0 l 294 400 b 446 526 331 493 394 526 b 521 515 475 526 496 522 l 554 692 b 472 706 535 700 511 706 b 276 568 401 706 326 661 l 271 568 l 257 689 l 90 689 z m 550 1006 l 353 1006 l 229 797 l 378 797 z "},"ŗ":{"ha":553,"x_min":0,"x_max":0,"o":"m 90 0 l 294 0 l 294 400 b 446 526 331 493 394 526 b 521 515 475 526 496 522 l 554 692 b 472 706 535 700 511 706 b 276 568 401 706 326 661 l 271 568 l 257 689 l 90 689 z m 142 -58 l 103 -133 b 163 -185 144 -144 163 -158 b 49 -236 163 -217 114 -229 l 64 -318 b 310 -175 194 -311 310 -269 b 142 -58 310 -106 267 -71 z "},"ř":{"ha":553,"x_min":0,"x_max":0,"o":"m 90 0 l 294 0 l 294 400 b 446 526 331 493 394 526 b 521 515 475 526 496 522 l 554 692 b 472 706 535 700 511 706 b 276 568 401 706 326 661 l 271 568 l 257 689 l 90 689 z m 261 797 l 424 797 l 557 1006 l 419 1006 l 346 896 l 340 896 l 265 1006 l 129 1006 z "},"ṛ":{"ha":553,"x_min":0,"x_max":0,"o":"m 90 0 l 294 0 l 294 400 b 446 526 331 493 394 526 b 521 515 475 526 496 522 l 554 692 b 472 706 535 700 511 706 b 276 568 401 706 326 661 l 271 568 l 257 689 l 90 689 z m 192 -314 b 304 -207 258 -314 304 -269 b 192 -100 304 -144 258 -100 b 78 -207 125 -100 78 -144 b 192 -314 78 -269 125 -314 z "},"ṝ":{"ha":553,"x_min":0,"x_max":0,"o":"m 90 0 l 294 0 l 294 400 b 446 526 331 493 394 526 b 521 515 475 526 496 522 l 554 692 b 472 706 535 700 511 706 b 276 568 401 706 326 661 l 271 568 l 257 689 l 90 689 z m 151 822 l 535 822 l 535 951 l 151 951 z m 192 -314 b 304 -207 258 -314 304 -269 b 192 -100 304 -144 258 -100 b 78 -207 125 -100 78 -144 b 192 -314 78 -269 125 -314 z "},"ṟ":{"ha":553,"x_min":0,"x_max":0,"o":"m 90 0 l 294 0 l 294 400 b 446 526 331 493 394 526 b 521 515 475 526 496 522 l 554 692 b 472 706 535 700 511 706 b 276 568 401 706 326 661 l 271 568 l 257 689 l 90 689 z m 383 -132 l -1 -132 l -1 -262 l 383 -262 z "},"ś":{"ha":615,"x_min":0,"x_max":0,"o":"m 29 79 b 293 -17 99 22 203 -17 b 576 206 478 -17 576 81 b 390 413 576 332 478 381 b 256 500 319 439 256 456 b 333 554 256 535 281 554 b 479 496 382 554 429 532 l 571 618 b 328 706 511 663 433 706 b 64 490 168 706 64 618 b 246 288 64 376 163 319 b 386 193 317 260 386 239 b 299 135 386 157 360 135 b 121 207 240 135 183 160 z m 535 1006 l 338 1006 l 214 797 l 363 797 z "},"ŝ":{"ha":615,"x_min":0,"x_max":0,"o":"m 29 79 b 293 -17 99 22 203 -17 b 576 206 478 -17 576 81 b 390 413 576 332 478 381 b 256 500 319 439 256 456 b 333 554 256 535 281 554 b 479 496 382 554 429 532 l 571 618 b 328 706 511 663 433 706 b 64 490 168 706 64 618 b 246 288 64 376 163 319 b 386 193 317 260 386 239 b 299 135 386 157 360 135 b 121 207 240 135 183 160 z m 114 797 l 251 797 l 325 907 l 331 907 l 404 797 l 542 797 l 408 1006 l 246 1006 z "},"š":{"ha":615,"x_min":0,"x_max":0,"o":"m 29 79 b 293 -17 99 22 203 -17 b 576 206 478 -17 576 81 b 390 413 576 332 478 381 b 256 500 319 439 256 456 b 333 554 256 535 281 554 b 479 496 382 554 429 532 l 571 618 b 328 706 511 663 433 706 b 64 490 168 706 64 618 b 246 288 64 376 163 319 b 386 193 317 260 386 239 b 299 135 386 157 360 135 b 121 207 240 135 183 160 z m 246 797 l 408 797 l 542 1006 l 404 1006 l 331 896 l 325 896 l 251 1006 l 114 1006 z "},"ş":{"ha":615,"x_min":0,"x_max":0,"o":"m 571 618 b 328 706 511 663 433 706 b 64 490 168 706 64 618 b 246 288 64 376 163 319 b 386 193 317 260 386 239 b 299 135 386 157 360 135 b 121 207 240 135 183 160 l 29 79 b 264 -15 92 28 182 -8 l 219 -106 b 300 -164 282 -121 300 -140 b 186 -225 300 -200 251 -218 l 201 -307 b 447 -162 332 -300 447 -258 b 367 -60 447 -106 413 -75 l 389 -7 b 576 206 513 21 576 104 b 390 413 576 332 478 381 b 256 500 319 439 256 456 b 333 554 256 535 281 554 b 479 496 382 554 429 532 z "},"ș":{"ha":615,"x_min":0,"x_max":0,"o":"m 29 79 b 293 -17 99 22 203 -17 b 576 206 478 -17 576 81 b 390 413 576 332 478 381 b 256 500 319 439 256 456 b 333 554 256 535 281 554 b 479 496 382 554 429 532 l 571 618 b 328 706 511 663 433 706 b 64 490 168 706 64 618 b 246 288 64 376 163 319 b 386 193 317 260 386 239 b 299 135 386 157 360 135 b 121 207 240 135 183 160 z m 274 -58 l 235 -133 b 294 -185 275 -144 294 -158 b 179 -236 294 -217 246 -229 l 194 -318 b 442 -175 326 -311 442 -269 b 274 -58 442 -106 397 -71 z "},"ṡ":{"ha":615,"x_min":0,"x_max":0,"o":"m 29 79 b 293 -17 99 22 203 -17 b 576 206 478 -17 576 81 b 390 413 576 332 478 381 b 256 500 319 439 256 456 b 333 554 256 535 281 554 b 479 496 382 554 429 532 l 571 618 b 328 706 511 663 433 706 b 64 490 168 706 64 618 b 246 288 64 376 163 319 b 386 193 317 260 386 239 b 299 135 386 157 360 135 b 121 207 240 135 183 160 z m 328 790 b 440 897 394 790 440 835 b 328 1004 440 960 394 1004 b 214 897 261 1004 214 960 b 328 790 214 835 261 790 z "},"ṣ":{"ha":615,"x_min":0,"x_max":0,"o":"m 29 79 b 293 -17 99 22 203 -17 b 576 206 478 -17 576 81 b 390 413 576 332 478 381 b 256 500 319 439 256 456 b 333 554 256 535 281 554 b 479 496 382 554 429 532 l 571 618 b 328 706 511 663 433 706 b 64 490 168 706 64 618 b 246 288 64 376 163 319 b 386 193 317 260 386 239 b 299 135 386 157 360 135 b 121 207 240 135 183 160 z m 322 -314 b 436 -207 389 -314 436 -269 b 322 -100 436 -144 389 -100 b 210 -207 257 -100 210 -144 b 322 -314 210 -269 257 -314 z "},"ß":{"ha":878,"x_min":0,"x_max":0,"o":"m 90 0 l 292 0 l 292 653 b 419 826 292 760 335 826 b 508 732 476 826 508 786 b 410 486 508 631 410 593 b 654 201 410 303 654 307 b 578 135 654 163 625 135 b 446 185 535 135 493 150 l 375 46 b 585 -17 442 7 503 -17 b 840 211 753 -17 840 85 b 596 511 840 425 596 419 b 704 756 596 582 704 624 b 419 988 704 875 610 988 b 90 676 196 988 90 856 z "},"ť":{"ha":532,"x_min":0,"x_max":0,"o":"m 118 250 b 356 -17 118 90 185 -17 b 508 8 422 -17 472 -3 l 476 157 b 411 143 458 150 433 143 b 322 253 357 143 322 175 l 322 529 l 488 529 l 488 689 l 322 689 l 322 872 l 153 872 l 129 689 l 24 681 l 24 529 l 118 529 z m 475 761 l 510 974 l 511 1069 l 381 1069 l 388 761 z "},"ţ":{"ha":532,"x_min":0,"x_max":0,"o":"m 392 -15 b 508 8 440 -11 479 -1 l 476 157 b 411 143 458 150 433 143 b 322 253 357 143 322 175 l 322 529 l 488 529 l 488 689 l 322 689 l 322 872 l 153 872 l 129 689 l 24 681 l 24 529 l 118 529 l 118 250 b 275 -7 118 118 163 22 l 225 -106 b 306 -164 288 -121 306 -140 b 192 -225 306 -200 257 -218 l 207 -307 b 453 -162 338 -300 453 -258 b 372 -60 453 -106 418 -75 z "},"ț":{"ha":532,"x_min":0,"x_max":0,"o":"m 118 250 b 356 -17 118 90 185 -17 b 508 8 422 -17 472 -3 l 476 157 b 411 143 458 150 433 143 b 322 253 357 143 322 175 l 322 529 l 488 529 l 488 689 l 322 689 l 322 872 l 153 872 l 129 689 l 24 681 l 24 529 l 118 529 z m 278 -58 l 239 -133 b 299 -185 279 -144 299 -158 b 183 -236 299 -217 250 -229 l 199 -318 b 446 -175 331 -311 446 -269 b 278 -58 446 -106 401 -71 z "},"ṭ":{"ha":532,"x_min":0,"x_max":0,"o":"m 118 250 b 356 -17 118 90 185 -17 b 508 8 422 -17 472 -3 l 476 157 b 411 143 458 150 433 143 b 322 253 357 143 322 175 l 322 529 l 488 529 l 488 689 l 322 689 l 322 872 l 153 872 l 129 689 l 24 681 l 24 529 l 118 529 z m 328 -314 b 440 -207 393 -314 440 -269 b 328 -100 440 -144 393 -100 b 214 -207 261 -100 214 -144 b 328 -314 214 -269 261 -314 z "},"ṯ":{"ha":532,"x_min":0,"x_max":0,"o":"m 118 250 b 356 -17 118 90 185 -17 b 508 8 422 -17 472 -3 l 476 157 b 411 143 458 150 433 143 b 322 253 357 143 322 175 l 322 529 l 488 529 l 488 689 l 322 689 l 322 872 l 153 872 l 129 689 l 24 681 l 24 529 l 118 529 z m 518 -132 l 135 -132 l 135 -262 l 518 -262 z "},"ẗ":{"ha":532,"x_min":0,"x_max":0,"o":"m 118 250 b 356 -17 118 90 185 -17 b 508 8 422 -17 472 -3 l 476 157 b 411 143 458 150 433 143 b 322 253 357 143 322 175 l 322 529 l 488 529 l 488 689 l 322 689 l 322 872 l 153 872 l 129 689 l 24 681 l 24 529 l 118 529 z m 94 988 b 192 1085 151 988 192 1029 b 94 1182 192 1139 151 1182 b -3 1085 38 1182 -3 1139 b 94 988 -3 1029 38 988 z m 369 988 b 467 1085 426 988 467 1029 b 369 1182 467 1139 426 1182 b 272 1085 313 1182 272 1139 b 369 988 272 1029 313 988 z "},"ù":{"ha":789,"x_min":0,"x_max":0,"o":"m 83 261 b 297 -17 83 89 147 -17 b 514 96 392 -17 456 26 l 518 96 l 533 0 l 700 0 l 700 689 l 496 689 l 496 233 b 374 157 456 179 425 157 b 288 288 314 157 288 189 l 288 689 l 83 689 z m 361 797 l 510 797 l 386 1006 l 189 1006 z "},"ú":{"ha":789,"x_min":0,"x_max":0,"o":"m 83 261 b 297 -17 83 89 147 -17 b 514 96 392 -17 456 26 l 518 96 l 533 0 l 700 0 l 700 689 l 496 689 l 496 233 b 374 157 456 179 425 157 b 288 288 314 157 288 189 l 288 689 l 83 689 z m 603 1006 l 406 1006 l 282 797 l 432 797 z "},"û":{"ha":789,"x_min":0,"x_max":0,"o":"m 83 261 b 297 -17 83 89 147 -17 b 514 96 392 -17 456 26 l 518 96 l 533 0 l 700 0 l 700 689 l 496 689 l 496 233 b 374 157 456 179 425 157 b 288 288 314 157 288 189 l 288 689 l 83 689 z m 182 797 l 319 797 l 393 907 l 399 907 l 472 797 l 610 797 l 478 1006 l 315 1006 z "},"ũ":{"ha":789,"x_min":0,"x_max":0,"o":"m 83 261 b 297 -17 83 89 147 -17 b 514 96 392 -17 456 26 l 518 96 l 533 0 l 700 0 l 700 689 l 496 689 l 496 233 b 374 157 456 179 425 157 b 288 288 314 157 288 189 l 288 689 l 83 689 z m 165 799 l 269 799 b 318 861 281 844 294 861 b 482 799 360 861 408 799 b 626 986 556 799 613 861 l 522 986 b 474 925 511 942 497 925 b 310 986 433 925 383 986 b 165 799 236 986 181 925 z "},"ü":{"ha":789,"x_min":0,"x_max":0,"o":"m 83 261 b 297 -17 83 89 147 -17 b 514 96 392 -17 456 26 l 518 96 l 533 0 l 700 0 l 700 689 l 496 689 l 496 233 b 374 157 456 179 425 157 b 288 288 314 157 288 189 l 288 689 l 83 689 z m 258 793 b 356 890 315 793 356 835 b 258 986 356 944 315 986 b 161 890 201 986 161 944 b 258 793 161 835 201 793 z m 533 793 b 631 890 590 793 631 835 b 533 986 631 944 590 986 b 436 890 476 986 436 944 b 533 793 436 835 476 793 z "},"ū":{"ha":789,"x_min":0,"x_max":0,"o":"m 83 261 b 297 -17 83 89 147 -17 b 514 96 392 -17 456 26 l 518 96 l 533 0 l 700 0 l 700 689 l 496 689 l 496 233 b 374 157 456 179 425 157 b 288 288 314 157 288 189 l 288 689 l 83 689 z m 203 822 l 586 822 l 586 951 l 203 951 z "},"ŭ":{"ha":789,"x_min":0,"x_max":0,"o":"m 83 261 b 297 -17 83 89 147 -17 b 514 96 392 -17 456 26 l 518 96 l 533 0 l 700 0 l 700 689 l 496 689 l 496 233 b 374 157 456 179 425 157 b 288 288 314 157 288 189 l 288 689 l 83 689 z m 396 797 b 589 990 525 797 585 890 l 475 990 b 396 910 469 946 444 910 b 317 990 347 910 322 946 l 203 990 b 396 797 207 890 267 797 z "},"ů":{"ha":789,"x_min":0,"x_max":0,"o":"m 83 261 b 297 -17 83 89 147 -17 b 514 96 392 -17 456 26 l 518 96 l 533 0 l 700 0 l 700 689 l 496 689 l 496 233 b 374 157 456 179 425 157 b 288 288 314 157 288 189 l 288 689 l 83 689 z m 396 761 b 553 903 489 761 553 817 b 396 1044 553 989 489 1044 b 239 903 303 1044 239 989 b 396 761 239 817 303 761 z m 396 838 b 339 903 364 838 339 864 b 396 968 339 942 364 968 b 453 903 428 968 453 942 b 396 838 453 864 428 838 z "},"ű":{"ha":789,"x_min":0,"x_max":0,"o":"m 83 261 b 297 -17 83 89 147 -17 b 514 96 392 -17 456 26 l 518 96 l 533 0 l 700 0 l 700 689 l 496 689 l 496 233 b 374 157 456 179 425 157 b 288 288 314 157 288 189 l 288 689 l 83 689 z m 222 796 l 347 796 l 479 1006 l 317 1006 z m 458 796 l 585 796 l 717 1006 l 554 1006 z "},"ǔ":{"ha":789,"x_min":0,"x_max":0,"o":"m 83 261 b 297 -17 83 89 147 -17 b 514 96 392 -17 456 26 l 518 96 l 533 0 l 700 0 l 700 689 l 496 689 l 496 233 b 374 157 456 179 425 157 b 288 288 314 157 288 189 l 288 689 l 83 689 z m 315 797 l 478 797 l 610 1006 l 472 1006 l 399 896 l 393 896 l 319 1006 l 182 1006 z "},"ǖ":{"ha":789,"x_min":0,"x_max":0,"o":"m 83 261 b 297 -17 83 89 147 -17 b 514 96 392 -17 456 26 l 518 96 l 533 0 l 700 0 l 700 689 l 496 689 l 496 233 b 374 157 456 179 425 157 b 288 288 314 157 288 189 l 288 689 l 83 689 z m 258 793 b 344 878 308 793 344 831 b 258 964 344 926 308 964 b 172 878 208 964 172 926 b 258 793 172 831 208 793 z m 533 793 b 619 878 583 793 619 831 b 533 964 619 926 583 964 b 447 878 483 964 447 926 b 533 793 447 831 483 793 z m 204 1050 l 588 1050 l 588 1146 l 204 1146 z "},"ǘ":{"ha":789,"x_min":0,"x_max":0,"o":"m 83 261 b 297 -17 83 89 147 -17 b 514 96 392 -17 456 26 l 518 96 l 533 0 l 700 0 l 700 689 l 496 689 l 496 233 b 374 157 456 179 425 157 b 288 288 314 157 288 189 l 288 689 l 83 689 z m 301 1024 l 432 1024 l 592 1178 l 417 1178 z m 258 793 b 344 878 308 793 344 831 b 258 964 344 926 308 964 b 172 878 208 964 172 926 b 258 793 172 831 208 793 z m 533 793 b 619 878 583 793 619 831 b 533 964 619 926 583 964 b 447 878 483 964 447 926 b 533 793 447 831 483 793 z "},"ǚ":{"ha":789,"x_min":0,"x_max":0,"o":"m 83 261 b 297 -17 83 89 147 -17 b 514 96 392 -17 456 26 l 518 96 l 533 0 l 700 0 l 700 689 l 496 689 l 496 233 b 374 157 456 179 425 157 b 288 288 314 157 288 189 l 288 689 l 83 689 z m 310 1024 l 482 1024 l 601 1178 l 463 1178 l 399 1097 l 393 1097 l 329 1178 l 192 1178 z m 258 793 b 344 878 308 793 344 831 b 258 964 344 926 308 964 b 172 878 208 964 172 926 b 258 793 172 831 208 793 z m 533 793 b 619 878 583 793 619 831 b 533 964 619 926 583 964 b 447 878 483 964 447 926 b 533 793 447 831 483 793 z "},"ǜ":{"ha":789,"x_min":0,"x_max":0,"o":"m 83 261 b 297 -17 83 89 147 -17 b 514 96 392 -17 456 26 l 518 96 l 533 0 l 700 0 l 700 689 l 496 689 l 496 233 b 374 157 456 179 425 157 b 288 288 314 157 288 189 l 288 689 l 83 689 z m 375 1178 l 200 1178 l 360 1024 l 490 1024 z m 533 793 b 619 878 583 793 619 831 b 533 964 619 926 583 964 b 447 878 483 964 447 926 b 533 793 447 831 483 793 z m 258 793 b 344 878 308 793 344 831 b 258 964 344 926 308 964 b 172 878 208 964 172 926 b 258 793 172 831 208 793 z "},"ụ":{"ha":789,"x_min":0,"x_max":0,"o":"m 83 261 b 297 -17 83 89 147 -17 b 514 96 392 -17 456 26 l 518 96 l 533 0 l 700 0 l 700 689 l 496 689 l 496 233 b 374 157 456 179 425 157 b 288 288 314 157 288 189 l 288 689 l 83 689 z m 421 -314 b 535 -207 488 -314 535 -269 b 421 -100 535 -144 488 -100 b 308 -207 354 -100 308 -144 b 421 -314 308 -269 354 -314 z "},"ủ":{"ha":789,"x_min":0,"x_max":0,"o":"m 83 261 b 297 -17 83 89 147 -17 b 514 96 392 -17 456 26 l 518 96 l 533 0 l 700 0 l 700 689 l 496 689 l 496 233 b 374 157 456 179 425 157 b 288 288 314 157 288 189 l 288 689 l 83 689 z m 347 774 b 540 917 451 781 540 822 b 307 1044 540 992 479 1039 l 283 942 b 393 896 363 938 393 922 b 332 854 393 869 365 860 z "},"ų":{"ha":789,"x_min":0,"x_max":0,"o":"m 83 261 b 297 -17 83 89 147 -17 b 514 96 392 -17 456 26 l 518 96 l 536 -3 b 440 -165 499 -28 440 -83 b 588 -292 440 -249 506 -292 b 728 -246 631 -292 693 -274 l 686 -154 b 636 -171 674 -162 654 -171 b 578 -118 607 -171 578 -154 b 700 0 578 -76 608 -28 l 700 689 l 496 689 l 496 233 b 374 157 456 179 425 157 b 288 288 314 157 288 189 l 288 689 l 83 689 z "},"ư":{"ha":789,"x_min":0,"x_max":0,"o":"m 651 839 b 672 775 661 824 672 800 b 560 689 672 703 613 692 l 496 689 l 496 233 b 374 157 456 179 425 157 b 288 288 314 157 288 189 l 288 689 l 83 689 l 83 261 b 297 -17 83 89 147 -17 b 514 96 392 -17 456 26 l 518 96 l 533 0 l 700 0 l 700 626 b 831 789 774 649 831 700 b 790 900 831 835 811 875 z "},"ứ":{"ha":789,"x_min":0,"x_max":0,"o":"m 588 1006 l 390 1006 l 267 797 l 415 797 z m 651 839 b 672 775 661 824 672 800 b 560 689 672 703 613 692 l 496 689 l 496 233 b 374 157 456 179 425 157 b 288 288 314 157 288 189 l 288 689 l 83 689 l 83 261 b 297 -17 83 89 147 -17 b 514 96 392 -17 456 26 l 518 96 l 533 0 l 700 0 l 700 626 b 831 789 774 649 831 700 b 790 900 831 835 811 875 z "},"ừ":{"ha":789,"x_min":0,"x_max":0,"o":"m 493 797 l 371 1006 l 174 1006 l 344 797 z m 651 839 b 672 775 661 824 672 800 b 560 689 672 703 613 692 l 496 689 l 496 233 b 374 157 456 179 425 157 b 288 288 314 157 288 189 l 288 689 l 83 689 l 83 261 b 297 -17 83 89 147 -17 b 514 96 392 -17 456 26 l 518 96 l 533 0 l 700 0 l 700 626 b 831 789 774 649 831 700 b 790 900 831 835 811 875 z "},"ử":{"ha":789,"x_min":0,"x_max":0,"o":"m 332 774 b 525 917 436 781 525 822 b 290 1044 525 992 463 1039 l 268 942 b 378 896 347 938 378 922 b 315 854 378 869 350 860 z m 651 839 b 672 775 661 824 672 800 b 560 689 672 703 613 692 l 496 689 l 496 233 b 374 157 456 179 425 157 b 288 288 314 157 288 189 l 288 689 l 83 689 l 83 261 b 297 -17 83 89 147 -17 b 514 96 392 -17 456 26 l 518 96 l 533 0 l 700 0 l 700 626 b 831 789 774 649 831 700 b 790 900 831 835 811 875 z "},"ữ":{"ha":789,"x_min":0,"x_max":0,"o":"m 507 986 b 458 925 496 942 482 925 b 294 986 418 925 368 986 b 150 799 221 986 164 925 l 254 799 b 303 861 264 844 279 861 b 467 799 343 861 393 799 b 611 986 540 799 596 861 z m 651 839 b 672 775 661 824 672 800 b 560 689 672 703 613 692 l 496 689 l 496 233 b 374 157 456 179 425 157 b 288 288 314 157 288 189 l 288 689 l 83 689 l 83 261 b 297 -17 83 89 147 -17 b 514 96 392 -17 456 26 l 518 96 l 533 0 l 700 0 l 700 626 b 831 789 774 649 831 700 b 790 900 831 835 811 875 z "},"ự":{"ha":789,"x_min":0,"x_max":0,"o":"m 406 -100 b 293 -207 339 -100 293 -144 b 406 -314 293 -269 339 -314 b 518 -207 472 -314 518 -269 b 406 -100 518 -144 472 -100 z m 651 839 b 672 775 661 824 672 800 b 560 689 672 703 613 692 l 496 689 l 496 233 b 374 157 456 179 425 157 b 288 288 314 157 288 189 l 288 689 l 83 689 l 83 261 b 297 -17 83 89 147 -17 b 514 96 392 -17 456 26 l 518 96 l 533 0 l 700 0 l 700 626 b 831 789 774 649 831 700 b 790 900 831 835 811 875 z "},"ẁ":{"ha":1078,"x_min":0,"x_max":0,"o":"m 206 0 l 439 0 l 500 275 b 535 476 513 339 522 403 l 540 476 b 578 275 553 403 564 339 l 640 0 l 879 0 l 1044 689 l 856 689 l 790 369 b 758 165 778 301 771 235 l 753 165 b 710 369 739 235 726 301 l 632 689 l 456 689 l 379 369 b 339 165 363 304 351 235 l 333 165 b 303 369 322 235 314 301 l 236 689 l 33 689 z m 504 797 l 654 797 l 531 1006 l 333 1006 z "},"ẃ":{"ha":1078,"x_min":0,"x_max":0,"o":"m 206 0 l 439 0 l 500 275 b 535 476 513 339 522 403 l 540 476 b 578 275 553 403 564 339 l 640 0 l 879 0 l 1044 689 l 856 689 l 790 369 b 758 165 778 301 771 235 l 753 165 b 710 369 739 235 726 301 l 632 689 l 456 689 l 379 369 b 339 165 363 304 351 235 l 333 165 b 303 369 322 235 314 301 l 236 689 l 33 689 z m 747 1006 l 550 1006 l 426 797 l 575 797 z "},"ŵ":{"ha":1078,"x_min":0,"x_max":0,"o":"m 206 0 l 439 0 l 500 275 b 535 476 513 339 522 403 l 540 476 b 578 275 553 403 564 339 l 640 0 l 879 0 l 1044 689 l 856 689 l 790 369 b 758 165 778 301 771 235 l 753 165 b 710 369 739 235 726 301 l 632 689 l 456 689 l 379 369 b 339 165 363 304 351 235 l 333 165 b 303 369 322 235 314 301 l 236 689 l 33 689 z m 326 797 l 464 797 l 538 907 l 543 907 l 617 797 l 754 797 l 621 1006 l 458 1006 z "},"ẅ":{"ha":1078,"x_min":0,"x_max":0,"o":"m 206 0 l 439 0 l 500 275 b 535 476 513 339 522 403 l 540 476 b 578 275 553 403 564 339 l 640 0 l 879 0 l 1044 689 l 856 689 l 790 369 b 758 165 778 301 771 235 l 753 165 b 710 369 739 235 726 301 l 632 689 l 456 689 l 379 369 b 339 165 363 304 351 235 l 333 165 b 303 369 322 235 314 301 l 236 689 l 33 689 z m 403 793 b 500 890 460 793 500 835 b 403 986 500 944 460 986 b 306 890 346 986 306 944 b 403 793 306 835 346 793 z m 678 793 b 775 890 735 793 775 835 b 678 986 775 944 735 986 b 581 890 621 986 581 944 b 678 793 581 835 621 793 z "},"ỳ":{"ha":724,"x_min":0,"x_max":0,"o":"m 106 -100 l 69 -256 b 167 -269 97 -264 125 -269 b 468 -7 329 -269 403 -181 l 707 689 l 511 689 l 428 393 b 381 197 411 328 396 263 l 375 197 b 321 393 357 265 340 331 l 222 689 l 17 689 l 282 18 l 272 -18 b 151 -108 254 -72 219 -108 b 106 -100 136 -108 118 -103 z m 335 797 l 485 797 l 361 1006 l 164 1006 z "},"ý":{"ha":724,"x_min":0,"x_max":0,"o":"m 106 -100 l 69 -256 b 167 -269 97 -264 125 -269 b 468 -7 329 -269 403 -181 l 707 689 l 511 689 l 428 393 b 381 197 411 328 396 263 l 375 197 b 321 393 357 265 340 331 l 222 689 l 17 689 l 282 18 l 272 -18 b 151 -108 254 -72 219 -108 b 106 -100 136 -108 118 -103 z m 578 1006 l 381 1006 l 257 797 l 406 797 z "},"ŷ":{"ha":724,"x_min":0,"x_max":0,"o":"m 106 -100 l 69 -256 b 167 -269 97 -264 125 -269 b 468 -7 329 -269 403 -181 l 707 689 l 511 689 l 428 393 b 381 197 411 328 396 263 l 375 197 b 321 393 357 265 340 331 l 222 689 l 17 689 l 282 18 l 272 -18 b 151 -108 254 -72 219 -108 b 106 -100 136 -108 118 -103 z m 157 797 l 294 797 l 368 907 l 374 907 l 447 797 l 585 797 l 451 1006 l 289 1006 z "},"ÿ":{"ha":724,"x_min":0,"x_max":0,"o":"m 106 -100 l 69 -256 b 167 -269 97 -264 125 -269 b 468 -7 329 -269 403 -181 l 707 689 l 511 689 l 428 393 b 381 197 411 328 396 263 l 375 197 b 321 393 357 265 340 331 l 222 689 l 17 689 l 282 18 l 272 -18 b 151 -108 254 -72 219 -108 b 106 -100 136 -108 118 -103 z m 233 793 b 331 890 290 793 331 835 b 233 986 331 944 290 986 b 136 890 176 986 136 944 b 233 793 136 835 176 793 z m 508 793 b 606 890 565 793 606 835 b 508 986 606 944 565 986 b 411 890 451 986 411 944 b 508 793 411 835 451 793 z "},"ẏ":{"ha":724,"x_min":0,"x_max":0,"o":"m 106 -100 l 69 -256 b 167 -269 97 -264 125 -269 b 468 -7 329 -269 403 -181 l 707 689 l 511 689 l 428 393 b 381 197 411 328 396 263 l 375 197 b 321 393 357 265 340 331 l 222 689 l 17 689 l 282 18 l 272 -18 b 151 -108 254 -72 219 -108 b 106 -100 136 -108 118 -103 z m 371 790 b 483 897 438 790 483 835 b 371 1004 483 960 438 1004 b 257 897 304 1004 257 960 b 371 790 257 835 304 790 z "},"ỵ":{"ha":724,"x_min":0,"x_max":0,"o":"m 106 -100 l 69 -256 b 167 -269 97 -264 125 -269 b 468 -7 329 -269 403 -181 l 707 689 l 511 689 l 428 393 b 381 197 411 328 396 263 l 375 197 b 321 393 357 265 340 331 l 222 689 l 17 689 l 282 18 l 272 -18 b 151 -108 254 -72 219 -108 b 106 -100 136 -108 118 -103 z m 621 -303 b 733 -196 688 -303 733 -258 b 621 -89 733 -133 688 -89 b 507 -196 554 -89 507 -133 b 621 -303 507 -258 554 -303 z "},"ỷ":{"ha":724,"x_min":0,"x_max":0,"o":"m 106 -100 l 69 -256 b 167 -269 97 -264 125 -269 b 468 -7 329 -269 403 -181 l 707 689 l 511 689 l 428 393 b 381 197 411 328 396 263 l 375 197 b 321 393 357 265 340 331 l 222 689 l 17 689 l 282 18 l 272 -18 b 151 -108 254 -72 219 -108 b 106 -100 136 -108 118 -103 z m 322 774 b 515 917 426 781 515 822 b 281 1044 515 992 453 1039 l 258 942 b 368 896 338 938 368 922 b 306 854 368 869 340 860 z "},"ỹ":{"ha":724,"x_min":0,"x_max":0,"o":"m 106 -100 l 69 -256 b 167 -269 97 -264 125 -269 b 468 -7 329 -269 403 -181 l 707 689 l 511 689 l 428 393 b 381 197 411 328 396 263 l 375 197 b 321 393 357 265 340 331 l 222 689 l 17 689 l 282 18 l 272 -18 b 151 -108 254 -72 219 -108 b 106 -100 136 -108 118 -103 z m 140 799 l 244 799 b 293 861 254 844 269 861 b 457 799 333 861 383 799 b 601 986 531 799 586 861 l 497 986 b 449 925 486 942 472 925 b 285 986 408 925 358 986 b 140 799 211 986 154 925 z "},"ź":{"ha":639,"x_min":0,"x_max":0,"o":"m 53 0 l 606 0 l 606 160 l 307 160 l 596 581 l 596 689 l 85 689 l 85 529 l 342 529 l 53 110 z m 549 1006 l 351 1006 l 228 797 l 376 797 z "},"ž":{"ha":639,"x_min":0,"x_max":0,"o":"m 53 0 l 606 0 l 606 160 l 307 160 l 596 581 l 596 689 l 85 689 l 85 529 l 342 529 l 53 110 z m 260 797 l 422 797 l 556 1006 l 418 1006 l 343 896 l 338 896 l 264 1006 l 126 1006 z "},"ż":{"ha":639,"x_min":0,"x_max":0,"o":"m 53 0 l 606 0 l 606 160 l 307 160 l 596 581 l 596 689 l 85 689 l 85 529 l 342 529 l 53 110 z m 340 790 b 454 897 407 790 454 835 b 340 1004 454 960 407 1004 b 228 897 275 1004 228 960 b 340 790 228 835 275 790 z "},"ẓ":{"ha":639,"x_min":0,"x_max":0,"o":"m 53 0 l 606 0 l 606 160 l 307 160 l 596 581 l 596 689 l 85 689 l 85 529 l 342 529 l 53 110 z m 340 -314 b 454 -207 407 -314 454 -269 b 340 -100 454 -144 407 -100 b 228 -207 275 -100 228 -144 b 340 -314 228 -269 275 -314 z "},"ð":{"ha":778,"x_min":0,"x_max":0,"o":"m 386 149 b 244 317 310 149 244 207 b 382 481 244 428 301 481 b 517 421 429 481 475 467 b 518 358 518 400 518 381 b 386 149 518 215 464 149 z m 688 919 l 635 1010 l 436 910 b 244 1028 375 956 310 994 l 156 904 b 281 831 201 881 243 857 l 119 750 l 172 660 l 369 758 b 488 574 424 707 463 647 b 340 632 449 615 394 632 b 58 317 196 632 58 515 b 379 -17 58 113 207 -17 b 708 369 583 -17 708 146 b 521 835 708 576 631 724 z "},"þ":{"ha":796,"x_min":0,"x_max":0,"o":"m 294 -54 l 289 49 b 451 -17 336 7 385 -17 b 742 356 600 -17 742 119 b 461 706 742 568 635 706 b 289 638 399 706 338 679 l 294 735 l 294 974 l 90 974 l 90 -256 l 294 -256 z m 294 194 l 294 476 b 413 539 335 519 371 539 b 532 353 494 539 532 476 b 404 150 532 211 475 150 b 294 194 369 150 331 161 z "},"ȷ":{"ha":386,"x_min":0,"x_max":0,"o":"m 92 -1 b 19 -112 92 -78 74 -112 b -35 -103 0 -112 -17 -108 l -71 -253 b 50 -272 -43 -264 -7 -272 b 296 4 238 -272 296 -146 l 296 689 l 92 689 z "},"ɑ":{"ha":796,"x_min":0,"x_max":0,"o":"m 264 347 b 388 539 264 478 322 539 b 501 494 425 539 465 528 l 501 213 b 389 150 468 167 433 150 b 264 347 310 150 264 211 z m 54 344 b 336 -17 54 119 165 -17 b 519 68 403 -17 471 19 l 525 68 l 539 0 l 706 0 l 706 689 l 546 689 l 529 621 l 524 621 b 344 706 469 679 414 706 b 54 344 200 706 54 569 z "},"ə":{"ha":719,"x_min":0,"x_max":0,"o":"m 50 317 b 346 -17 50 126 150 -17 b 669 344 518 -17 669 121 b 347 706 669 569 529 706 b 94 628 261 706 169 676 l 163 504 b 313 550 211 533 260 550 b 471 403 399 550 456 504 l 58 403 b 50 317 56 386 50 353 z m 225 276 l 474 276 b 342 139 460 179 408 139 b 225 276 260 139 225 193 z "},"ɡ":{"ha":810,"x_min":0,"x_max":0,"o":"m 172 -58 l 106 -193 b 363 -269 185 -244 288 -269 b 713 7 586 -269 713 -172 l 713 689 l 549 689 l 533 625 l 528 625 b 351 706 476 682 421 706 b 61 357 207 706 61 568 b 343 18 61 158 172 18 b 514 88 407 18 468 46 l 508 1 b 363 -110 501 -64 464 -110 b 172 -58 307 -110 238 -94 z m 396 182 b 268 360 317 182 268 246 b 394 539 268 475 326 539 b 508 494 432 539 472 528 l 508 247 b 396 182 472 199 440 182 z "},"ﬀ":{"ha":911,"x_min":0,"x_max":0,"o":"m 954 965 b 817 990 924 976 875 990 b 564 725 632 990 564 871 l 564 689 l 329 689 l 329 721 b 411 815 329 786 364 815 b 492 800 449 815 469 810 l 529 951 b 386 976 497 964 444 976 b 125 719 199 976 125 861 l 125 688 l 33 681 l 33 529 l 125 529 l 125 0 l 329 0 l 329 529 l 564 529 l 564 0 l 768 0 l 768 529 l 892 529 l 892 689 l 768 689 l 768 731 b 847 829 768 801 797 829 b 918 815 869 829 894 824 z "},"ﬁ":{"ha":882,"x_min":0,"x_max":0,"o":"m 125 688 l 33 681 l 33 529 l 125 529 l 125 0 l 329 0 l 329 529 l 453 529 l 453 689 l 329 689 l 329 731 b 408 829 329 801 358 829 b 479 815 431 829 456 824 l 517 965 b 379 990 486 976 436 990 b 125 725 193 990 125 871 z m 690 790 b 808 897 760 790 808 835 b 690 1003 808 960 760 1003 b 572 897 622 1003 572 960 b 690 790 572 835 622 790 z m 589 0 l 793 0 l 793 689 l 589 689 z "},"ﬂ":{"ha":871,"x_min":0,"x_max":0,"o":"m 125 688 l 33 681 l 33 529 l 125 529 l 125 0 l 329 0 l 329 529 l 453 529 l 453 689 l 329 689 l 329 731 b 408 829 329 801 358 829 b 479 815 431 829 456 824 l 517 965 b 379 990 486 976 436 990 b 125 725 193 990 125 871 z m 829 151 b 804 149 818 149 813 149 b 768 206 788 149 768 163 l 768 974 l 564 974 l 564 214 b 751 -17 564 75 611 -17 b 854 0 797 -17 832 -10 z "},"&":{"ha":926,"x_min":0,"x_max":0,"o":"m 228 254 b 289 363 228 296 253 331 b 478 175 342 296 407 232 b 363 139 439 151 400 139 b 228 254 282 139 228 186 z m 313 686 b 394 788 313 749 349 788 b 457 717 438 788 457 760 b 342 578 457 656 407 617 b 313 686 324 615 313 653 z m 901 149 b 744 206 856 156 801 176 b 896 511 814 300 863 401 l 710 511 b 606 294 688 426 651 354 b 424 460 539 343 475 400 b 613 717 518 524 613 599 b 390 922 613 842 526 922 b 144 685 239 922 144 814 b 200 497 144 628 165 563 b 35 242 111 440 35 368 b 336 -17 35 103 139 -17 b 621 75 450 -17 544 18 b 853 -17 699 31 778 -1 z "},".":{"ha":417,"x_min":0,"x_max":0,"o":"m 85 111 b 208 -17 85 39 138 -17 b 332 111 279 -17 332 39 b 208 240 332 185 279 240 b 85 111 138 240 85 185 z "},",":{"ha":417,"x_min":0,"x_max":0,"o":"m 106 -269 b 356 47 268 -221 356 -106 b 214 240 356 168 306 240 b 86 124 143 240 86 194 b 210 8 86 50 144 8 b 221 8 214 8 217 8 b 64 -161 221 -62 165 -125 z "},":":{"ha":417,"x_min":0,"x_max":0,"o":"m 85 561 b 208 433 85 489 138 433 b 332 561 279 433 332 489 b 208 690 332 635 279 690 b 85 561 138 690 85 635 z m 85 111 b 208 -17 85 39 138 -17 b 332 111 279 -17 332 39 b 208 240 332 185 279 240 b 85 111 138 240 85 185 z "},";":{"ha":417,"x_min":0,"x_max":0,"o":"m 208 433 b 332 561 279 433 332 489 b 208 690 332 635 279 690 b 85 561 138 690 85 635 b 208 433 85 489 138 433 z m 106 -269 b 356 47 268 -221 356 -106 b 214 240 356 168 306 240 b 86 124 143 240 86 194 b 210 8 86 50 144 8 b 221 8 214 8 217 8 b 64 -161 221 -62 165 -125 z "},"…":{"ha":1358,"x_min":0,"x_max":0,"o":"m 107 111 b 229 -17 107 39 158 -17 b 353 111 300 -17 353 39 b 229 240 353 185 300 240 b 107 111 158 240 107 185 z m 567 111 b 690 -17 567 39 619 -17 b 814 111 761 -17 814 39 b 690 240 814 185 761 240 b 567 111 619 240 567 185 z m 1028 111 b 1150 -17 1028 39 1079 -17 b 1274 111 1221 -17 1274 39 b 1150 240 1274 185 1221 240 b 1028 111 1079 240 1028 185 z "},"!":{"ha":472,"x_min":0,"x_max":0,"o":"m 169 321 l 303 321 l 332 746 l 339 931 l 133 931 l 140 746 z m 113 111 b 236 -17 113 39 165 -17 b 360 111 307 -17 360 39 b 236 240 360 185 307 240 b 113 111 165 240 113 185 z "},"¡":{"ha":472,"x_min":0,"x_max":0,"o":"m 303 368 l 169 368 l 140 -57 l 133 -242 l 339 -242 l 332 -57 z m 360 578 b 236 706 360 650 307 706 b 113 578 165 706 113 650 b 236 449 113 504 165 449 b 360 578 307 449 360 504 z "},"?":{"ha":643,"x_min":0,"x_max":0,"o":"m 214 321 l 393 321 b 585 710 376 486 585 538 b 310 947 585 874 467 947 b 57 821 207 947 119 896 l 169 718 b 296 782 207 756 244 782 b 389 694 351 782 389 751 b 214 321 389 590 186 511 z m 181 111 b 303 -17 181 39 232 -17 b 426 111 374 -17 426 39 b 303 240 426 185 374 240 b 181 111 232 240 181 185 z "},"¿":{"ha":643,"x_min":0,"x_max":0,"o":"m 429 368 l 251 368 b 58 -19 267 204 58 151 b 333 -258 58 -185 176 -258 b 586 -132 436 -258 524 -207 l 474 -29 b 347 -93 436 -67 399 -93 b 254 -6 293 -93 254 -62 b 429 368 254 99 457 178 z m 464 578 b 340 706 464 650 411 706 b 217 578 269 706 217 650 b 340 449 217 504 269 449 b 464 578 411 449 464 504 z "},"'":{"ha":417,"x_min":0,"x_max":0,"o":"m 153 492 l 264 492 l 304 768 l 311 953 l 106 953 l 113 768 z "},"\"":{"ha":746,"x_min":0,"x_max":0,"o":"m 153 492 l 264 492 l 304 768 l 311 953 l 106 953 l 113 768 z m 482 492 l 593 492 l 633 768 l 640 953 l 435 953 l 440 768 z "},"‘":{"ha":417,"x_min":0,"x_max":0,"o":"m 274 949 b 76 651 140 883 76 782 b 207 469 76 538 121 469 b 314 583 268 469 314 514 b 207 685 314 646 265 685 b 193 683 203 685 197 685 b 318 860 193 767 235 818 z "},"’":{"ha":417,"x_min":0,"x_max":0,"o":"m 143 489 b 342 786 276 554 342 656 b 211 968 342 901 296 968 b 104 854 149 968 104 924 b 211 753 104 792 151 753 b 224 754 215 753 219 753 b 99 578 224 671 182 619 z "},"“":{"ha":746,"x_min":0,"x_max":0,"o":"m 274 949 b 76 651 140 883 76 782 b 207 469 76 538 121 469 b 314 583 268 469 314 514 b 207 685 314 646 265 685 b 193 683 203 685 197 685 b 318 860 193 767 235 818 z m 603 949 b 404 651 469 883 404 782 b 536 469 404 538 450 469 b 642 583 597 469 642 514 b 536 685 642 646 594 685 b 522 683 532 685 526 685 b 647 860 522 767 564 818 z "},"”":{"ha":746,"x_min":0,"x_max":0,"o":"m 143 489 b 342 786 276 554 342 656 b 211 968 342 901 296 968 b 104 854 149 968 104 924 b 211 753 104 792 151 753 b 224 754 215 753 219 753 b 99 578 224 671 182 619 z m 472 489 b 669 786 606 554 669 656 b 539 968 669 901 625 968 b 432 854 478 968 432 924 b 539 753 432 792 481 753 b 553 754 543 753 549 753 b 428 578 553 671 511 619 z "},"‚":{"ha":417,"x_min":0,"x_max":0,"o":"m 143 -235 b 342 63 276 -169 342 -68 b 211 244 342 178 296 244 b 104 131 149 244 104 200 b 211 29 104 68 151 29 b 224 31 215 29 219 29 b 99 -146 224 -53 182 -104 z "},"„":{"ha":746,"x_min":0,"x_max":0,"o":"m 143 -235 b 342 63 276 -169 342 -68 b 211 244 342 178 296 244 b 104 131 149 244 104 200 b 211 29 104 68 151 29 b 224 31 215 29 219 29 b 99 -146 224 -53 182 -104 z m 472 -235 b 669 63 606 -169 669 -68 b 539 244 669 178 625 244 b 432 131 478 244 432 200 b 539 29 432 68 481 29 b 553 31 543 29 549 29 b 428 -146 553 -53 511 -104 z "},"‹":{"ha":406,"x_min":0,"x_max":0,"o":"m 254 78 l 331 139 l 176 350 l 331 561 l 254 622 l 68 422 l 68 278 z "},"›":{"ha":406,"x_min":0,"x_max":0,"o":"m 75 139 l 151 78 l 338 278 l 338 422 l 151 622 l 75 561 l 229 350 z "},"«":{"ha":667,"x_min":0,"x_max":0,"o":"m 254 78 l 331 139 l 176 350 l 331 561 l 254 622 l 68 422 l 68 278 z m 517 78 l 592 139 l 438 350 l 592 561 l 517 622 l 329 422 l 329 278 z "},"»":{"ha":667,"x_min":0,"x_max":0,"o":"m 75 139 l 151 78 l 338 278 l 338 422 l 151 622 l 75 561 l 229 350 z m 336 139 l 413 78 l 600 278 l 600 422 l 413 622 l 336 561 l 490 350 z "},"-":{"ha":461,"x_min":0,"x_max":0,"o":"m 60 279 l 401 279 l 401 424 l 60 424 z "},"­":{"ha":461,"x_min":0,"x_max":0,"o":"m 60 279 l 401 279 l 401 424 l 60 424 z "},"–":{"ha":667,"x_min":0,"x_max":0,"o":"m 60 286 l 607 286 l 607 417 l 60 417 z "},"—":{"ha":1111,"x_min":0,"x_max":0,"o":"m 60 286 l 1051 286 l 1051 417 l 60 417 z "},"‒":{"ha":733,"x_min":0,"x_max":0,"o":"m 60 286 l 674 286 l 674 417 l 60 417 z "},"―":{"ha":1111,"x_min":0,"x_max":0,"o":"m 60 286 l 1051 286 l 1051 417 l 60 417 z "},"·":{"ha":417,"x_min":0,"x_max":0,"o":"m 85 444 b 208 317 85 372 138 317 b 332 444 279 317 332 372 b 208 574 332 518 279 574 b 85 444 138 574 85 518 z "},"•":{"ha":479,"x_min":0,"x_max":0,"o":"m 239 171 b 424 364 343 171 424 254 b 239 557 424 475 343 557 b 56 364 136 557 56 475 b 239 171 56 254 136 171 z "},"_":{"ha":694,"x_min":0,"x_max":0,"o":"m 17 -79 l 17 -194 l 678 -194 l 678 -79 z "},"(":{"ha":478,"x_min":0,"x_max":0,"o":"m 283 -249 l 411 -196 b 265 386 310 -15 265 189 b 411 968 265 583 310 788 l 283 1021 b 100 386 167 831 100 631 b 283 -249 100 142 167 -58 z "},")":{"ha":478,"x_min":0,"x_max":0,"o":"m 67 -196 l 194 -249 b 378 386 311 -58 378 142 b 194 1021 378 631 311 831 l 67 968 b 214 386 169 788 214 583 b 67 -196 214 189 169 -15 z "},"[":{"ha":478,"x_min":0,"x_max":0,"o":"m 121 -211 l 414 -211 l 414 -103 l 274 -103 l 274 875 l 414 875 l 414 983 l 121 983 z "},"]":{"ha":478,"x_min":0,"x_max":0,"o":"m 64 -103 l 64 -211 l 357 -211 l 357 983 l 64 983 l 64 875 l 206 875 l 206 -103 z "},"{":{"ha":478,"x_min":0,"x_max":0,"o":"m 149 -14 b 326 -211 149 -164 204 -211 l 414 -211 l 414 -103 l 388 -103 b 314 -6 331 -103 314 -82 b 319 221 314 69 319 136 b 217 383 319 326 286 367 l 217 389 b 319 551 286 406 319 446 b 314 778 319 633 314 704 b 388 875 314 854 331 875 l 414 875 l 414 983 l 326 983 b 149 786 204 983 149 935 b 163 549 149 689 163 635 b 43 446 163 500 133 449 l 43 326 b 163 224 133 324 163 272 b 149 -14 163 136 149 85 z "},"}":{"ha":478,"x_min":0,"x_max":0,"o":"m 64 -103 l 64 -211 l 151 -211 b 329 -14 274 -211 329 -164 b 315 224 329 85 315 136 b 435 326 315 272 344 324 l 435 446 b 315 549 344 449 315 500 b 329 786 315 635 329 689 b 151 983 329 935 274 983 l 64 983 l 64 875 l 90 875 b 164 778 149 875 164 854 b 158 551 164 704 158 633 b 261 389 158 446 192 406 l 261 383 b 158 221 192 367 158 326 b 164 -6 158 136 164 69 b 90 -103 164 -82 149 -103 z "},"/":{"ha":471,"x_min":0,"x_max":0,"o":"m 18 -222 l 151 -222 l 431 986 l 297 986 z "},"|":{"ha":372,"x_min":0,"x_max":0,"o":"m 119 -347 l 253 -347 l 253 1042 l 119 1042 z "},"\\":{"ha":471,"x_min":0,"x_max":0,"o":"m 318 -222 l 453 -222 l 172 986 l 39 986 z "},"¦":{"ha":372,"x_min":0,"x_max":0,"o":"m 119 433 l 253 433 l 253 1042 l 119 1042 z m 119 283 l 119 -347 l 253 -347 l 253 283 z "},"*":{"ha":635,"x_min":0,"x_max":0,"o":"m 206 485 l 318 608 l 429 485 l 514 546 l 432 690 l 582 758 l 549 858 l 389 824 l 371 989 l 264 989 l 246 825 l 85 858 l 53 758 l 203 690 l 121 546 z "},"†":{"ha":708,"x_min":0,"x_max":0,"o":"m 272 -111 l 436 -111 l 424 608 l 647 597 l 647 761 l 424 749 l 436 989 l 272 989 l 285 749 l 61 761 l 61 597 l 285 608 z "},"‡":{"ha":708,"x_min":0,"x_max":0,"o":"m 61 117 l 285 129 l 272 -111 l 436 -111 l 424 129 l 647 117 l 647 281 l 424 264 l 436 439 l 424 614 l 647 597 l 647 761 l 424 749 l 436 989 l 272 989 l 285 749 l 61 761 l 61 597 l 285 614 l 272 439 l 285 264 l 61 281 z "},"§":{"ha":733,"x_min":0,"x_max":0,"o":"m 224 468 b 272 549 224 501 240 528 b 510 378 381 493 510 465 b 463 296 510 340 494 315 b 224 468 356 353 224 381 z m 619 868 b 369 958 563 913 476 958 b 122 746 214 958 122 871 b 163 631 122 697 138 660 b 51 453 94 589 51 522 b 417 93 51 192 417 201 b 333 33 417 58 390 33 b 182 104 279 33 226 58 l 64 0 b 333 -117 126 -79 232 -117 b 600 103 507 -117 600 -22 b 568 210 600 146 588 181 b 682 394 640 254 682 314 b 306 753 682 646 306 654 b 381 807 306 788 331 807 b 526 740 429 807 483 778 z "},"¶":{"ha":883,"x_min":0,"x_max":0,"o":"m 546 -111 l 750 -111 l 750 906 l 546 906 z m 413 274 l 468 274 l 468 906 l 407 906 b 54 596 214 906 54 829 b 413 274 54 383 215 274 z "},"©":{"ha":1042,"x_min":0,"x_max":0,"o":"m 63 451 b 521 -12 63 164 275 -12 b 978 451 767 -12 978 164 b 521 910 978 738 767 910 b 63 451 275 910 63 739 z m 157 451 b 521 826 157 679 317 826 b 885 451 725 826 885 679 b 521 72 885 224 725 72 b 157 451 317 72 157 224 z m 269 450 b 538 176 269 282 382 176 b 721 249 610 176 668 207 l 654 343 b 543 296 619 315 589 296 b 415 450 465 296 415 356 b 550 597 415 532 463 597 b 644 550 588 597 615 581 l 721 635 b 538 717 676 679 622 717 b 269 450 397 717 269 613 z "},"℗":{"ha":1042,"x_min":0,"x_max":0,"o":"m 332 193 l 479 193 l 479 319 l 533 319 b 772 519 663 319 772 382 b 533 700 772 653 667 700 l 332 700 z m 479 425 l 479 590 l 522 590 b 628 514 590 590 628 568 b 522 425 628 453 593 425 z m 63 451 b 521 -12 63 164 275 -12 b 978 451 767 -12 978 164 b 521 910 978 738 767 910 b 63 451 275 910 63 739 z m 157 451 b 521 826 157 679 317 826 b 885 451 725 826 885 679 b 521 72 885 224 725 72 b 157 451 317 72 157 224 z "},"®":{"ha":642,"x_min":0,"x_max":0,"o":"m 321 432 b 596 713 472 432 596 549 b 321 993 596 876 472 993 b 44 713 168 993 44 876 b 321 432 44 549 168 432 z m 321 500 b 121 713 204 500 121 583 b 321 925 121 842 204 925 b 519 713 438 925 519 842 b 321 500 519 583 438 500 z m 208 578 l 288 578 l 288 661 l 328 661 l 369 578 l 453 578 l 396 685 b 444 760 428 700 444 728 b 332 851 444 822 396 851 l 208 851 z m 288 717 l 288 792 l 317 792 b 358 756 344 792 358 775 b 317 717 358 735 344 717 z "},"™":{"ha":947,"x_min":0,"x_max":0,"o":"m 439 503 l 568 503 l 568 636 l 553 796 l 558 796 l 632 567 l 722 567 l 796 796 l 801 796 l 786 636 l 786 503 l 915 503 l 915 939 l 760 939 l 708 814 l 679 721 l 674 721 l 646 814 l 593 939 l 439 939 z m 126 503 l 258 503 l 258 818 l 379 818 l 379 939 l 6 939 l 6 818 l 126 818 z "},"℠":{"ha":947,"x_min":0,"x_max":0,"o":"m 194 486 b 367 629 300 486 367 556 b 276 757 367 699 333 735 l 218 782 b 167 822 185 796 167 804 b 207 853 167 839 178 853 b 303 814 238 853 274 833 l 365 899 b 214 954 325 929 272 954 b 47 815 111 954 47 890 b 133 686 47 744 86 708 l 193 660 b 244 615 225 644 244 638 b 204 586 244 596 231 586 b 93 638 165 586 125 608 l 25 554 b 194 486 76 508 133 486 z m 439 503 l 568 503 l 568 636 l 553 796 l 558 796 l 632 567 l 722 567 l 796 796 l 801 796 l 786 636 l 786 503 l 915 503 l 915 939 l 760 939 l 708 814 l 679 721 l 674 721 l 646 814 l 593 939 l 439 939 z "},"@":{"ha":1254,"x_min":0,"x_max":0,"o":"m 68 285 b 594 -239 68 -69 317 -239 b 867 -172 693 -239 782 -218 l 822 -61 b 611 -115 764 -92 683 -115 b 206 290 394 -115 206 17 b 678 806 206 603 440 806 b 1057 429 950 806 1057 628 b 892 179 1057 276 975 179 b 828 299 829 179 808 218 l 892 604 l 765 604 l 746 546 l 743 546 b 638 615 719 596 683 615 b 357 275 478 615 357 444 b 540 67 357 147 431 67 b 707 158 597 67 668 104 l 710 158 b 869 53 725 92 790 53 b 1186 435 1015 53 1186 181 b 694 929 1186 725 994 929 b 68 285 353 929 68 674 z m 511 288 b 644 485 511 371 561 485 b 708 444 672 485 694 471 l 675 257 b 583 194 640 211 613 194 b 511 288 538 194 511 225 z "},"#":{"ha":733,"x_min":0,"x_max":0,"o":"m 119 0 l 238 0 l 269 260 l 413 260 l 382 0 l 500 0 l 532 260 l 664 260 l 664 390 l 547 390 l 565 543 l 692 543 l 692 674 l 582 674 l 610 903 l 493 903 l 464 674 l 319 674 l 347 903 l 231 903 l 201 674 l 75 674 l 75 543 l 185 543 l 165 390 l 47 390 l 47 260 l 150 260 z m 285 390 l 303 543 l 447 543 l 428 390 z "},"⁰":{"ha":522,"x_min":0,"x_max":0,"o":"m 261 594 b 488 883 392 594 488 701 b 261 1169 488 1064 392 1169 b 36 883 131 1169 36 1064 b 261 594 36 701 131 594 z m 261 708 b 178 883 215 708 178 754 b 261 1056 178 1013 215 1056 b 344 883 307 1056 344 1013 b 261 708 344 754 307 708 z "},"¹":{"ha":522,"x_min":0,"x_max":0,"o":"m 229 611 l 381 611 l 381 1153 l 261 1153 b 106 1093 215 1121 181 1104 l 106 1001 l 229 1001 z "},"²":{"ha":522,"x_min":0,"x_max":0,"o":"m 63 611 l 464 611 l 464 736 l 300 736 b 444 986 376 821 444 899 b 244 1169 444 1103 364 1169 b 38 1058 161 1169 93 1132 l 122 981 b 221 1046 153 1021 185 1046 b 300 961 271 1046 300 1014 b 63 692 300 893 201 806 z "},"³":{"ha":522,"x_min":0,"x_max":0,"o":"m 38 704 b 258 594 85 633 164 594 b 468 763 369 594 468 663 b 369 893 468 826 425 871 b 449 1018 419 922 449 961 b 260 1169 449 1113 360 1169 b 60 1076 175 1169 119 1140 l 144 1001 b 233 1056 169 1032 199 1056 b 301 997 275 1056 301 1033 b 192 931 301 951 258 931 l 192 844 b 321 774 279 844 321 821 b 243 708 321 732 286 708 b 128 775 197 708 161 729 z "},"⁴":{"ha":522,"x_min":0,"x_max":0,"o":"m 186 829 l 244 942 l 300 1049 l 306 1049 l 297 886 l 297 829 z m 511 829 l 431 829 l 431 1153 l 244 1153 l 49 807 l 49 732 l 297 732 l 297 611 l 431 611 l 431 732 l 511 732 z "},"⁵":{"ha":522,"x_min":0,"x_max":0,"o":"m 38 704 b 260 594 86 633 163 594 b 469 783 382 594 469 675 b 293 960 469 893 389 960 b 229 951 278 960 253 957 l 238 1026 l 447 1026 l 447 1153 l 119 1153 l 96 883 l 160 839 b 240 871 186 861 208 871 b 322 790 285 871 322 843 b 243 708 322 746 289 708 b 128 775 196 708 163 729 z "},"⁶":{"ha":522,"x_min":0,"x_max":0,"o":"m 274 708 b 188 817 233 708 196 739 b 268 856 214 843 242 856 b 339 782 314 856 339 829 b 274 708 339 731 308 708 z m 463 1113 b 303 1169 431 1140 381 1169 b 50 879 142 1169 50 1051 b 281 594 50 707 133 594 b 472 786 389 594 472 676 b 303 957 472 890 407 957 b 188 910 260 957 219 940 b 313 1056 197 1000 233 1056 b 404 1019 350 1056 378 1039 z "},"⁷":{"ha":522,"x_min":0,"x_max":0,"o":"m 163 611 l 321 611 b 478 1072 331 794 354 915 l 478 1153 l 69 1153 l 69 1028 l 311 1028 b 163 611 217 885 172 779 z "},"⁸":{"ha":522,"x_min":0,"x_max":0,"o":"m 189 764 b 236 843 189 793 206 822 b 333 761 290 817 333 804 b 261 694 333 725 301 694 b 189 764 219 694 189 725 z m 283 942 b 204 1017 239 960 204 978 b 260 1067 204 1046 229 1067 b 318 1011 293 1067 318 1046 b 283 942 318 989 307 964 z m 53 749 b 261 594 53 664 139 594 b 468 750 382 594 468 664 b 371 896 468 818 425 867 l 371 901 b 451 1021 414 926 451 969 b 261 1169 451 1114 368 1169 b 72 1021 157 1169 72 1114 b 153 894 72 965 106 928 l 153 889 b 53 749 103 861 53 811 z "},"⁹":{"ha":522,"x_min":0,"x_max":0,"o":"m 253 908 b 182 982 208 908 182 935 b 247 1056 182 1033 213 1056 b 335 949 288 1056 325 1026 b 253 908 308 921 282 908 z m 60 651 b 219 594 92 624 140 594 b 472 885 379 594 472 713 b 242 1169 472 1057 389 1169 b 49 978 133 1169 49 1088 b 218 807 49 874 114 807 b 335 854 263 807 303 824 b 210 708 325 764 289 708 b 118 744 172 708 144 725 z "},"⁽":{"ha":372,"x_min":0,"x_max":0,"o":"m 214 486 l 324 531 b 229 883 261 644 229 758 b 324 1235 229 1007 261 1122 l 214 1279 b 88 883 133 1157 88 1049 b 214 486 88 717 133 608 z "},"⁾":{"ha":372,"x_min":0,"x_max":0,"o":"m 49 531 l 160 486 b 285 883 239 608 285 717 b 160 1279 285 1049 239 1157 l 49 1235 b 143 883 111 1122 143 1007 b 49 531 143 758 111 644 z "},"₀":{"ha":522,"x_min":0,"x_max":0,"o":"m 261 -369 b 488 -81 392 -369 488 -262 b 261 206 488 100 392 206 b 36 -81 131 206 36 100 b 261 -369 36 -262 131 -369 z m 261 -256 b 178 -81 215 -256 178 -210 b 261 92 178 49 215 92 b 344 -81 307 92 344 49 b 261 -256 344 -210 307 -256 z "},"₁":{"ha":522,"x_min":0,"x_max":0,"o":"m 229 -353 l 381 -353 l 381 189 l 261 189 b 106 129 215 157 181 140 l 106 38 l 229 38 z "},"₂":{"ha":522,"x_min":0,"x_max":0,"o":"m 63 -353 l 464 -353 l 464 -228 l 300 -228 b 444 22 376 -143 444 -65 b 244 206 444 139 364 206 b 38 94 161 206 93 168 l 122 17 b 221 82 153 57 185 82 b 300 -3 271 82 300 50 b 63 -272 300 -71 201 -158 z "},"₃":{"ha":522,"x_min":0,"x_max":0,"o":"m 38 -260 b 258 -369 85 -331 164 -369 b 468 -201 369 -369 468 -301 b 369 -71 468 -137 425 -93 b 449 54 419 -42 449 -3 b 260 206 449 149 360 206 b 60 113 175 206 119 176 l 144 38 b 233 92 169 68 199 92 b 301 33 275 92 301 69 b 192 -33 301 -12 258 -33 l 192 -119 b 321 -190 279 -119 321 -143 b 243 -256 321 -232 286 -256 b 128 -189 197 -256 161 -235 z "},"₄":{"ha":522,"x_min":0,"x_max":0,"o":"m 186 -135 l 244 -22 l 300 85 l 306 85 l 297 -78 l 297 -135 z m 511 -135 l 431 -135 l 431 189 l 244 189 l 49 -157 l 49 -232 l 297 -232 l 297 -353 l 431 -353 l 431 -232 l 511 -232 z "},"₅":{"ha":522,"x_min":0,"x_max":0,"o":"m 38 -260 b 260 -369 86 -331 163 -369 b 469 -181 382 -369 469 -289 b 293 -4 469 -71 389 -4 b 229 -12 278 -4 253 -7 l 238 63 l 447 63 l 447 189 l 119 189 l 96 -81 l 160 -125 b 240 -93 186 -103 208 -93 b 322 -174 285 -93 322 -121 b 243 -256 322 -218 289 -256 b 128 -189 196 -256 163 -235 z "},"₆":{"ha":522,"x_min":0,"x_max":0,"o":"m 274 -256 b 188 -147 233 -256 196 -225 b 268 -108 214 -121 242 -108 b 339 -182 314 -108 339 -135 b 274 -256 339 -233 308 -256 z m 463 149 b 303 206 431 176 381 206 b 50 -85 142 206 50 88 b 281 -369 50 -257 133 -369 b 472 -178 389 -369 472 -287 b 303 -7 472 -74 407 -7 b 188 -54 260 -7 219 -24 b 313 92 197 36 233 92 b 404 56 350 92 378 75 z "},"₇":{"ha":522,"x_min":0,"x_max":0,"o":"m 163 -353 l 321 -353 b 478 108 331 -169 354 -49 l 478 189 l 69 189 l 69 64 l 311 64 b 163 -353 217 -79 172 -185 z "},"₈":{"ha":522,"x_min":0,"x_max":0,"o":"m 189 -201 b 236 -121 189 -171 206 -142 b 333 -203 290 -147 333 -160 b 261 -269 333 -239 301 -269 b 189 -201 219 -269 189 -239 z m 283 -22 b 204 53 239 -4 204 14 b 260 103 204 82 229 103 b 318 46 293 103 318 82 b 283 -22 318 25 307 0 z m 53 -215 b 261 -369 53 -300 139 -369 b 468 -214 382 -369 468 -300 b 371 -68 468 -146 425 -97 l 371 -62 b 451 57 414 -37 451 6 b 261 206 451 150 368 206 b 72 57 157 206 72 150 b 153 -69 72 1 106 -36 l 153 -75 b 53 -215 103 -103 53 -153 z "},"₉":{"ha":522,"x_min":0,"x_max":0,"o":"m 253 -56 b 182 18 208 -56 182 -29 b 247 92 182 69 213 92 b 335 -15 288 92 325 63 b 253 -56 308 -43 282 -56 z m 60 -312 b 219 -369 92 -340 140 -369 b 472 -79 379 -369 472 -251 b 242 206 472 93 389 206 b 49 14 133 206 49 124 b 218 -157 49 -90 114 -157 b 335 -110 263 -157 303 -140 b 210 -256 325 -200 289 -256 b 118 -219 172 -256 144 -239 z "},"₍":{"ha":372,"x_min":0,"x_max":0,"o":"m 214 -478 l 324 -433 b 229 -81 261 -319 229 -206 b 324 271 229 43 261 158 l 214 315 b 88 -81 133 193 88 85 b 214 -478 88 -247 133 -356 z "},"₎":{"ha":372,"x_min":0,"x_max":0,"o":"m 49 -433 l 160 -478 b 285 -81 239 -356 285 -247 b 160 315 285 85 239 193 l 49 271 b 143 -81 111 158 143 43 b 49 -433 143 -206 111 -319 z "},"ª":{"ha":499,"x_min":0,"x_max":0,"o":"m 181 350 b 310 407 233 350 276 374 l 315 407 l 329 361 l 444 361 l 444 624 b 257 829 444 763 375 829 b 56 769 185 829 117 804 l 107 674 b 232 715 151 699 194 715 b 300 656 276 715 296 694 b 40 489 118 638 40 586 b 181 350 40 413 94 350 z m 229 460 b 178 500 197 460 178 474 b 300 572 178 533 208 561 l 300 494 b 229 460 276 472 257 460 z "},"º":{"ha":518,"x_min":0,"x_max":0,"o":"m 258 350 b 483 589 376 350 483 439 b 258 829 483 740 376 829 b 33 589 140 829 33 740 b 258 350 33 439 140 350 z m 258 464 b 181 589 204 464 181 514 b 258 715 181 665 204 715 b 338 589 313 715 338 665 b 258 464 338 514 313 464 z "},"ᵃ":{"ha":499,"x_min":0,"x_max":0,"o":"m 181 350 b 310 407 233 350 276 374 l 315 407 l 329 361 l 444 361 l 444 624 b 257 829 444 763 375 829 b 56 769 185 829 117 804 l 107 674 b 232 715 151 699 194 715 b 300 656 276 715 296 694 b 40 489 118 638 40 586 b 181 350 40 413 94 350 z m 229 460 b 178 500 197 460 178 474 b 300 572 178 533 208 561 l 300 494 b 229 460 276 472 257 460 z "},"ᵇ":{"ha":535,"x_min":0,"x_max":0,"o":"m 58 361 l 169 361 l 181 410 l 186 410 b 307 350 219 369 265 350 b 499 599 406 350 499 439 b 318 829 499 736 429 829 b 197 778 275 829 232 808 l 203 847 l 203 1003 l 58 1003 z m 203 490 l 203 675 b 276 714 228 701 250 714 b 351 596 326 714 351 676 b 272 464 351 503 315 464 b 203 490 250 464 226 471 z "},"ᶜ":{"ha":435,"x_min":0,"x_max":0,"o":"m 260 350 b 417 403 333 350 386 378 l 358 494 b 278 464 339 479 317 464 b 181 590 219 464 181 515 b 279 715 181 665 222 715 b 344 690 306 715 325 706 l 411 782 b 267 829 388 804 336 829 b 33 590 142 829 33 739 b 260 350 33 438 129 350 z "},"ᵈ":{"ha":535,"x_min":0,"x_max":0,"o":"m 226 350 b 346 404 272 350 314 374 l 349 404 l 360 361 l 478 361 l 478 1003 l 333 1003 l 333 856 l 340 781 b 228 829 313 810 275 829 b 36 599 135 829 36 742 b 226 350 36 440 110 350 z m 265 464 b 183 599 213 464 183 503 b 264 715 183 676 221 715 b 333 688 286 715 308 708 l 333 504 b 265 464 313 475 292 464 z "},"ᵉ":{"ha":481,"x_min":0,"x_max":0,"o":"m 268 350 b 436 401 324 350 386 368 l 388 488 b 288 460 354 467 321 460 b 171 553 228 460 182 485 l 443 553 b 450 610 449 572 450 585 b 253 829 450 725 390 829 b 33 590 136 829 33 736 b 268 350 33 440 136 350 z m 168 633 b 254 719 178 693 211 719 b 329 633 310 719 329 679 z "},"ᶠ":{"ha":322,"x_min":0,"x_max":0,"o":"m 351 1007 b 258 1024 329 1017 296 1024 b 83 835 129 1024 83 935 l 83 818 l 21 814 l 21 707 l 83 707 l 83 361 l 228 361 l 228 707 l 308 707 l 308 818 l 228 818 l 228 840 b 278 913 228 890 247 913 b 325 906 296 913 313 908 z "},"ᵍ":{"ha":501,"x_min":0,"x_max":0,"o":"m 149 307 b 172 347 149 322 157 336 b 235 342 192 342 214 342 l 281 342 b 347 310 325 342 347 335 b 247 257 347 281 307 257 b 149 307 188 257 149 275 z m 32 283 b 224 168 32 201 117 168 b 485 333 386 168 485 239 b 308 450 485 417 425 450 l 235 450 b 167 481 185 450 167 458 b 182 513 167 494 172 503 b 236 504 204 506 221 504 b 419 658 336 504 419 553 b 407 713 419 679 414 701 l 478 713 l 478 818 l 310 818 b 236 829 289 826 263 829 b 43 663 135 829 43 774 b 106 546 43 610 72 567 l 106 540 b 54 456 74 519 54 486 b 96 378 54 417 71 394 l 96 372 b 32 283 54 351 32 322 z m 236 590 b 176 663 201 590 176 615 b 236 733 176 710 201 733 b 296 663 271 733 296 710 b 236 590 296 615 271 590 z "},"ʰ":{"ha":533,"x_min":0,"x_max":0,"o":"m 58 361 l 203 361 l 203 665 b 281 708 231 693 253 708 b 336 625 329 708 336 681 l 336 361 l 481 361 l 481 642 b 336 829 481 756 440 829 b 193 763 275 829 225 796 l 203 847 l 203 1003 l 58 1003 z "},"ⁱ":{"ha":261,"x_min":0,"x_max":0,"o":"m 131 881 b 213 954 178 881 213 911 b 131 1026 213 996 178 1026 b 49 954 82 1026 49 996 b 131 881 49 911 82 881 z m 58 361 l 203 361 l 203 818 l 58 818 z "},"ʲ":{"ha":264,"x_min":0,"x_max":0,"o":"m 38 172 b 206 361 165 172 206 260 l 206 818 l 61 818 l 61 356 b 15 285 61 306 51 285 b -21 292 0 285 -12 288 l -46 183 b 38 172 -26 178 -4 172 z m 133 881 b 215 954 181 881 215 911 b 133 1026 215 996 181 1026 b 51 954 85 1026 51 996 b 133 881 51 911 85 881 z "},"ᵏ":{"ha":515,"x_min":0,"x_max":0,"o":"m 58 361 l 203 361 l 203 472 l 251 533 l 354 361 l 510 361 l 332 625 l 499 818 l 343 818 l 208 642 l 203 642 l 203 1003 l 58 1003 z "},"ˡ":{"ha":269,"x_min":0,"x_max":0,"o":"m 58 510 b 190 350 58 414 90 350 b 261 363 224 350 244 356 l 244 467 b 226 464 236 464 232 464 b 203 504 213 464 203 475 l 203 1003 l 58 1003 z "},"ᵐ":{"ha":801,"x_min":0,"x_max":0,"o":"m 58 361 l 203 361 l 203 667 b 275 708 231 694 253 708 b 332 625 318 708 332 681 l 332 361 l 475 361 l 475 667 b 547 708 504 694 526 708 b 604 625 592 708 604 681 l 604 361 l 749 361 l 749 642 b 601 829 749 756 703 829 b 457 751 539 829 494 792 b 328 829 432 801 390 829 b 189 758 265 829 225 796 l 186 758 l 175 818 l 58 818 z "},"ⁿ":{"ha":533,"x_min":0,"x_max":0,"o":"m 58 361 l 203 361 l 203 665 b 282 708 231 693 253 708 b 336 625 329 708 336 681 l 336 361 l 481 361 l 481 642 b 336 829 481 756 440 829 b 189 758 275 829 226 796 l 186 758 l 174 818 l 58 818 z "},"ᵒ":{"ha":518,"x_min":0,"x_max":0,"o":"m 258 350 b 483 589 376 350 483 439 b 258 829 483 740 376 829 b 33 589 140 829 33 740 b 258 350 33 439 140 350 z m 258 464 b 181 589 204 464 181 514 b 258 715 181 665 204 715 b 338 589 313 715 338 665 b 258 464 338 514 313 464 z "},"ᵖ":{"ha":535,"x_min":0,"x_max":0,"o":"m 58 176 l 203 176 l 203 306 l 194 399 b 307 350 228 367 267 350 b 499 599 406 350 499 439 b 318 829 499 736 429 829 b 188 772 271 829 219 803 l 183 772 l 174 818 l 58 818 z m 203 490 l 203 675 b 276 714 228 701 250 714 b 351 596 326 714 351 676 b 272 464 351 503 315 464 b 203 490 250 464 226 471 z "},"ʳ":{"ha":378,"x_min":0,"x_max":0,"o":"m 58 361 l 203 361 l 203 622 b 303 703 228 682 268 703 b 353 696 321 703 340 699 l 378 819 b 319 829 365 825 347 829 b 189 739 274 829 225 800 l 186 739 l 175 818 l 58 818 z "},"ˢ":{"ha":413,"x_min":0,"x_max":0,"o":"m 21 411 b 199 350 69 375 138 350 b 390 500 322 350 390 414 b 268 636 390 582 325 615 b 176 690 222 653 176 664 b 225 725 176 711 193 725 b 322 686 257 725 289 708 l 386 771 b 221 829 346 801 294 829 b 43 685 114 829 43 769 b 165 549 43 608 107 571 b 257 490 213 529 257 518 b 203 454 257 468 239 454 b 83 501 167 454 126 471 z "},"ᵗ":{"ha":360,"x_min":0,"x_max":0,"o":"m 79 532 b 240 350 79 424 125 350 b 347 367 288 350 321 358 l 322 468 b 281 461 308 463 294 461 b 224 533 247 461 224 482 l 224 707 l 331 707 l 331 818 l 224 818 l 224 938 l 103 938 l 86 818 l 17 814 l 17 707 l 79 707 z "},"ᵘ":{"ha":532,"x_min":0,"x_max":0,"o":"m 200 350 b 343 418 263 350 311 386 l 346 418 l 361 361 l 476 361 l 476 818 l 332 818 l 332 513 b 256 471 306 485 282 471 b 197 553 206 471 197 497 l 197 818 l 54 818 l 54 533 b 200 350 54 422 97 350 z "},"ᵛ":{"ha":493,"x_min":0,"x_max":0,"o":"m 164 361 l 331 361 l 482 818 l 344 818 l 288 608 l 251 467 l 249 467 l 210 608 l 154 818 l 11 818 z "},"ʷ":{"ha":726,"x_min":0,"x_max":0,"o":"m 136 361 l 301 361 l 340 536 l 363 663 l 365 663 l 388 536 l 428 361 l 596 361 l 704 818 l 572 818 l 532 613 l 510 475 l 506 475 l 479 613 l 424 818 l 308 818 l 256 613 l 231 475 l 226 475 l 206 613 l 165 818 l 22 818 z "},"ˣ":{"ha":483,"x_min":0,"x_max":0,"o":"m 11 361 l 161 361 l 194 432 l 229 503 l 235 503 l 279 432 l 319 361 l 472 361 l 331 582 l 465 818 l 315 818 l 285 747 l 257 676 l 251 676 l 213 747 l 175 818 l 21 818 l 156 599 z "},"ʸ":{"ha":490,"x_min":0,"x_max":0,"o":"m 72 306 l 47 197 b 115 189 68 192 88 189 b 324 363 228 189 278 246 l 479 818 l 342 818 l 290 629 b 258 499 279 585 267 543 l 253 499 b 218 629 240 546 232 583 l 156 818 l 11 818 l 190 376 l 183 356 b 104 299 172 324 147 299 b 72 306 94 299 88 300 z "},"ᶻ":{"ha":433,"x_min":0,"x_max":0,"o":"m 35 361 l 410 361 l 410 472 l 214 472 l 404 740 l 404 818 l 58 818 l 58 707 l 225 707 l 35 439 z "},"ₔ":{"ha":481,"x_min":0,"x_max":0,"o":"m 228 350 b 447 590 346 350 447 443 b 225 829 447 735 358 829 b 58 778 169 829 108 811 l 108 692 b 207 719 142 713 172 719 b 310 629 267 719 299 690 l 38 629 b 29 571 32 608 29 596 b 228 350 29 456 90 350 z m 226 460 b 151 547 172 460 151 499 l 311 547 b 226 460 304 486 271 460 z "},"°":{"ha":507,"x_min":0,"x_max":0,"o":"m 254 553 b 456 753 367 553 456 636 b 254 953 456 869 367 953 b 54 753 143 953 54 869 b 254 553 54 636 143 553 z m 254 650 b 161 753 200 650 161 692 b 254 854 161 813 200 854 b 347 753 310 854 347 813 b 254 650 347 692 310 650 z "},"¤":{"ha":733,"x_min":0,"x_max":0,"o":"m 129 115 l 226 214 b 367 181 269 192 318 181 b 507 214 414 181 464 192 l 604 115 l 706 218 l 621 304 b 668 458 650 346 668 397 b 621 610 668 518 651 569 l 706 696 l 604 799 l 508 701 b 367 736 464 724 415 736 b 225 701 318 736 268 724 l 129 799 l 28 696 l 111 610 b 65 458 82 569 65 518 b 113 304 65 397 82 346 l 28 218 z m 247 458 b 367 594 247 540 300 594 b 486 458 433 594 486 540 b 367 322 486 375 433 322 b 247 458 300 322 247 375 z "},"$":{"ha":733,"x_min":0,"x_max":0,"o":"m 640 781 b 433 894 586 838 522 882 l 433 1035 l 299 1035 l 299 892 b 88 635 168 865 88 771 b 454 244 88 385 454 388 b 342 149 454 181 419 149 b 143 229 275 149 214 176 l 54 92 b 299 -14 119 32 217 -4 l 299 -153 l 433 -153 l 433 -8 b 650 258 576 22 650 125 b 283 644 650 524 283 513 b 386 733 283 707 319 733 b 538 664 444 733 488 710 z "},"£":{"ha":733,"x_min":0,"x_max":0,"o":"m 331 178 b 393 338 375 228 393 271 b 390 376 393 350 392 364 l 569 376 l 569 503 l 364 503 b 349 603 356 536 349 569 b 469 733 349 692 396 733 b 579 675 514 733 547 714 l 690 786 b 450 899 628 858 553 899 b 153 614 278 899 153 789 b 175 503 153 578 163 540 l 167 503 l 72 496 l 72 376 l 211 376 b 214 339 213 364 214 351 b 67 126 214 240 150 164 l 67 0 l 690 0 l 690 172 l 331 172 z "},"¥":{"ha":733,"x_min":0,"x_max":0,"o":"m 17 882 l 221 475 l 51 475 l 51 378 l 264 378 l 264 301 l 51 301 l 51 204 l 264 204 l 264 0 l 468 0 l 468 204 l 682 204 l 682 301 l 468 301 l 468 378 l 682 378 l 682 475 l 513 475 l 717 882 l 511 882 l 442 697 b 372 515 418 638 396 576 l 367 515 b 297 697 342 575 319 636 l 226 882 z "},"€":{"ha":733,"x_min":0,"x_max":0,"o":"m 608 217 b 481 142 572 168 533 142 b 324 299 403 142 349 197 l 563 299 l 563 403 l 310 403 b 308 443 308 415 308 429 b 308 472 308 453 308 463 l 618 472 l 618 575 l 321 575 b 476 740 343 681 397 740 b 596 681 525 740 561 715 l 710 790 b 483 899 650 860 567 899 b 115 574 299 899 158 781 l 29 567 l 29 472 l 104 472 b 103 436 103 460 103 449 b 104 400 103 424 103 413 l 29 394 l 29 299 l 115 299 b 468 -17 157 92 294 -17 b 721 111 568 -17 654 29 z "},"¢":{"ha":733,"x_min":0,"x_max":0,"o":"m 382 253 b 282 426 317 281 282 343 b 382 600 282 510 315 571 z m 594 286 b 494 238 567 264 533 244 l 494 615 b 574 578 521 613 546 600 l 667 703 b 494 781 626 744 567 774 l 494 910 l 382 910 l 382 775 b 83 426 210 746 83 622 b 382 75 83 225 201 99 l 382 -57 l 494 -57 l 494 75 b 676 157 557 83 624 111 z "},"ƒ":{"ha":733,"x_min":0,"x_max":0,"o":"m 686 897 b 567 922 658 910 601 922 b 285 635 383 922 307 839 l 278 575 l 260 575 l 157 567 l 157 426 l 261 426 l 238 224 b 131 26 221 65 196 29 b 69 39 110 28 89 31 l 42 -112 b 161 -133 63 -125 107 -133 b 424 164 350 -133 404 -1 l 456 426 l 615 426 l 615 575 l 472 575 l 482 651 b 583 760 489 717 521 760 b 647 744 611 760 631 750 z "},"₡":{"ha":733,"x_min":0,"x_max":0,"o":"m 444 739 b 472 740 453 740 463 740 b 499 738 482 740 490 739 l 429 146 b 376 168 410 150 392 157 z m 315 244 b 281 443 293 294 281 361 b 371 708 281 571 311 663 z m 603 217 b 499 144 572 178 539 154 l 565 706 b 603 668 578 694 590 682 l 715 779 b 585 878 679 824 633 857 l 604 1035 l 535 1035 l 518 896 b 478 899 504 897 492 899 b 463 899 472 899 468 899 l 479 1035 l 410 1035 l 393 890 b 75 436 203 854 75 692 b 289 18 75 221 160 81 l 268 -153 l 338 -153 l 356 -6 b 410 -15 372 -10 390 -12 l 393 -153 l 463 -153 l 479 -15 b 717 111 572 -8 651 36 z "},"₤":{"ha":733,"x_min":0,"x_max":0,"o":"m 331 178 b 392 301 367 218 385 254 l 569 301 l 569 404 l 386 404 b 372 471 382 426 378 449 l 569 471 l 569 575 l 350 575 b 349 603 349 585 349 593 b 469 733 349 692 396 733 b 579 675 514 733 547 714 l 690 786 b 450 899 628 858 553 899 b 153 614 278 899 153 789 b 157 575 153 601 154 588 l 153 575 l 72 567 l 72 471 l 186 471 b 206 404 193 449 200 426 l 175 404 l 72 397 l 72 301 l 211 301 b 67 126 197 221 139 158 l 67 0 l 690 0 l 690 172 l 331 172 z "},"₦":{"ha":733,"x_min":0,"x_max":0,"o":"m 496 408 l 444 408 l 425 475 l 490 475 z m 522 151 l 517 151 l 467 328 l 504 328 z m 238 475 l 289 475 l 308 408 l 243 408 z m 211 731 l 217 731 l 267 556 l 229 556 z m 728 475 l 728 556 l 632 556 l 632 882 l 485 882 l 485 556 l 401 556 l 290 882 l 101 882 l 101 556 l 4 547 l 4 475 l 101 475 l 101 408 l 4 400 l 4 328 l 101 328 l 101 0 l 249 0 l 249 328 l 332 328 l 443 0 l 632 0 l 632 328 l 728 328 l 728 408 l 632 408 l 632 475 z "},"₧":{"ha":733,"x_min":0,"x_max":0,"o":"m 283 424 l 283 528 l 449 528 b 318 424 433 463 388 424 z m 318 754 b 449 654 388 754 432 724 l 283 654 l 283 754 z m 721 654 l 639 654 b 329 882 613 822 485 882 l 90 882 l 90 653 l 4 646 l 4 528 l 90 528 l 90 0 l 283 0 l 283 294 l 329 294 b 640 528 481 294 614 369 l 721 528 z "},"₫":{"ha":733,"x_min":0,"x_max":0,"o":"m 108 0 l 663 0 l 663 103 l 108 103 z m 449 346 b 356 296 418 310 392 296 b 263 424 299 296 263 336 b 361 536 263 494 311 536 b 449 500 394 536 419 526 z m 617 836 l 617 904 l 449 904 l 449 836 l 249 836 l 249 733 l 449 733 l 449 713 l 454 619 b 319 674 415 656 381 674 b 90 425 207 674 90 581 b 314 161 90 256 178 161 b 461 225 372 161 425 186 l 465 225 l 478 175 l 617 175 l 617 733 l 718 742 l 718 836 z "},"₱":{"ha":733,"x_min":0,"x_max":0,"o":"m 283 561 l 283 624 l 454 624 b 456 586 456 613 456 600 b 454 561 456 578 456 569 z m 283 424 l 283 481 l 429 481 b 318 424 407 444 369 424 z m 318 754 b 428 704 368 754 404 739 l 283 704 l 283 754 z m 721 704 l 628 704 b 329 882 585 833 468 882 l 90 882 l 90 703 l 4 696 l 4 624 l 90 624 l 90 560 l 4 553 l 4 481 l 90 481 l 90 0 l 283 0 l 283 294 l 329 294 b 628 481 465 294 586 354 l 721 481 l 721 561 l 643 561 b 644 586 644 569 644 578 b 643 624 644 599 644 611 l 721 624 z "},"₲":{"ha":733,"x_min":0,"x_max":0,"o":"m 410 336 l 506 336 l 506 167 b 440 149 490 156 465 149 b 257 443 324 149 257 251 b 436 740 257 629 319 740 b 575 675 494 740 533 715 l 688 786 b 494 894 633 843 567 882 l 494 1035 l 358 1035 l 358 890 b 53 436 175 853 53 690 b 358 -11 53 174 179 19 l 358 -153 l 494 -153 l 494 -11 b 688 86 567 3 632 36 l 688 503 l 410 503 z "},"₵":{"ha":733,"x_min":0,"x_max":0,"o":"m 399 156 b 281 443 322 190 281 290 b 399 725 281 589 321 689 z m 603 217 b 511 149 575 182 546 160 l 511 735 b 592 681 542 726 568 707 l 704 790 b 511 897 653 850 583 888 l 511 1022 l 399 1022 l 399 892 b 75 436 206 857 75 694 b 399 -14 75 165 210 11 l 399 -153 l 511 -153 l 511 -11 b 717 111 590 3 660 44 z "},"₹":{"ha":733,"x_min":0,"x_max":0,"o":"m 646 882 l 96 882 l 96 719 l 186 719 b 344 643 271 719 325 700 l 199 643 l 96 635 l 96 540 l 346 540 b 186 442 328 475 274 442 l 96 442 l 96 279 l 194 279 l 393 0 l 622 0 l 385 314 b 549 540 472 353 535 426 l 646 540 l 646 643 l 547 643 b 463 779 536 700 508 747 l 646 779 z "},"₺":{"ha":733,"x_min":0,"x_max":0,"o":"m 329 174 l 329 406 l 532 513 l 532 625 l 329 518 l 329 594 l 532 701 l 532 814 l 329 707 l 329 882 l 125 882 l 125 607 l 19 550 l 19 438 l 125 494 l 125 418 l 19 361 l 19 249 l 125 306 l 125 -17 b 693 363 485 -26 693 110 b 683 433 693 378 690 406 l 515 394 b 518 353 518 374 518 361 b 329 174 518 254 432 185 z "},"⁄":{"ha":133,"x_min":0,"x_max":0,"o":"m -119 -17 l 369 922 l 251 922 l -237 -17 z "},"∕":{"ha":133,"x_min":0,"x_max":0,"o":"m -119 -17 l 369 922 l 251 922 l -237 -17 z "},"%":{"ha":1190,"x_min":0,"x_max":0,"o":"m 261 347 b 488 636 392 347 488 454 b 261 922 488 817 392 922 b 36 636 131 922 36 817 b 261 347 36 454 131 347 z m 261 461 b 178 636 215 461 178 507 b 261 808 178 764 215 808 b 344 636 307 808 344 764 b 261 461 344 507 307 461 z m 411 -17 l 899 922 l 782 922 l 293 -17 z m 929 -17 b 1156 272 1060 -17 1156 90 b 929 558 1156 453 1060 558 b 703 272 799 558 703 453 b 929 -17 703 90 799 -17 z m 929 97 b 846 272 883 97 846 143 b 929 444 846 401 883 444 b 1013 272 975 444 1013 401 b 929 97 1013 143 975 97 z "},"‰":{"ha":1735,"x_min":0,"x_max":0,"o":"m 410 -17 l 899 922 l 781 922 l 292 -17 z m 261 347 b 488 636 392 347 488 454 b 261 922 488 817 392 922 b 36 636 131 922 36 817 b 261 347 36 454 131 347 z m 261 461 b 178 636 215 461 178 507 b 261 808 178 764 215 808 b 344 636 307 808 344 764 b 261 461 344 507 307 461 z m 928 -17 b 1154 272 1060 -17 1154 90 b 928 558 1154 453 1060 558 b 703 272 797 558 703 453 b 928 -17 703 90 797 -17 z m 928 97 b 844 272 882 97 844 143 b 928 444 844 401 882 444 b 1013 272 974 444 1013 401 b 928 97 1013 143 974 97 z m 1474 -17 b 1699 272 1604 -17 1699 90 b 1474 558 1699 453 1604 558 b 1247 272 1342 558 1247 453 b 1474 -17 1247 90 1342 -17 z m 1474 97 b 1389 272 1428 97 1389 143 b 1474 444 1389 401 1428 444 b 1557 272 1519 444 1557 401 b 1474 97 1557 143 1519 97 z "},"¼":{"ha":1124,"x_min":0,"x_max":0,"o":"m 339 364 l 339 906 l 219 906 b 64 846 174 874 139 857 l 64 753 l 188 753 l 188 364 z m 747 922 l 258 -17 l 376 -17 l 864 922 z m 788 218 l 844 331 l 900 438 l 906 438 l 899 275 l 899 218 z m 1111 218 l 1031 218 l 1031 542 l 844 542 l 649 196 l 649 121 l 899 121 l 899 0 l 1031 0 l 1031 121 l 1111 121 z "},"½":{"ha":1175,"x_min":0,"x_max":0,"o":"m 188 364 l 339 364 l 339 906 l 219 906 b 64 846 174 874 139 857 l 64 753 l 188 753 z m 354 -17 l 843 922 l 725 922 l 236 -17 z m 714 0 l 1115 0 l 1115 125 l 953 125 b 1096 375 1028 210 1096 288 b 896 558 1096 492 1015 558 b 689 447 813 558 744 521 l 774 369 b 872 435 804 410 836 435 b 951 350 922 435 951 403 b 714 81 951 282 853 194 z "},"¾":{"ha":1136,"x_min":0,"x_max":0,"o":"m 140 754 b 229 808 165 785 194 808 b 297 750 269 808 297 786 b 188 683 297 704 254 683 l 188 597 b 317 526 274 597 317 574 b 238 461 317 485 282 461 b 124 528 193 461 157 482 l 33 457 b 254 347 81 386 158 347 b 464 514 365 347 464 414 b 365 646 464 578 419 624 b 443 771 414 675 443 713 b 256 922 443 864 356 922 b 56 829 169 922 114 892 z m 778 922 l 289 -17 l 407 -17 l 894 922 z m 799 218 l 857 331 l 913 438 l 918 438 l 910 275 l 910 218 z m 1124 218 l 1043 218 l 1043 542 l 857 542 l 661 196 l 661 121 l 910 121 l 910 0 l 1043 0 l 1043 121 l 1124 121 z "},"⅓":{"ha":1163,"x_min":0,"x_max":0,"o":"m 188 364 l 339 364 l 339 906 l 219 906 b 64 846 174 874 139 857 l 64 753 l 188 753 z m 346 -17 l 835 922 l 717 922 l 228 -17 z m 678 93 b 899 -17 725 22 803 -17 b 1108 151 1010 -17 1108 51 b 1010 282 1108 215 1065 260 b 1088 407 1060 311 1088 350 b 900 558 1088 501 1000 558 b 700 465 814 558 758 529 l 785 390 b 874 444 810 421 839 444 b 942 386 914 444 942 422 b 832 319 942 340 899 319 l 832 233 b 961 163 919 233 961 210 b 883 97 961 121 926 97 b 768 164 838 97 801 118 z "},"⅔":{"ha":1179,"x_min":0,"x_max":0,"o":"m 64 364 l 467 364 l 467 489 l 303 489 b 447 739 379 574 447 650 b 247 922 447 856 367 922 b 40 811 164 922 96 883 l 125 733 b 224 799 156 774 186 799 b 303 713 274 799 303 767 b 64 444 303 646 204 558 z m 415 -17 l 904 922 l 786 922 l 297 -17 z m 694 93 b 914 -17 742 22 819 -17 b 1125 151 1026 -17 1125 51 b 1026 282 1125 215 1081 260 b 1104 407 1075 311 1104 350 b 915 558 1104 501 1017 558 b 717 465 831 558 775 529 l 801 390 b 890 444 826 421 856 444 b 957 386 931 444 957 422 b 849 319 957 340 915 319 l 849 233 b 978 163 935 233 978 210 b 899 97 978 121 943 97 b 785 164 853 97 818 118 z "},"⅛":{"ha":1163,"x_min":0,"x_max":0,"o":"m 188 364 l 339 364 l 339 906 l 219 906 b 64 846 174 874 139 857 l 64 753 l 188 753 z m 360 -17 l 849 922 l 731 922 l 242 -17 z m 829 153 b 876 232 829 182 846 211 b 974 150 931 206 974 193 b 901 83 974 114 942 83 b 829 153 858 83 829 114 z m 924 331 b 844 406 879 349 844 367 b 900 456 844 435 869 456 b 958 400 933 456 958 435 b 924 331 958 378 947 353 z m 693 138 b 901 -17 693 53 779 -17 b 1108 139 1022 -17 1108 53 b 1010 285 1108 207 1065 256 l 1010 290 b 1092 410 1054 315 1092 358 b 901 558 1092 503 1008 558 b 711 410 797 558 711 503 b 792 283 711 354 744 317 l 792 278 b 693 138 743 250 693 200 z "},"⅜":{"ha":1179,"x_min":0,"x_max":0,"o":"m 38 457 b 258 347 85 386 164 347 b 468 514 369 347 468 414 b 369 646 468 578 425 624 b 449 771 419 675 449 713 b 260 922 449 864 360 922 b 60 829 175 922 119 892 l 144 754 b 233 808 169 785 199 808 b 301 750 275 808 301 786 b 192 683 301 704 258 683 l 192 597 b 321 526 279 597 321 574 b 243 461 321 485 286 461 b 128 528 197 461 161 482 z m 404 -17 l 892 922 l 775 922 l 286 -17 z m 846 153 b 892 232 846 182 863 211 b 989 150 947 206 989 193 b 917 83 989 114 958 83 b 846 153 875 83 846 114 z m 940 331 b 861 406 896 349 861 367 b 917 456 861 435 886 456 b 975 400 949 456 975 435 b 940 331 975 378 964 353 z m 710 138 b 917 -17 710 53 796 -17 b 1125 139 1038 -17 1125 53 b 1026 285 1125 207 1082 256 l 1026 290 b 1108 410 1071 315 1108 358 b 917 558 1108 503 1025 558 b 728 410 813 558 728 503 b 808 283 728 354 761 317 l 808 278 b 710 138 760 250 710 200 z "},"⅝":{"ha":1179,"x_min":0,"x_max":0,"o":"m 38 457 b 260 347 86 386 163 347 b 469 535 382 347 469 428 b 293 713 469 646 389 713 b 229 703 278 713 253 710 l 238 779 l 447 779 l 447 906 l 119 906 l 96 636 l 160 592 b 240 624 186 614 208 624 b 322 542 285 624 322 594 b 243 461 322 497 289 461 b 128 528 196 461 163 482 z m 404 -17 l 892 922 l 775 922 l 286 -17 z m 846 153 b 892 232 846 182 863 211 b 989 150 947 206 989 193 b 917 83 989 114 958 83 b 846 153 875 83 846 114 z m 940 331 b 861 406 896 349 861 367 b 917 456 861 435 886 456 b 975 400 949 456 975 435 b 940 331 975 378 964 353 z m 710 138 b 917 -17 710 53 796 -17 b 1125 139 1038 -17 1125 53 b 1026 285 1125 207 1082 256 l 1026 290 b 1108 410 1071 315 1108 358 b 917 558 1108 503 1025 558 b 728 410 813 558 728 503 b 808 283 728 354 761 317 l 808 278 b 710 138 760 250 710 200 z "},"⅞":{"ha":1151,"x_min":0,"x_max":0,"o":"m 135 364 l 293 364 b 450 825 303 547 326 668 l 450 906 l 42 906 l 42 779 l 283 779 b 135 364 189 638 144 532 z m 335 -17 l 822 922 l 706 922 l 217 -17 z m 818 153 b 864 232 818 182 835 211 b 961 150 919 206 961 193 b 889 83 961 114 931 83 b 818 153 847 83 818 114 z m 913 331 b 833 406 868 349 833 367 b 889 456 833 435 858 456 b 947 400 921 456 947 435 b 913 331 947 378 936 353 z m 682 138 b 889 -17 682 53 768 -17 b 1097 139 1010 -17 1097 53 b 999 285 1097 207 1054 256 l 999 290 b 1081 410 1043 315 1081 358 b 889 558 1081 503 997 558 b 700 410 785 558 700 503 b 781 283 700 354 733 317 l 781 278 b 682 138 732 250 682 200 z "},"+":{"ha":733,"x_min":0,"x_max":0,"o":"m 292 131 l 442 131 l 442 386 l 686 386 l 686 531 l 442 531 l 442 786 l 292 786 l 292 531 l 47 531 l 47 386 l 292 386 z "},"−":{"ha":733,"x_min":0,"x_max":0,"o":"m 47 386 l 686 386 l 686 531 l 47 531 z "},"×":{"ha":733,"x_min":0,"x_max":0,"o":"m 168 156 l 367 356 l 565 156 l 667 258 l 469 457 l 667 657 l 565 760 l 367 560 l 168 760 l 67 657 l 264 457 l 67 258 z "},"÷":{"ha":733,"x_min":0,"x_max":0,"o":"m 367 601 b 479 708 431 601 479 646 b 367 815 479 771 431 815 b 254 708 303 815 254 771 b 367 601 254 646 303 601 z m 254 208 b 367 101 254 146 303 101 b 479 208 431 101 479 146 b 367 315 479 271 431 315 b 254 208 303 315 254 271 z m 47 386 l 686 386 l 686 531 l 47 531 z "},"∙":{"ha":735,"x_min":0,"x_max":0,"o":"m 243 457 b 367 328 243 385 296 328 b 489 457 438 328 489 385 b 367 585 489 529 438 585 b 243 457 296 585 243 529 z "},"=":{"ha":733,"x_min":0,"x_max":0,"o":"m 47 549 l 686 549 l 686 692 l 47 692 z m 47 225 l 686 225 l 686 368 l 47 368 z "},"<":{"ha":733,"x_min":0,"x_max":0,"o":"m 47 390 l 686 144 l 686 313 l 442 393 l 254 458 l 254 464 l 442 529 l 686 610 l 686 778 l 47 532 z "},">":{"ha":733,"x_min":0,"x_max":0,"o":"m 686 532 l 47 778 l 47 610 l 292 529 l 479 464 l 479 458 l 292 393 l 47 313 l 47 144 l 686 390 z "},"≤":{"ha":733,"x_min":0,"x_max":0,"o":"m 47 0 l 686 0 l 686 144 l 47 144 z m 47 411 l 686 214 l 686 382 l 447 446 l 254 493 l 254 499 l 447 546 l 686 610 l 686 778 l 47 581 z "},"≥":{"ha":733,"x_min":0,"x_max":0,"o":"m 47 0 l 686 0 l 686 144 l 47 144 z m 686 581 l 47 778 l 47 610 l 286 546 l 479 499 l 479 493 l 286 446 l 47 382 l 47 214 l 686 411 z "},"±":{"ha":733,"x_min":0,"x_max":0,"o":"m 292 219 l 442 219 l 442 408 l 686 408 l 686 553 l 442 553 l 442 786 l 292 786 l 292 553 l 47 553 l 47 408 l 292 408 z m 47 0 l 686 0 l 686 144 l 47 144 z "},"^":{"ha":733,"x_min":0,"x_max":0,"o":"m 69 381 l 238 381 l 301 558 l 364 746 l 369 746 l 432 558 l 496 381 l 664 381 l 449 931 l 285 931 z "},"≠":{"ha":733,"x_min":0,"x_max":0,"o":"m 72 56 l 201 56 l 301 225 l 686 225 l 686 368 l 381 368 l 482 549 l 686 549 l 686 692 l 563 692 l 663 861 l 532 861 l 432 692 l 47 692 l 47 549 l 353 549 l 251 368 l 47 368 l 47 225 l 171 225 z "},"~":{"ha":733,"x_min":0,"x_max":0,"o":"m 146 358 b 246 439 175 410 208 439 b 485 333 322 439 369 333 b 693 476 554 333 625 372 l 588 558 b 488 478 558 507 526 478 b 249 583 411 478 364 583 b 40 440 179 583 108 544 z "},"≈":{"ha":733,"x_min":0,"x_max":0,"o":"m 146 521 b 246 600 175 571 208 600 b 485 496 322 600 369 496 b 693 639 554 496 625 533 l 588 719 b 488 640 558 669 526 640 b 249 744 411 640 364 744 b 40 601 179 744 108 706 z m 146 197 b 246 276 175 247 208 276 b 485 172 322 276 369 172 b 693 315 554 172 625 211 l 588 396 b 488 317 558 346 526 317 b 249 421 411 317 364 421 b 40 278 179 421 108 383 z "},"¬":{"ha":733,"x_min":0,"x_max":0,"o":"m 47 386 l 536 386 l 536 131 l 686 131 l 686 531 l 47 531 z "},"π":{"ha":842,"x_min":0,"x_max":0,"o":"m 144 0 l 346 0 l 347 528 l 507 528 l 507 219 b 699 -17 507 78 556 -17 b 804 1 746 -17 781 -10 l 781 151 b 753 149 768 149 761 149 b 711 211 732 149 711 165 l 711 528 l 804 528 l 804 689 l 128 689 l 25 681 l 25 528 l 144 528 z "},"∞":{"ha":1131,"x_min":0,"x_max":0,"o":"m 288 193 b 515 321 390 193 467 257 l 521 321 b 804 157 607 207 689 157 b 1079 472 956 157 1079 271 b 815 749 1079 632 963 749 b 549 599 704 749 619 690 l 543 599 b 315 726 493 667 421 726 b 51 440 158 726 51 621 b 288 193 51 308 154 193 z m 617 486 b 794 600 671 563 733 600 b 929 468 876 600 929 550 b 804 346 929 403 882 346 b 617 486 726 346 674 408 z m 306 342 b 201 444 240 342 201 392 b 299 538 201 499 233 538 b 447 433 354 538 407 494 b 306 342 410 378 363 342 z "},"µ":{"ha":796,"x_min":0,"x_max":0,"o":"m 90 -278 l 294 -278 l 294 -100 l 282 25 b 368 -6 306 0 335 -6 b 519 96 429 -6 485 29 l 525 96 l 540 0 l 707 0 l 707 689 l 503 689 l 503 233 b 379 157 463 179 431 157 b 294 288 321 157 294 189 l 294 689 l 90 689 z "},"∂":{"ha":801,"x_min":0,"x_max":0,"o":"m 361 149 b 254 269 306 149 254 189 b 389 424 254 374 311 424 b 526 342 439 424 488 401 b 361 149 497 199 432 149 z m 247 706 b 390 768 290 746 336 768 b 542 518 500 768 542 674 b 542 496 542 510 542 503 b 365 579 494 549 431 579 b 67 257 190 579 67 447 b 339 -17 67 89 190 -17 b 735 513 572 -17 735 194 b 413 933 735 765 628 933 b 160 831 315 933 233 896 z "},"∫":{"ha":542,"x_min":0,"x_max":0,"o":"m 78 -61 l 58 -208 b 138 -219 74 -214 104 -219 b 399 124 356 -219 399 -72 b 347 761 399 353 347 549 b 435 946 347 892 363 946 b 483 940 454 946 471 944 l 504 1089 b 425 1099 489 1093 457 1099 b 163 756 207 1099 163 951 b 215 118 163 526 215 331 b 128 -67 215 -14 200 -67 b 78 -61 108 -67 92 -64 z "}}}
